<?xml version="1.0" standalone="no"?>
<!DOCTYPE svg PUBLIC "-//W3C//DTD SVG 20010904//EN"
 "http://www.w3.org/TR/2001/REC-SVG-20010904/DTD/svg10.dtd">
<svg version="1.0" xmlns="http://www.w3.org/2000/svg"
 width="1920.000000pt" height="1005.000000pt" viewBox="0 0 1920.000000 1005.000000"
 preserveAspectRatio="xMidYMid meet">

<g transform="translate(0.000000,1005.000000) scale(0.100000,-0.100000)"
fill="#000000" stroke="none">
<path d="M8182 7193 l3 -78 80 0 80 0 3 78 3 77 -86 0 -86 0 3 -77z"/>
<path d="M3500 7178 l0 -67 128 -3 127 -3 3 -397 2 -398 85 0 85 0 2 398 3
397 128 3 128 3 -3 65 -3 65 -343 2 -342 2 0 -67z"/>
<path d="M4346 7242 c-15 -3 -16 -45 -16 -468 l0 -464 193 0 c215 0 270 9 369
62 137 73 208 214 208 411 0 147 -43 259 -129 340 -57 54 -131 92 -206 107
-47 9 -383 19 -419 12z m410 -162 c103 -45 153 -127 162 -267 9 -155 -35 -268
-128 -325 -49 -30 -157 -51 -232 -46 l-43 3 -3 334 -2 334 99 -6 c70 -3 113
-11 147 -27z"/>
<path d="M5584 7241 c-2 -2 -4 -213 -4 -468 l0 -463 80 0 80 0 2 347 3 346
139 -346 140 -347 32 0 c23 0 33 5 37 20 3 10 63 164 133 342 l129 323 3 -342
2 -343 90 0 90 0 -2 466 -3 467 -114 -1 -114 -1 -14 -33 c-8 -18 -61 -159
-119 -313 -58 -153 -106 -280 -108 -282 -3 -3 -99 239 -197 497 l-47 125 -117
5 c-64 3 -119 3 -121 1z"/>
<path d="M7667 6996 c-63 -17 -125 -62 -148 -106 -23 -43 -25 -139 -4 -180 31
-59 85 -87 239 -120 95 -21 136 -47 136 -84 -1 -68 -37 -96 -122 -96 -67 0
-112 26 -129 74 l-13 36 -73 0 -74 0 7 -37 c10 -54 28 -85 70 -122 44 -39 65
-48 149 -61 78 -12 177 1 237 31 23 12 51 39 69 67 28 43 30 53 27 122 -2 55
-8 82 -23 102 -28 40 -107 75 -205 94 -102 19 -145 36 -159 62 -17 33 -13 51
18 83 26 25 37 29 86 29 49 0 60 -4 86 -29 16 -16 29 -37 29 -45 0 -13 13 -16
76 -16 l76 0 -7 33 c-15 69 -61 124 -127 151 -53 23 -163 29 -221 12z"/>
<path d="M8763 7000 c-91 -19 -188 -90 -228 -169 -73 -145 -49 -338 55 -441
116 -117 347 -128 470 -23 43 37 90 123 90 165 0 28 0 28 -69 28 -66 0 -69 -1
-76 -27 -10 -42 -45 -84 -81 -99 -50 -21 -133 -18 -173 7 -73 44 -96 104 -89
233 4 70 9 91 31 125 38 57 95 84 164 79 66 -6 101 -30 128 -86 l19 -42 74 0
74 0 -7 37 c-9 50 -31 91 -69 131 -41 44 -88 68 -161 81 -66 12 -92 12 -152 1z"/>
<path d="M6732 6728 c3 -282 8 -310 61 -366 85 -92 280 -88 360 7 15 18 28 29
29 24 0 -4 2 -12 3 -18 2 -5 3 -23 4 -38 l1 -28 76 3 76 3 0 335 0 335 -75 3
-75 3 -3 -228 c-4 -206 -6 -231 -24 -262 -29 -49 -63 -71 -121 -77 -70 -9
-117 14 -138 67 -13 32 -16 83 -16 269 l0 230 -81 0 -80 0 3 -262z"/>
<path d="M8190 6650 l0 -340 75 0 75 0 0 340 0 340 -75 0 -75 0 0 -340z"/>
<path d="M15300 5578 l-1 -323 -21 30 c-78 108 -166 154 -313 162 -158 9 -277
-37 -378 -147 -103 -112 -149 -259 -149 -475 0 -227 51 -375 166 -482 74 -69
130 -99 228 -119 167 -35 332 22 426 147 l37 50 5 -88 5 -88 198 -3 197 -2 0
830 0 830 -200 0 -200 0 0 -322z m-150 -435 c52 -10 125 -87 144 -152 21 -71
21 -235 1 -305 -31 -105 -110 -165 -218 -166 -145 0 -222 90 -234 277 -9 131
21 247 79 300 50 47 138 65 228 46z"/>
<path d="M4180 5865 c-325 -69 -548 -285 -620 -600 -30 -128 -25 -378 9 -500
96 -339 335 -519 731 -550 179 -14 402 32 530 110 117 71 220 197 259 318 20
63 41 156 41 182 0 13 -35 15 -228 15 l-227 0 -12 -51 c-29 -121 -128 -198
-267 -207 -232 -15 -362 133 -374 425 -10 248 57 412 195 479 51 25 69 29 148
29 77 0 98 -4 139 -25 61 -31 110 -99 127 -175 l12 -55 234 0 c203 0 233 2
233 15 0 49 -37 181 -71 253 -30 66 -54 99 -111 156 -84 83 -163 128 -287 163
-109 31 -356 41 -461 18z"/>
<path d="M12300 5545 l0 -125 -70 0 -70 0 0 -135 0 -135 70 0 c70 0 70 0 70
-27 -1 -313 9 -605 23 -651 44 -150 140 -228 310 -253 79 -12 224 -1 282 21
l25 10 0 144 0 145 -70 -6 c-80 -7 -120 6 -147 46 -16 23 -18 53 -18 296 l0
270 115 5 115 5 3 132 3 132 -118 3 -118 3 -3 123 -3 122 -199 0 -200 0 0
-125z"/>
<path d="M5735 5434 c-224 -47 -410 -223 -460 -435 -19 -82 -19 -265 0 -347
23 -99 70 -179 149 -257 140 -139 350 -204 567 -176 359 46 575 299 556 651
-11 210 -99 371 -261 477 -136 90 -365 126 -551 87z m261 -295 c41 -12 88 -63
116 -124 20 -44 23 -65 23 -185 0 -130 -1 -137 -30 -195 -42 -82 -93 -118
-181 -123 -155 -10 -240 79 -260 272 -8 81 10 195 41 257 50 98 163 137 291
98z"/>
<path d="M7390 5435 c-92 -26 -156 -71 -227 -160 l-32 -40 -1 93 0 92 -200 0
-200 0 2 -587 3 -588 197 -3 197 -2 3 372 c3 359 4 374 24 413 27 49 49 70 97
90 72 30 176 12 217 -37 35 -44 40 -97 40 -472 l0 -366 200 0 200 0 0 413 c0
230 -5 441 -10 477 -22 135 -111 257 -218 295 -67 24 -222 29 -292 10z"/>
<path d="M8813 5435 c-98 -27 -168 -76 -236 -165 l-27 -35 0 93 0 92 -200 0
-200 0 0 -590 0 -590 200 0 200 0 0 353 c0 396 4 429 62 484 42 40 97 56 165
51 64 -6 100 -29 128 -84 19 -37 20 -62 23 -422 l3 -382 197 2 197 3 0 430 c0
449 -2 480 -46 582 -28 65 -91 126 -161 158 -78 35 -220 44 -305 20z"/>
<path d="M10003 5439 c-130 -22 -255 -90 -347 -190 -103 -111 -150 -246 -149
-434 0 -102 4 -132 27 -201 49 -152 141 -260 280 -327 112 -55 188 -70 346
-70 244 2 398 64 504 206 31 42 76 155 76 192 0 11 -36 13 -181 12 -170 -2
-183 -3 -193 -22 -32 -57 -53 -79 -94 -97 -53 -24 -162 -27 -213 -5 -76 31
-130 105 -145 195 l-7 42 419 0 419 0 -6 132 c-4 79 -14 155 -24 188 -42 136
-138 257 -252 318 -117 62 -304 87 -460 61z m264 -285 c43 -34 80 -102 85
-154 l3 -35 -214 -3 c-118 -1 -219 2 -223 6 -5 5 -1 31 11 61 44 118 111 164
228 159 62 -3 77 -7 110 -34z"/>
<path d="M11375 5444 c-11 -3 -46 -12 -78 -19 -121 -30 -234 -104 -309 -201
-57 -74 -70 -101 -99 -194 -18 -61 -23 -99 -23 -200 -1 -144 11 -203 62 -310
65 -137 187 -234 357 -281 94 -26 281 -31 380 -10 78 17 197 72 250 116 83 67
145 189 157 308 l6 47 -179 0 -178 0 -11 -38 c-32 -120 -138 -181 -263 -151
-38 9 -62 23 -97 58 -61 61 -75 111 -75 266 0 113 2 123 30 180 17 33 47 72
68 90 37 28 44 30 127 30 74 0 93 -3 117 -21 27 -19 65 -81 76 -123 5 -20 12
-21 191 -21 214 0 197 -11 167 112 -41 174 -162 294 -346 344 -59 16 -289 28
-330 18z"/>
<path d="M13545 5434 c-215 -46 -387 -206 -451 -419 -23 -75 -26 -283 -5 -365
33 -129 123 -259 228 -329 196 -130 539 -143 764 -30 92 46 196 176 214 269 3
19 9 42 11 52 4 15 -12 16 -180 16 l-185 0 -20 -41 c-12 -23 -36 -52 -54 -65
-62 -41 -190 -47 -260 -11 -66 34 -119 114 -129 199 l-3 25 418 3 417 2 0 83
c-1 254 -82 429 -250 537 -128 82 -336 112 -515 74z m252 -259 c21 -9 46 -23
56 -33 29 -25 57 -86 64 -137 l6 -45 -222 0 c-245 0 -232 -5 -206 71 21 60 69
117 119 140 50 23 134 24 183 4z"/>
<path d="M5677 3774 c-4 -4 -7 -40 -7 -81 l0 -73 85 0 86 0 -3 78 -3 77 -75 3
c-42 1 -79 0 -83 -4z"/>
<path d="M3745 3746 c-66 -21 -101 -43 -142 -90 -88 -100 -85 -254 7 -343 41
-40 110 -67 227 -88 157 -29 207 -53 221 -108 10 -39 -3 -105 -26 -131 -26
-29 -92 -56 -140 -56 -110 0 -183 44 -204 126 l-12 44 -84 0 -83 0 7 -37 c17
-99 75 -179 159 -222 96 -48 281 -53 378 -8 112 51 167 126 175 237 11 162
-63 244 -258 285 -175 38 -200 45 -225 61 -57 37 -54 142 6 185 37 26 140 37
191 20 41 -14 82 -55 95 -96 9 -29 12 -30 78 -33 96 -4 97 -3 79 60 -29 96
-89 158 -183 188 -73 23 -203 26 -266 6z"/>
<path d="M4563 3491 c-143 -49 -218 -169 -217 -346 1 -76 5 -99 29 -153 66
-147 224 -217 409 -182 110 21 195 92 212 178 l7 32 -75 0 -74 0 -17 -36 c-32
-65 -149 -86 -237 -41 -50 25 -89 89 -90 145 l0 32 251 0 252 0 -6 73 c-15
203 -131 318 -320 317 -42 -1 -93 -8 -124 -19z m217 -119 c27 -20 70 -96 70
-124 0 -17 -13 -18 -170 -18 -110 0 -170 4 -170 10 0 19 30 84 48 104 9 10 35
27 57 38 48 23 126 18 165 -10z"/>
<path d="M5460 3501 c-49 -15 -88 -41 -118 -78 l-31 -38 -1 58 0 57 -80 0 -80
0 0 -345 0 -345 80 0 80 0 0 208 c0 182 3 212 19 249 23 49 76 81 152 90 l49
6 0 73 c0 81 -4 85 -70 65z"/>
<path d="M6220 3501 c-105 -32 -189 -118 -221 -223 -27 -88 -23 -209 9 -281
29 -65 103 -141 162 -166 140 -60 343 -26 420 72 21 27 50 88 50 107 0 6 -30
10 -74 10 -72 0 -75 -1 -88 -27 -7 -15 -29 -38 -48 -51 -30 -21 -44 -23 -107
-20 -53 2 -79 9 -100 24 -34 25 -69 86 -78 137 l-7 37 250 0 c150 0 253 4 257
10 12 20 -15 170 -39 218 -33 65 -106 128 -169 147 -53 16 -174 19 -217 6z
m194 -129 c32 -18 62 -68 68 -112 l3 -25 -167 -3 c-182 -3 -179 -3 -159 51 15
40 71 96 105 107 41 12 112 4 150 -18z"/>
<path d="M6908 3499 c-47 -14 -117 -73 -134 -116 -20 -47 -18 -127 6 -173 25
-49 90 -82 220 -110 121 -26 145 -43 145 -100 0 -60 -32 -83 -114 -83 -73 0
-107 20 -129 74 l-15 40 -71 -3 -71 -3 3 -35 c6 -61 51 -121 117 -155 54 -27
67 -30 159 -30 114 0 161 13 212 58 44 38 64 85 64 153 0 61 -12 100 -43 132
-30 33 -74 49 -202 78 -121 27 -148 44 -148 94 0 47 31 73 95 77 66 5 97 -11
121 -60 l19 -37 69 0 c78 0 83 7 54 78 -37 88 -103 125 -230 128 -49 2 -106
-2 -127 -7z"/>
<path d="M5675 3487 c-3 -6 -4 -161 -3 -342 l3 -330 78 -3 77 -3 0 346 0 345
-75 0 c-52 0 -77 -4 -80 -13z"/>
</g>
</svg>
