<?xml version="1.0" standalone="no"?>
<!DOCTYPE svg PUBLIC "-//W3C//DTD SVG 20010904//EN"
 "http://www.w3.org/TR/2001/REC-SVG-20010904/DTD/svg10.dtd">
<svg version="1.0" xmlns="http://www.w3.org/2000/svg"
 width="307.000000pt" height="167.000000pt" viewBox="0 0 307.000000 167.000000"
 preserveAspectRatio="xMidYMid meet">

<g transform="translate(0.000000,167.000000) scale(0.100000,-0.100000)"
fill="#000000" stroke="none">
<path d="M1170 1365 c0 -264 -2 -305 -15 -305 -13 0 -15 29 -15 200 l0 200
-70 0 -70 0 0 40 0 40 -205 0 -205 0 0 -40 0 -40 -287 -2 -288 -3 -3 -55 c-2
-30 1 -63 7 -75 6 -11 12 -31 14 -45 4 -20 5 -19 6 8 1 25 5 32 21 32 11 0 20
-6 20 -12 0 -10 2 -10 8 -1 6 9 39 12 120 10 91 -2 112 -5 113 -17 0 -10 3 -8
9 5 7 16 9 11 9 -21 1 -30 7 -46 24 -60 l22 -19 -18 22 c-13 15 -17 32 -14 60
l4 38 1 -36 c1 -22 9 -42 19 -50 15 -11 16 -11 6 1 -7 8 -12 30 -12 50 l2 35
7 -35 7 -35 2 34 c1 30 3 32 18 20 11 -10 14 -10 9 -1 -10 17 4 15 25 -4 13
-12 19 -12 25 -3 4 7 3 10 -4 5 -6 -3 -13 -2 -17 4 -7 12 14 13 32 2 6 -4 13
-21 16 -37 l4 -30 2 33 c1 26 5 33 18 30 10 -2 21 -16 24 -33 l7 -30 2 30 3
30 7 -35 c6 -30 8 -31 9 -8 1 21 5 25 21 21 11 -3 20 -8 20 -11 0 -4 -21 -29
-47 -57 l-48 -50 51 48 c54 51 73 54 92 13 8 -19 6 -28 -11 -47 l-22 -23 23
18 c12 11 24 17 27 15 9 -9 13 -79 5 -84 -4 -3 -6 -15 -2 -27 4 -15 2 -19 -7
-14 -8 5 -12 3 -10 -5 4 -36 -5 -39 -11 -4 l-7 40 -2 -46 c-1 -59 -22 -79 -87
-80 l-49 -2 46 -6 c26 -4 54 -13 63 -20 9 -7 16 -10 16 -5 0 4 13 -5 30 -21
16 -15 28 -31 27 -34 -1 -3 4 -15 10 -26 6 -11 10 -49 9 -85 -1 -50 -4 -64
-15 -62 -12 3 -12 0 -1 -12 21 -26 -2 -18 -34 11 -27 24 -26 23 3 -10 33 -34
33 -53 1 -25 -8 7 -7 4 3 -8 16 -20 16 -22 0 -36 -28 -24 -62 -40 -73 -33 -6
3 -10 -1 -10 -9 0 -9 -7 -16 -15 -16 -10 0 -15 10 -15 34 0 20 -7 39 -18 47
-14 11 -15 11 -4 -1 14 -16 17 -90 3 -90 -15 0 -29 23 -34 55 l-4 30 -2 -30
c0 -17 4 -36 11 -43 7 -7 8 -12 2 -13 -5 -1 -26 -3 -48 -5 l-38 -3 18 22 c14
16 11 15 -11 -4 -17 -15 -36 -24 -42 -22 -17 6 -17 85 0 103 10 12 9 12 -6 1
-12 -10 -17 -27 -17 -62 0 -46 -2 -49 -22 -44 -13 3 -33 6 -45 8 -11 2 -29 9
-40 17 -17 14 -17 14 -4 -3 8 -9 11 -21 7 -24 -4 -4 -11 -1 -16 7 -7 11 -11
11 -24 1 -12 -10 -16 -10 -16 -2 0 7 -5 9 -12 5 -19 -12 -48 -12 -55 -1 -3 6
-1 7 4 4 6 -4 17 1 24 11 13 15 12 16 -3 3 -10 -7 -18 -10 -18 -5 0 4 -5 3
-12 -4 -7 -7 -18 -12 -25 -12 -23 0 -14 35 17 65 16 16 30 25 30 20 0 -5 18 8
40 30 21 21 37 41 35 45 -3 4 4 15 15 25 19 17 20 17 20 0 0 -11 -15 -35 -32
-55 l-33 -35 38 35 c26 24 49 35 70 36 18 1 52 5 76 9 36 7 43 6 36 -6 -5 -8
1 -6 13 4 21 19 21 19 25 -25 3 -42 4 -42 5 10 1 28 5 52 9 52 3 0 16 -8 27
-17 15 -13 14 -10 -3 10 -40 44 -11 31 43 -21 27 -26 45 -40 40 -32 -4 8 -7
26 -6 40 2 18 -8 35 -40 65 l-43 40 38 -40 c20 -23 37 -51 37 -64 0 -12 -4
-20 -10 -16 -5 3 -7 11 -4 18 2 7 -10 26 -28 42 l-33 30 28 -31 c36 -41 35
-55 -3 -19 -17 16 -29 35 -28 44 4 19 -70 69 -99 66 -24 -2 -27 16 -3 27 12 5
11 7 -3 7 -11 1 -21 -8 -24 -19 -3 -11 -12 -20 -20 -20 -9 0 -11 5 -7 13 6 9
4 9 -8 -1 -16 -13 -39 -13 -49 1 -3 4 -18 -8 -35 -25 -29 -32 -29 -33 -1 -8
l28 24 -2 -56 -2 -56 -89 -89 c-48 -48 -88 -95 -88 -104 0 -9 -7 -19 -15 -23
-8 -3 -15 -1 -15 5 0 6 -7 6 -20 -1 -18 -10 -20 -21 -20 -125 l0 -115 240 0
240 0 0 75 c0 68 2 75 20 75 18 0 20 -7 20 -75 l0 -75 165 0 165 0 0 55 0 55
170 0 170 0 0 -210 0 -210 523 2 522 3 3 27 3 28 410 0 409 0 0 230 0 230
-115 0 -115 0 0 70 0 70 115 0 115 0 0 107 0 106 -24 -22 c-15 -14 -30 -20
-37 -16 -7 5 -10 4 -5 -3 7 -12 -58 -37 -74 -27 -5 3 -10 1 -10 -4 0 -15 -73
-14 -89 2 -11 9 -13 9 -7 0 5 -10 -3 -13 -30 -13 -29 0 -47 8 -74 33 l-35 32
29 -32 30 -33 -30 0 c-24 0 -51 22 -156 128 -102 102 -126 132 -126 155 0 24
3 26 17 15 13 -10 12 -8 -1 8 -21 24 -23 38 -5 28 10 -6 10 -4 0 7 -7 7 -13
17 -13 22 0 4 6 5 13 1 9 -6 9 -4 1 7 -7 8 -12 46 -13 84 l-1 70 222 3 c216 3
309 -5 316 -27 2 -6 14 -11 26 -11 13 0 35 -9 50 -21 l26 -20 0 135 0 136
-465 0 -465 0 0 -55 0 -55 -105 0 -104 0 -11 -42 c-6 -24 -17 -63 -23 -88
l-12 -44 -33 107 -33 107 -154 0 -155 0 0 115 0 115 -170 0 -170 0 0 -305z
m-336 -57 c-5 -10 -4 -11 7 0 16 14 43 16 34 2 -8 -13 4 -50 16 -50 6 0 8 4 5
9 -4 5 0 12 6 14 8 3 5 6 -5 6 -10 1 -17 7 -14 14 2 7 24 13 55 13 l52 2 0
-99 c0 -96 -1 -99 -22 -100 l-23 -2 23 -4 c15 -3 22 -11 22 -29 0 -13 -5 -23
-11 -21 -6 1 -13 -6 -14 -16 -2 -9 1 -15 6 -11 5 3 6 10 3 16 -4 7 -2 8 4 4 8
-4 11 -50 10 -135 -1 -150 12 -186 69 -197 19 -4 30 -11 26 -17 -3 -5 -2 -7 4
-4 5 3 20 8 34 11 13 2 33 8 44 12 18 6 17 4 -5 -22 -22 -25 -22 -26 -2 -10
22 19 22 19 22 -5 0 -14 -6 -31 -12 -39 -11 -12 -10 -12 4 -1 11 8 18 30 20
59 2 38 6 47 21 46 14 -2 15 1 7 11 -8 10 -8 20 -1 33 6 11 7 22 4 26 -3 3 -2
6 4 6 6 0 9 14 7 32 -2 17 0 46 5 65 6 22 6 31 0 27 -6 -4 -9 7 -6 27 3 27 8
33 23 32 16 -2 15 -1 -3 9 -22 10 -34 58 -15 58 5 0 17 7 28 16 18 15 18 15
-3 5 -28 -14 -30 -14 -30 3 0 8 7 12 16 9 13 -4 13 -2 -1 10 -21 17 -24 67 -5
67 7 0 19 -6 26 -12 11 -11 13 -10 9 2 -2 8 -15 17 -29 21 l-24 6 27 8 c15 4
31 4 37 1 5 -4 13 -1 17 5 5 9 -4 11 -34 7 l-41 -6 1 49 0 50 123 -2 124 -1 0
-131 c0 -89 -4 -136 -12 -146 -9 -11 -9 -13 0 -8 9 6 12 -17 12 -95 0 -144 -4
-160 -37 -152 -15 3 -35 7 -44 8 -9 1 -48 28 -87 59 -39 31 -71 53 -71 48 0
-5 8 -12 18 -16 16 -6 16 -7 -1 -20 -15 -11 -16 -13 -2 -19 8 -3 22 -3 29 0
16 6 20 4 99 -66 29 -25 41 -32 28 -17 -26 29 -19 36 12 12 11 -7 24 -12 30
-11 7 2 9 1 6 -1 -4 -2 -5 -12 -2 -22 3 -10 -3 -34 -12 -52 -18 -35 -83 -109
-96 -109 -5 0 -10 21 -12 48 l-3 47 -2 -53 c-2 -51 -4 -54 -37 -68 -20 -8 -40
-12 -45 -9 -5 3 -11 1 -15 -5 -3 -5 -13 -10 -21 -10 -11 0 -14 8 -12 27 2 16
8 27 15 26 7 -2 10 4 6 13 -5 13 -7 13 -14 2 -10 -15 -12 -6 -3 16 5 14 9 14
23 4 11 -9 10 -5 -3 10 -27 32 -42 14 -39 -47 2 -36 -1 -51 -9 -52 -7 0 -30
-2 -50 -4 -30 -2 -38 1 -39 14 0 15 -1 15 -7 0 -10 -24 -52 -6 -52 21 0 12 -4
18 -10 15 -6 -4 -9 -14 -8 -23 7 -41 -131 3 -189 60 -33 32 -45 56 -20 42 8
-5 8 -2 -2 9 -16 20 -25 23 -15 5 5 -9 4 -10 -4 -3 -30 29 -64 214 -43 239 7
8 8 17 3 20 -13 8 -15 253 -2 261 6 3 7 12 3 18 -5 7 -8 35 -9 63 l-1 51 55 2
c42 2 52 -1 46 -11z m981 3 c-3 -5 -1 -11 4 -13 5 -1 13 -16 17 -32 5 -20 3
-27 -4 -22 -6 3 -13 2 -17 -4 -3 -5 3 -10 14 -10 19 0 27 -16 22 -44 -1 -4 3
-13 8 -20 5 -6 14 -31 21 -55 9 -35 9 -46 -2 -53 -10 -7 -9 -8 5 -4 12 4 17 0
18 -17 1 -12 1 -26 0 -31 -1 -5 2 -12 7 -15 4 -3 16 -36 26 -73 17 -62 36 -83
36 -38 0 10 6 25 14 33 8 8 12 23 10 34 -3 11 0 26 8 34 7 8 14 25 14 39 2 30
5 42 40 168 15 53 34 101 41 105 7 5 11 12 8 18 -4 5 19 9 54 9 38 0 61 -5 65
-12 5 -10 7 -10 12 0 4 8 31 12 85 12 l78 0 0 -140 c0 -84 -4 -138 -10 -135
-5 4 -9 2 -9 -4 0 -5 5 -13 10 -16 13 -8 12 -335 -1 -335 -5 0 -9 -7 -9 -16 0
-8 5 -12 10 -9 16 10 12 -94 -4 -111 -19 -19 -56 -18 -56 1 0 8 -4 15 -10 15
-5 0 -10 -7 -10 -16 0 -13 -11 -15 -67 -11 l-68 4 -3 58 c-2 32 2 63 7 68 7 7
7 15 1 22 -6 7 -7 67 -3 152 5 113 9 140 20 136 7 -3 13 0 13 6 0 6 -4 11 -10
11 -5 0 -10 6 -10 14 0 8 -4 17 -8 20 -5 3 -9 -9 -9 -26 0 -17 -7 -36 -16 -43
-9 -6 -14 -20 -11 -31 2 -10 -9 -66 -26 -124 -17 -58 -37 -130 -45 -160 -29
-115 -23 -110 -119 -110 -90 0 -89 -1 -101 57 -2 10 -8 30 -14 45 -7 20 -7 28
2 31 8 3 7 9 -5 18 -12 11 -59 153 -72 224 -1 6 -8 27 -15 47 -7 21 -10 47 -6
58 3 11 2 20 -3 20 -6 0 -8 -97 -6 -248 l4 -247 -77 -3 c-43 -2 -94 0 -114 3
l-36 6 -2 56 c-1 37 3 59 11 65 10 6 10 10 1 16 -14 9 -17 342 -2 342 5 0 9 5
9 11 0 5 -4 8 -9 4 -6 -3 -10 35 -10 95 0 55 5 102 10 105 5 4 9 11 9 16 0 6
-4 7 -10 4 -6 -4 -10 6 -10 23 l0 30 155 1 c88 0 153 -4 150 -8z m865 -545 c0
-19 0 -19 -22 0 l-23 19 23 -26 c12 -14 22 -33 22 -43 0 -16 -2 -17 -17 -5
-17 13 -17 13 0 -7 17 -20 23 -44 11 -44 -3 0 -20 9 -37 21 l-32 21 30 -26
c17 -14 33 -26 38 -26 4 0 7 -24 7 -54 l0 -55 -30 9 c-21 6 -28 5 -24 -2 8
-12 -74 -6 -110 8 -14 5 -17 4 -12 -4 5 -8 -5 -12 -33 -12 l-41 0 0 70 c0 49
4 70 13 71 10 0 10 2 0 6 -9 3 -13 26 -13 64 0 45 3 58 13 53 10 -6 10 -4 0 7
-7 7 -13 26 -13 42 0 27 2 28 18 16 16 -13 16 -13 0 7 -21 24 -25 79 -5 68 10
-6 10 -4 0 7 -7 7 -13 29 -13 48 l0 36 125 -125 c73 -73 125 -133 125 -144z
m-1400 94 c0 -5 -5 -10 -11 -10 -5 0 -7 5 -4 10 3 6 8 10 11 10 2 0 4 -4 4
-10z m-1060 -153 c0 -2 -17 -19 -37 -38 l-38 -34 34 38 c33 34 41 42 41 34z
m1340 -292 c0 -24 -2 -25 -75 -25 l-75 0 0 -35 0 -35 65 0 65 0 0 -30 0 -30
-65 0 -64 0 -3 -62 c-3 -63 -3 -63 -33 -63 l-30 0 -3 153 -3 152 111 0 110 0
0 -25z m710 0 c0 -20 -5 -25 -25 -25 -20 0 -25 5 -25 25 0 20 5 25 25 25 20 0
25 -5 25 -25z m600 -130 l0 -155 -25 0 -25 0 0 155 0 155 25 0 25 0 0 -155z
m-740 105 c0 -23 4 -30 20 -30 13 0 20 -7 20 -19 0 -10 -9 -21 -20 -24 -17 -4
-20 -14 -20 -67 0 -53 3 -63 20 -67 13 -3 20 -14 20 -29 0 -19 -5 -24 -26 -24
-56 0 -64 13 -64 105 0 69 -3 85 -15 85 -8 0 -15 9 -15 20 0 11 7 20 15 20 10
0 15 10 15 30 0 25 4 30 25 30 21 0 25 -5 25 -30z m-401 -31 c36 -13 61 -53
61 -99 l0 -30 -80 0 c-44 0 -80 -3 -80 -6 0 -3 5 -14 10 -25 12 -21 74 -27 85
-9 8 13 65 13 65 1 0 -5 -14 -21 -31 -35 -69 -59 -174 -18 -186 71 -7 55 12
100 51 124 36 22 60 24 105 8z m261 -14 c29 -26 26 -55 -5 -55 -13 0 -28 7
-33 16 -6 10 -19 14 -37 12 -48 -5 -40 -25 19 -42 30 -9 62 -23 70 -32 23 -23
19 -61 -9 -89 -48 -48 -175 -22 -175 36 0 23 47 27 56 5 6 -17 46 -28 68 -20
32 12 15 33 -38 48 -30 9 -62 23 -70 32 -29 29 -16 75 29 102 27 17 101 9 125
-13z m753 -6 c13 -16 17 -40 17 -99 0 -43 3 -85 6 -94 5 -12 -1 -16 -24 -16
-18 0 -32 6 -36 16 -5 14 -8 14 -28 0 -49 -35 -118 -5 -118 49 0 37 42 75 82
75 42 0 63 13 55 34 -8 20 -56 21 -63 1 -7 -16 -64 -21 -64 -6 0 64 127 93
173 40z m-473 -94 l0 -115 -25 0 -25 0 0 115 0 115 25 0 25 0 0 -115z m125 58
c32 -116 29 -114 54 -25 24 81 24 82 56 82 l33 0 -42 -112 c-40 -109 -42 -113
-71 -113 -29 0 -31 4 -67 100 -20 55 -37 106 -38 113 0 7 12 12 30 12 27 0 31
-4 45 -57z"/>
<path d="M1335 1231 c22 -10 46 -16 54 -13 8 3 -8 11 -35 18 -64 17 -67 16
-19 -5z"/>
<path d="M945 1210 c-10 -11 -15 -23 -12 -27 4 -3 7 -1 7 7 0 10 4 10 18 -1
15 -12 16 -12 5 2 -10 12 -10 18 -1 27 7 7 10 12 7 12 -3 0 -14 -9 -24 -20z"/>
<path d="M1435 1220 c-19 -8 -19 -9 3 -9 12 -1 22 4 22 9 0 6 -1 10 -2 9 -2 0
-12 -4 -23 -9z"/>
<path d="M1318 1193 c12 -2 30 -2 40 0 9 3 -1 5 -23 4 -22 0 -30 -2 -17 -4z"/>
<path d="M890 1175 c-14 -8 -20 -14 -14 -15 5 0 19 7 30 15 24 18 16 19 -16 0z"/>
<path d="M790 1136 c0 -2 7 -7 16 -10 8 -3 12 -2 9 4 -6 10 -25 14 -25 6z"/>
<path d="M919 1128 c17 -22 5 -44 -15 -27 -8 6 -14 10 -15 8 -1 -2 -2 -17 -3
-32 l-3 -29 31 31 c30 30 30 31 11 48 -17 16 -17 16 -6 1z m-14 -37 c3 -5 2
-12 -3 -15 -5 -3 -9 1 -9 9 0 17 3 19 12 6z"/>
<path d="M829 1023 l-24 -28 28 24 c25 23 32 31 24 31 -2 0 -14 -12 -28 -27z"/>
<path d="M854 1018 l-19 -23 23 19 c21 18 27 26 19 26 -2 0 -12 -10 -23 -22z"/>
<path d="M921 1027 c-8 -11 -6 -18 9 -32 11 -10 17 -22 13 -28 -4 -6 -1 -7 6
-3 9 6 9 12 -2 24 -8 10 -13 25 -12 35 4 21 1 21 -14 4z"/>
<path d="M1340 1025 c0 -7 61 -37 66 -33 2 3 -12 12 -31 21 -19 9 -35 15 -35
12z"/>
<path d="M884 998 c-4 -7 -4 -10 1 -6 4 4 15 2 24 -5 14 -11 14 -10 2 6 -16
20 -18 21 -27 5z"/>
<path d="M1310 989 c0 -5 5 -7 10 -4 6 3 10 8 10 11 0 2 -4 4 -10 4 -5 0 -10
-5 -10 -11z"/>
<path d="M1440 990 c-13 -8 -13 -10 2 -10 9 0 20 5 23 10 8 13 -5 13 -25 0z"/>
<path d="M825 981 c-3 -5 -2 -12 3 -15 5 -3 9 1 9 9 0 17 -3 19 -12 6z"/>
<path d="M1275 979 c-4 -6 -5 -12 -2 -15 2 -3 7 2 10 11 7 17 1 20 -8 4z"/>
<path d="M1339 973 c-13 -15 -12 -15 9 -4 23 12 28 21 13 21 -5 0 -15 -7 -22
-17z"/>
<path d="M1380 970 c-8 -5 -10 -10 -5 -10 6 0 17 5 25 10 8 5 11 10 5 10 -5 0
-17 -5 -25 -10z"/>
<path d="M774 938 c-10 -13 -12 -17 -4 -10 18 15 34 16 24 0 -4 -7 -3 -8 5 -4
6 4 9 11 6 16 -3 4 1 11 7 13 9 4 7 6 -3 6 -9 1 -24 -9 -35 -21z"/>
<path d="M1260 946 c0 -2 7 -7 16 -10 8 -3 12 -2 9 4 -6 10 -25 14 -25 6z"/>
<path d="M859 903 c-13 -16 -12 -17 4 -4 9 7 17 15 17 17 0 8 -8 3 -21 -13z"/>
<path d="M1330 883 c13 -18 25 -33 27 -33 8 0 -17 38 -33 51 -11 9 -9 2 6 -18z"/>
<path d="M929 873 c-13 -16 -12 -17 4 -4 16 13 21 21 13 21 -2 0 -10 -8 -17
-17z"/>
<path d="M1390 876 c0 -2 8 -10 18 -17 15 -13 16 -12 3 4 -13 16 -21 21 -21
13z"/>
<path d="M954 852 c4 -7 3 -12 -3 -12 -6 0 -15 -9 -21 -20 -10 -19 -10 -20 9
-8 25 16 34 35 19 44 -7 4 -8 3 -4 -4z"/>
<path d="M1360 836 c0 -2 8 -10 18 -17 15 -13 16 -12 3 4 -13 16 -21 21 -21
13z"/>
<path d="M1240 815 c-6 -8 -10 -19 -8 -24 1 -6 8 1 15 14 13 28 11 31 -7 10z"/>
<path d="M1260 806 c0 -2 8 -10 18 -17 15 -13 16 -12 3 4 -13 16 -21 21 -21
13z"/>
<path d="M897 767 c-8 -13 -12 -29 -8 -35 3 -6 11 4 17 24 13 40 11 42 -9 11z"/>
<path d="M1255 746 c10 -14 19 -26 22 -26 7 0 -17 39 -28 46 -6 3 -3 -5 6 -20z"/>
<path d="M882 680 c0 -19 2 -27 5 -17 2 9 2 25 0 35 -3 9 -5 1 -5 -18z"/>
<path d="M1011 694 c0 -11 3 -14 6 -6 3 7 2 16 -1 19 -3 4 -6 -2 -5 -13z"/>
<path d="M1220 706 c0 -2 8 -10 18 -17 15 -13 16 -12 3 4 -13 16 -21 21 -21
13z"/>
<path d="M1321 694 c0 -11 3 -14 6 -6 3 7 2 16 -1 19 -3 4 -6 -2 -5 -13z"/>
<path d="M1200 693 c0 -5 10 -18 23 -29 l22 -19 -20 25 c-11 14 -21 27 -22 29
-2 2 -3 0 -3 -6z"/>
<path d="M861 674 c0 -11 3 -14 6 -6 3 7 2 16 -1 19 -3 4 -6 -2 -5 -13z"/>
<path d="M1114 645 c-9 -14 -15 -27 -13 -30 3 -2 12 10 21 26 21 36 15 39 -8
4z"/>
<path d="M900 636 c0 -2 8 -10 18 -17 15 -13 16 -12 3 4 -13 16 -21 21 -21 13z"/>
<path d="M1311 604 c0 -11 3 -14 6 -6 3 7 2 16 -1 19 -3 4 -6 -2 -5 -13z"/>
<path d="M1001 594 c0 -11 3 -14 6 -6 3 7 2 16 -1 19 -3 4 -6 -2 -5 -13z"/>
<path d="M1660 1299 c0 -5 5 -7 10 -4 6 3 10 8 10 11 0 2 -4 4 -10 4 -5 0 -10
-5 -10 -11z"/>
<path d="M2340 1300 c0 -5 5 -10 10 -10 6 0 10 5 10 10 0 6 -4 10 -10 10 -5 0
-10 -4 -10 -10z"/>
<path d="M1540 1290 c0 -5 5 -10 10 -10 6 0 10 5 10 10 0 6 -4 10 -10 10 -5 0
-10 -4 -10 -10z"/>
<path d="M1770 1290 c0 -5 5 -10 10 -10 6 0 10 5 10 10 0 6 -4 10 -10 10 -5 0
-10 -4 -10 -10z"/>
<path d="M2130 1290 c0 -5 5 -10 10 -10 6 0 10 5 10 10 0 6 -4 10 -10 10 -5 0
-10 -4 -10 -10z"/>
<path d="M2260 1290 c0 -5 5 -10 10 -10 6 0 10 5 10 10 0 6 -4 10 -10 10 -5 0
-10 -4 -10 -10z"/>
<path d="M1620 1269 c0 -5 5 -7 10 -4 6 3 10 8 10 11 0 2 -4 4 -10 4 -5 0 -10
-5 -10 -11z"/>
<path d="M1730 1270 c0 -5 5 -10 10 -10 6 0 10 5 10 10 0 6 -4 10 -10 10 -5 0
-10 -4 -10 -10z"/>
<path d="M2170 1270 c0 -5 5 -10 10 -10 6 0 10 5 10 10 0 6 -4 10 -10 10 -5 0
-10 -4 -10 -10z"/>
<path d="M2370 1270 c0 -5 5 -10 10 -10 6 0 10 5 10 10 0 6 -4 10 -10 10 -5 0
-10 -4 -10 -10z"/>
<path d="M2290 1260 c0 -5 7 -10 16 -10 8 0 12 5 9 10 -3 6 -10 10 -16 10 -5
0 -9 -4 -9 -10z"/>
<path d="M1586 1251 c-4 -5 -2 -12 3 -15 5 -4 12 -2 15 3 4 5 2 12 -3 15 -5 4
-12 2 -15 -3z"/>
<path d="M1690 1250 c0 -5 5 -10 10 -10 6 0 10 5 10 10 0 6 -4 10 -10 10 -5 0
-10 -4 -10 -10z"/>
<path d="M2210 1250 c0 -5 5 -10 11 -10 5 0 7 5 4 10 -3 6 -8 10 -11 10 -2 0
-4 -4 -4 -10z"/>
<path d="M2080 1240 c0 -5 5 -10 10 -10 6 0 10 5 10 10 0 6 -4 10 -10 10 -5 0
-10 -4 -10 -10z"/>
<path d="M2330 1230 c0 -5 5 -10 11 -10 5 0 7 5 4 10 -3 6 -8 10 -11 10 -2 0
-4 -4 -4 -10z"/>
<path d="M1650 1220 c0 -5 5 -10 10 -10 6 0 10 5 10 10 0 6 -4 10 -10 10 -5 0
-10 -4 -10 -10z"/>
<path d="M1770 1220 c0 -5 5 -10 10 -10 6 0 10 5 10 10 0 6 -4 10 -10 10 -5 0
-10 -4 -10 -10z"/>
<path d="M2120 1220 c0 -5 5 -10 10 -10 6 0 10 5 10 10 0 6 -4 10 -10 10 -5 0
-10 -4 -10 -10z"/>
<path d="M2245 1220 c-3 -5 1 -10 10 -10 9 0 13 5 10 10 -3 6 -8 10 -10 10 -2
0 -7 -4 -10 -10z"/>
<path d="M1550 1210 c0 -5 5 -10 10 -10 6 0 10 5 10 10 0 6 -4 10 -10 10 -5 0
-10 -4 -10 -10z"/>
<path d="M1730 1200 c0 -5 5 -10 10 -10 6 0 10 5 10 10 0 6 -4 10 -10 10 -5 0
-10 -4 -10 -10z"/>
<path d="M2160 1200 c0 -5 5 -10 10 -10 6 0 10 5 10 10 0 6 -4 10 -10 10 -5 0
-10 -4 -10 -10z"/>
<path d="M1620 1190 c0 -5 5 -10 10 -10 6 0 10 5 10 10 0 6 -4 10 -10 10 -5 0
-10 -4 -10 -10z"/>
<path d="M2280 1190 c0 -5 5 -10 10 -10 6 0 10 5 10 10 0 6 -4 10 -10 10 -5 0
-10 -4 -10 -10z"/>
<path d="M2360 1190 c0 -5 5 -10 10 -10 6 0 10 5 10 10 0 6 -4 10 -10 10 -5 0
-10 -4 -10 -10z"/>
<path d="M1525 1180 c-3 -5 -1 -10 4 -10 6 0 11 5 11 10 0 6 -2 10 -4 10 -3 0
-8 -4 -11 -10z"/>
<path d="M1700 1169 c0 -5 5 -7 10 -4 6 3 10 8 10 11 0 2 -4 4 -10 4 -5 0 -10
-5 -10 -11z"/>
<path d="M2070 1170 c0 -5 5 -10 10 -10 6 0 10 5 10 10 0 6 -4 10 -10 10 -5 0
-10 -4 -10 -10z"/>
<path d="M2200 1170 c0 -5 5 -10 10 -10 6 0 10 5 10 10 0 6 -4 10 -10 10 -5 0
-10 -4 -10 -10z"/>
<path d="M1586 1161 c-4 -5 -2 -12 3 -15 5 -4 12 -2 15 3 4 5 2 12 -3 15 -5 4
-12 2 -15 -3z"/>
<path d="M1805 1160 c4 -6 11 -8 16 -5 14 9 11 15 -7 15 -8 0 -12 -5 -9 -10z"/>
<path d="M2110 1150 c0 -5 5 -10 10 -10 6 0 10 5 10 10 0 6 -4 10 -10 10 -5 0
-10 -4 -10 -10z"/>
<path d="M2310 1150 c0 -5 5 -10 10 -10 6 0 10 5 10 10 0 6 -4 10 -10 10 -5 0
-10 -4 -10 -10z"/>
<path d="M1660 1140 c0 -5 5 -10 10 -10 6 0 10 5 10 10 0 6 -4 10 -10 10 -5 0
-10 -4 -10 -10z"/>
<path d="M1770 1139 c0 -5 5 -7 10 -4 6 3 10 8 10 11 0 2 -4 4 -10 4 -5 0 -10
-5 -10 -11z"/>
<path d="M2235 1140 c3 -5 8 -10 11 -10 2 0 4 5 4 10 0 6 -5 10 -11 10 -5 0
-7 -4 -4 -10z"/>
<path d="M2150 1130 c0 -5 5 -10 10 -10 6 0 10 5 10 10 0 6 -4 10 -10 10 -5 0
-10 -4 -10 -10z"/>
<path d="M1560 1120 c0 -5 5 -10 10 -10 6 0 10 5 10 10 0 6 -4 10 -10 10 -5 0
-10 -4 -10 -10z"/>
<path d="M1730 1120 c0 -5 5 -10 10 -10 6 0 10 5 10 10 0 6 -4 10 -10 10 -5 0
-10 -4 -10 -10z"/>
<path d="M2340 1114 c0 -8 5 -12 10 -9 6 4 8 11 5 16 -9 14 -15 11 -15 -7z"/>
<path d="M1630 1110 c0 -5 5 -10 10 -10 6 0 10 5 10 10 0 6 -4 10 -10 10 -5 0
-10 -4 -10 -10z"/>
<path d="M1840 1110 c0 -5 5 -10 10 -10 6 0 10 5 10 10 0 6 -4 10 -10 10 -5 0
-10 -4 -10 -10z"/>
<path d="M2060 1110 c0 -5 5 -10 10 -10 6 0 10 5 10 10 0 6 -4 10 -10 10 -5 0
-10 -4 -10 -10z"/>
<path d="M2260 1110 c0 -5 7 -10 16 -10 8 0 12 5 9 10 -3 6 -10 10 -16 10 -5
0 -9 -4 -9 -10z"/>
<path d="M2180 1100 c0 -5 5 -10 10 -10 6 0 10 5 10 10 0 6 -4 10 -10 10 -5 0
-10 -4 -10 -10z"/>
<path d="M1700 1084 c0 -8 5 -12 10 -9 6 4 8 11 5 16 -9 14 -15 11 -15 -7z"/>
<path d="M1800 1090 c0 -5 5 -10 10 -10 6 0 10 5 10 10 0 6 -4 10 -10 10 -5 0
-10 -4 -10 -10z"/>
<path d="M2100 1090 c0 -5 5 -10 10 -10 6 0 10 5 10 10 0 6 -4 10 -10 10 -5 0
-10 -4 -10 -10z"/>
<path d="M1535 1080 c-3 -5 -1 -10 4 -10 6 0 11 5 11 10 0 6 -2 10 -4 10 -3 0
-8 -4 -11 -10z"/>
<path d="M2360 1080 c0 -5 5 -10 10 -10 6 0 10 5 10 10 0 6 -4 10 -10 10 -5 0
-10 -4 -10 -10z"/>
<path d="M1610 1069 c0 -5 5 -7 10 -4 6 3 10 8 10 11 0 2 -4 4 -10 4 -5 0 -10
-5 -10 -11z"/>
<path d="M2216 1071 c-4 -5 -2 -12 3 -15 5 -4 12 -2 15 3 4 5 2 12 -3 15 -5 4
-12 2 -15 -3z"/>
<path d="M2290 1070 c0 -5 5 -10 10 -10 6 0 10 5 10 10 0 6 -4 10 -10 10 -5 0
-10 -4 -10 -10z"/>
<path d="M1760 1060 c0 -5 5 -10 10 -10 6 0 10 5 10 10 0 6 -4 10 -10 10 -5 0
-10 -4 -10 -10z"/>
<path d="M2140 1060 c0 -5 5 -10 11 -10 5 0 7 5 4 10 -3 6 -8 10 -11 10 -2 0
-4 -4 -4 -10z"/>
<path d="M1670 1050 c0 -5 5 -10 10 -10 6 0 10 5 10 10 0 6 -4 10 -10 10 -5 0
-10 -4 -10 -10z"/>
<path d="M2050 1040 c0 -5 5 -10 10 -10 6 0 10 5 10 10 0 6 -4 10 -10 10 -5 0
-10 -4 -10 -10z"/>
<path d="M1585 1030 c4 -6 11 -8 16 -5 14 9 11 15 -7 15 -8 0 -12 -5 -9 -10z"/>
<path d="M1830 1029 c0 -5 5 -7 10 -4 6 3 10 8 10 11 0 2 -4 4 -10 4 -5 0 -10
-5 -10 -11z"/>
<path d="M2240 1030 c0 -5 5 -10 10 -10 6 0 10 5 10 10 0 6 -4 10 -10 10 -5 0
-10 -4 -10 -10z"/>
<path d="M2310 1030 c0 -5 5 -10 10 -10 6 0 10 5 10 10 0 6 -4 10 -10 10 -5 0
-10 -4 -10 -10z"/>
<path d="M2090 1020 c0 -5 5 -10 11 -10 5 0 7 5 4 10 -3 6 -8 10 -11 10 -2 0
-4 -4 -4 -10z"/>
<path d="M1650 1009 c0 -5 5 -7 10 -4 6 3 10 8 10 11 0 2 -4 4 -10 4 -5 0 -10
-5 -10 -11z"/>
<path d="M1795 1000 c3 -5 8 -10 11 -10 2 0 4 5 4 10 0 6 -5 10 -11 10 -5 0
-7 -4 -4 -10z"/>
<path d="M1570 989 c0 -5 5 -7 10 -4 6 3 10 8 10 11 0 2 -4 4 -10 4 -5 0 -10
-5 -10 -11z"/>
<path d="M1700 990 c0 -5 5 -10 10 -10 6 0 10 5 10 10 0 6 -4 10 -10 10 -5 0
-10 -4 -10 -10z"/>
<path d="M2120 984 c0 -8 5 -12 10 -9 6 4 8 11 5 16 -9 14 -15 11 -15 -7z"/>
<path d="M2260 990 c0 -5 5 -10 10 -10 6 0 10 5 10 10 0 6 -4 10 -10 10 -5 0
-10 -4 -10 -10z"/>
<path d="M2330 990 c0 -5 5 -10 10 -10 6 0 10 5 10 10 0 6 -4 10 -10 10 -5 0
-10 -4 -10 -10z"/>
<path d="M1860 980 c0 -5 5 -10 10 -10 6 0 10 5 10 10 0 6 -4 10 -10 10 -5 0
-10 -4 -10 -10z"/>
<path d="M2040 980 c0 -5 5 -10 11 -10 5 0 7 5 4 10 -3 6 -8 10 -11 10 -2 0
-4 -4 -4 -10z"/>
<path d="M1630 970 c0 -5 5 -10 10 -10 6 0 10 5 10 10 0 6 -4 10 -10 10 -5 0
-10 -4 -10 -10z"/>
<path d="M1765 970 c-3 -5 1 -10 10 -10 9 0 13 5 10 10 -3 6 -8 10 -10 10 -2
0 -7 -4 -10 -10z"/>
<path d="M1550 950 c0 -5 5 -10 10 -10 6 0 10 5 10 10 0 6 -4 10 -10 10 -5 0
-10 -4 -10 -10z"/>
<path d="M1685 950 c-3 -5 1 -10 9 -10 9 0 16 5 16 10 0 6 -4 10 -9 10 -6 0
-13 -4 -16 -10z"/>
<path d="M1830 944 c0 -8 5 -12 10 -9 6 4 8 11 5 16 -9 14 -15 11 -15 -7z"/>
<path d="M2210 951 c0 -5 5 -13 10 -16 6 -3 10 -2 10 4 0 5 -4 13 -10 16 -5 3
-10 2 -10 -4z"/>
<path d="M2276 951 c-4 -5 -2 -12 3 -15 5 -4 12 -2 15 3 4 5 2 12 -3 15 -5 4
-12 2 -15 -3z"/>
<path d="M2345 951 c-3 -5 -1 -12 5 -16 5 -3 10 1 10 9 0 18 -6 21 -15 7z"/>
<path d="M2070 940 c0 -5 5 -10 10 -10 6 0 10 5 10 10 0 6 -4 10 -10 10 -5 0
-10 -4 -10 -10z"/>
<path d="M1616 931 c-4 -5 -2 -12 3 -15 5 -4 12 -2 15 3 4 5 2 12 -3 15 -5 4
-12 2 -15 -3z"/>
<path d="M1890 920 c0 -5 5 -10 10 -10 6 0 10 5 10 10 0 6 -4 10 -10 10 -5 0
-10 -4 -10 -10z"/>
<path d="M1806 911 c-4 -5 -2 -12 3 -15 5 -4 12 -2 15 3 4 5 2 12 -3 15 -5 4
-12 2 -15 -3z"/>
<path d="M1550 899 c0 -5 5 -7 10 -4 6 3 10 8 10 11 0 2 -4 4 -10 4 -5 0 -10
-5 -10 -11z"/>
<path d="M1675 900 c4 -6 11 -8 16 -5 14 9 11 15 -7 15 -8 0 -12 -5 -9 -10z"/>
<path d="M2020 900 c0 -5 5 -10 10 -10 6 0 10 5 10 10 0 6 -4 10 -10 10 -5 0
-10 -4 -10 -10z"/>
<path d="M2090 900 c0 -5 5 -10 10 -10 6 0 10 5 10 10 0 6 -4 10 -10 10 -5 0
-10 -4 -10 -10z"/>
<path d="M2220 900 c0 -5 5 -10 10 -10 6 0 10 5 10 10 0 6 -4 10 -10 10 -5 0
-10 -4 -10 -10z"/>
<path d="M2280 900 c0 -5 5 -10 10 -10 6 0 10 5 10 10 0 6 -4 10 -10 10 -5 0
-10 -4 -10 -10z"/>
<path d="M2350 900 c0 -5 5 -10 10 -10 6 0 10 5 10 10 0 6 -4 10 -10 10 -5 0
-10 -4 -10 -10z"/>
<path d="M1610 880 c0 -5 5 -10 10 -10 6 0 10 5 10 10 0 6 -4 10 -10 10 -5 0
-10 -4 -10 -10z"/>
<path d="M1870 880 c0 -5 5 -10 10 -10 6 0 10 5 10 10 0 6 -4 10 -10 10 -5 0
-10 -4 -10 -10z"/>
<path d="M1540 860 c0 -5 5 -10 10 -10 6 0 10 5 10 10 0 6 -4 10 -10 10 -5 0
-10 -4 -10 -10z"/>
<path d="M1670 860 c0 -5 5 -10 10 -10 6 0 10 5 10 10 0 6 -4 10 -10 10 -5 0
-10 -4 -10 -10z"/>
<path d="M1800 860 c0 -5 5 -10 10 -10 6 0 10 5 10 10 0 6 -4 10 -10 10 -5 0
-10 -4 -10 -10z"/>
<path d="M2030 856 c0 -9 5 -16 10 -16 6 0 10 4 10 9 0 6 -4 13 -10 16 -5 3
-10 -1 -10 -9z"/>
<path d="M2096 861 c-4 -5 -2 -12 3 -15 5 -4 12 -2 15 3 4 5 2 12 -3 15 -5 4
-12 2 -15 -3z"/>
<path d="M2226 861 c-4 -5 -2 -12 3 -15 5 -4 12 -2 15 3 4 5 2 12 -3 15 -5 4
-12 2 -15 -3z"/>
<path d="M2286 861 c-4 -5 -2 -12 3 -15 5 -4 12 -2 15 3 4 5 2 12 -3 15 -5 4
-12 2 -15 -3z"/>
<path d="M2350 855 c0 -8 5 -15 10 -15 6 0 10 7 10 15 0 8 -4 15 -10 15 -5 0
-10 -7 -10 -15z"/>
<path d="M1610 834 c0 -8 5 -12 10 -9 6 3 10 10 10 16 0 5 -4 9 -10 9 -5 0
-10 -7 -10 -16z"/>
<path d="M1870 834 c0 -8 5 -12 10 -9 6 4 8 11 5 16 -9 14 -15 11 -15 -7z"/>
<path d="M1545 810 c4 -6 11 -8 16 -5 14 9 11 15 -7 15 -8 0 -12 -5 -9 -10z"/>
<path d="M1675 810 c3 -5 8 -10 11 -10 2 0 4 5 4 10 0 6 -5 10 -11 10 -5 0 -7
-4 -4 -10z"/>
<path d="M1805 810 c3 -5 8 -10 11 -10 2 0 4 5 4 10 0 6 -5 10 -11 10 -5 0 -7
-4 -4 -10z"/>
<path d="M2020 809 c0 -5 5 -7 10 -4 6 3 10 8 10 11 0 2 -4 4 -10 4 -5 0 -10
-5 -10 -11z"/>
<path d="M2090 810 c0 -5 5 -10 10 -10 6 0 10 5 10 10 0 6 -4 10 -10 10 -5 0
-10 -4 -10 -10z"/>
<path d="M2220 810 c0 -5 5 -10 10 -10 6 0 10 5 10 10 0 6 -4 10 -10 10 -5 0
-10 -4 -10 -10z"/>
<path d="M2280 810 c0 -5 5 -10 10 -10 6 0 10 5 10 10 0 6 -4 10 -10 10 -5 0
-10 -4 -10 -10z"/>
<path d="M2350 810 c0 -5 5 -10 10 -10 6 0 10 5 10 10 0 6 -4 10 -10 10 -5 0
-10 -4 -10 -10z"/>
<path d="M1890 801 c0 -6 5 -13 10 -16 6 -3 10 1 10 9 0 9 -4 16 -10 16 -5 0
-10 -4 -10 -9z"/>
<path d="M1615 790 c3 -5 8 -10 11 -10 2 0 4 5 4 10 0 6 -5 10 -11 10 -5 0 -7
-4 -4 -10z"/>
<path d="M1980 780 c0 -5 5 -10 10 -10 6 0 10 5 10 10 0 6 -4 10 -10 10 -5 0
-10 -4 -10 -10z"/>
<path d="M1550 770 c0 -5 5 -10 10 -10 6 0 10 5 10 10 0 6 -4 10 -10 10 -5 0
-10 -4 -10 -10z"/>
<path d="M1680 770 c0 -5 7 -10 16 -10 8 0 12 5 9 10 -3 6 -10 10 -16 10 -5 0
-9 -4 -9 -10z"/>
<path d="M1825 770 c3 -5 11 -10 16 -10 6 0 7 5 4 10 -3 6 -11 10 -16 10 -6 0
-7 -4 -4 -10z"/>
<path d="M1935 770 c4 -6 11 -8 16 -5 14 9 11 15 -7 15 -8 0 -12 -5 -9 -10z"/>
<path d="M2070 764 c0 -8 5 -12 10 -9 6 3 10 10 10 16 0 5 -4 9 -10 9 -5 0
-10 -7 -10 -16z"/>
<path d="M2275 771 c-3 -5 -1 -12 5 -16 5 -3 10 1 10 9 0 18 -6 21 -15 7z"/>
<path d="M2346 771 c-4 -7 -5 -15 -2 -18 9 -9 19 4 14 18 -4 11 -6 11 -12 0z"/>
<path d="M2210 759 c0 -5 5 -7 10 -4 6 3 10 8 10 11 0 2 -4 4 -10 4 -5 0 -10
-5 -10 -11z"/>
<path d="M1630 750 c0 -5 5 -10 11 -10 5 0 7 5 4 10 -3 6 -8 10 -11 10 -2 0
-4 -4 -4 -10z"/>
<path d="M1860 740 c0 -5 5 -10 11 -10 5 0 7 5 4 10 -3 6 -8 10 -11 10 -2 0
-4 -4 -4 -10z"/>
<path d="M1566 731 c-4 -5 -2 -12 3 -15 5 -4 12 -2 15 3 4 5 2 12 -3 15 -5 4
-12 2 -15 -3z"/>
<path d="M1700 731 c0 -6 5 -13 10 -16 6 -3 10 1 10 9 0 9 -4 16 -10 16 -5 0
-10 -4 -10 -9z"/>
<path d="M2035 730 c4 -6 11 -8 16 -5 14 9 11 15 -7 15 -8 0 -12 -5 -9 -10z"/>
<path d="M2190 720 c0 -5 5 -10 10 -10 6 0 10 5 10 10 0 6 -4 10 -10 10 -5 0
-10 -4 -10 -10z"/>
<path d="M2260 720 c0 -5 5 -10 10 -10 6 0 10 5 10 10 0 6 -4 10 -10 10 -5 0
-10 -4 -10 -10z"/>
<path d="M2330 720 c0 -5 5 -10 10 -10 6 0 10 5 10 10 0 6 -4 10 -10 10 -5 0
-10 -4 -10 -10z"/>
<path d="M1645 711 c-3 -5 -1 -12 5 -16 5 -3 10 1 10 9 0 18 -6 21 -15 7z"/>
<path d="M1945 710 c-3 -5 1 -10 10 -10 9 0 13 5 10 10 -3 6 -8 10 -10 10 -2
0 -7 -4 -10 -10z"/>
<path d="M1990 710 c0 -5 5 -10 10 -10 6 0 10 5 10 10 0 6 -4 10 -10 10 -5 0
-10 -4 -10 -10z"/>
<path d="M1580 680 c0 -5 5 -10 10 -10 6 0 10 5 10 10 0 6 -4 10 -10 10 -5 0
-10 -4 -10 -10z"/>
<path d="M2240 680 c0 -5 5 -10 10 -10 6 0 10 5 10 10 0 6 -4 10 -10 10 -5 0
-10 -4 -10 -10z"/>
<path d="M2310 680 c0 -5 5 -10 10 -10 6 0 10 5 10 10 0 6 -4 10 -10 10 -5 0
-10 -4 -10 -10z"/>
<path d="M1670 670 c0 -5 5 -10 11 -10 5 0 7 5 4 10 -3 6 -8 10 -11 10 -2 0
-4 -4 -4 -10z"/>
<path d="M2045 670 c-3 -5 1 -10 10 -10 9 0 13 5 10 10 -3 6 -8 10 -10 10 -2
0 -7 -4 -10 -10z"/>
<path d="M1870 660 c0 -5 5 -10 10 -10 6 0 10 5 10 10 0 6 -4 10 -10 10 -5 0
-10 -4 -10 -10z"/>
<path d="M1915 650 c-3 -5 -1 -10 4 -10 6 0 11 5 11 10 0 6 -2 10 -4 10 -3 0
-8 -4 -11 -10z"/>
<path d="M2000 650 c0 -5 5 -10 10 -10 6 0 10 5 10 10 0 6 -4 10 -10 10 -5 0
-10 -4 -10 -10z"/>
<path d="M2216 651 c-4 -7 -5 -15 -2 -18 9 -9 19 4 14 18 -4 11 -6 11 -12 0z"/>
<path d="M1530 641 c0 -6 5 -13 10 -16 6 -3 10 1 10 9 0 9 -4 16 -10 16 -5 0
-10 -4 -10 -9z"/>
<path d="M1605 640 c3 -5 8 -10 11 -10 2 0 4 5 4 10 0 6 -5 10 -11 10 -5 0 -7
-4 -4 -10z"/>
<path d="M1955 640 c4 -6 11 -8 16 -5 14 9 11 15 -7 15 -8 0 -12 -5 -9 -10z"/>
<path d="M2290 640 c0 -5 5 -10 10 -10 6 0 10 5 10 10 0 6 -4 10 -10 10 -5 0
-10 -4 -10 -10z"/>
<path d="M1695 630 c3 -5 8 -10 11 -10 2 0 4 5 4 10 0 6 -5 10 -11 10 -5 0 -7
-4 -4 -10z"/>
<path d="M2360 630 c0 -5 5 -10 10 -10 6 0 10 5 10 10 0 6 -4 10 -10 10 -5 0
-10 -4 -10 -10z"/>
<path d="M1630 610 c0 -5 5 -10 10 -10 6 0 10 5 10 10 0 6 -4 10 -10 10 -5 0
-10 -4 -10 -10z"/>
<path d="M2180 610 c0 -5 5 -10 10 -10 6 0 10 5 10 10 0 6 -4 10 -10 10 -5 0
-10 -4 -10 -10z"/>
<path d="M1560 600 c0 -5 5 -10 11 -10 5 0 7 5 4 10 -3 6 -8 10 -11 10 -2 0
-4 -4 -4 -10z"/>
<path d="M2260 600 c0 -5 5 -10 10 -10 6 0 10 5 10 10 0 6 -4 10 -10 10 -5 0
-10 -4 -10 -10z"/>
<path d="M2336 601 c-4 -5 -2 -12 3 -15 5 -4 12 -2 15 3 4 5 2 12 -3 15 -5 4
-12 2 -15 -3z"/>
<path d="M1880 590 c0 -5 5 -10 10 -10 6 0 10 5 10 10 0 6 -4 10 -10 10 -5 0
-10 -4 -10 -10z"/>
<path d="M2015 590 c-3 -5 -1 -10 4 -10 6 0 11 5 11 10 0 6 -2 10 -4 10 -3 0
-8 -4 -11 -10z"/>
<path d="M1920 580 c0 -5 5 -10 10 -10 6 0 10 5 10 10 0 6 -4 10 -10 10 -5 0
-10 -4 -10 -10z"/>
<path d="M1970 580 c0 -5 5 -10 10 -10 6 0 10 5 10 10 0 6 -4 10 -10 10 -5 0
-10 -4 -10 -10z"/>
<path d="M1660 570 c0 -5 5 -10 10 -10 6 0 10 5 10 10 0 6 -4 10 -10 10 -5 0
-10 -4 -10 -10z"/>
<path d="M2230 570 c0 -5 5 -10 10 -10 6 0 10 5 10 10 0 6 -4 10 -10 10 -5 0
-10 -4 -10 -10z"/>
<path d="M1585 560 c3 -5 8 -10 11 -10 2 0 4 5 4 10 0 6 -5 10 -11 10 -5 0 -7
-4 -4 -10z"/>
<path d="M2500 895 c19 -19 36 -35 39 -35 3 0 -10 16 -29 35 -19 19 -36 35
-39 35 -3 0 10 -16 29 -35z"/>
<path d="M2485 840 c10 -11 20 -20 23 -20 3 0 -3 9 -13 20 -10 11 -20 20 -23
20 -3 0 3 -9 13 -20z"/>
<path d="M2590 815 c19 -19 36 -35 39 -35 3 0 -10 16 -29 35 -19 19 -36 35
-39 35 -3 0 10 -16 29 -35z"/>
<path d="M2520 816 c0 -2 8 -10 18 -17 15 -13 16 -12 3 4 -13 16 -21 21 -21
13z"/>
<path d="M2575 770 c10 -11 20 -20 23 -20 3 0 -3 9 -13 20 -10 11 -20 20 -23
20 -3 0 3 -9 13 -20z"/>
<path d="M2610 746 c0 -2 8 -10 18 -17 15 -13 16 -12 3 4 -13 16 -21 21 -21
13z"/>
<path d="M2490 716 c0 -3 9 -10 20 -16 11 -6 20 -8 20 -6 0 3 -9 10 -20 16
-11 6 -20 8 -20 6z"/>
<path d="M2560 676 c0 -3 9 -10 20 -16 11 -6 20 -8 20 -6 0 3 -9 10 -20 16
-11 6 -20 8 -20 6z"/>
<path d="M1647 302 c-26 -28 -21 -32 33 -32 54 0 69 19 31 40 -28 15 -46 12
-64 -8z"/>
<path d="M2650 231 c-33 -9 -36 -54 -4 -59 26 -4 54 22 54 49 0 20 -8 22 -50
10z"/>
<path d="M130 1307 c0 -2 15 -16 32 -33 29 -25 30 -26 10 -3 -18 20 -20 28
-10 32 7 3 3 6 -9 6 -13 1 -23 0 -23 -2z"/>
<path d="M300 1285 c13 -14 26 -25 28 -25 3 0 -5 11 -18 25 -13 14 -26 25 -28
25 -3 0 5 -11 18 -25z"/>
<path d="M2653 1303 c15 -2 39 -2 55 0 15 2 2 4 -28 4 -30 0 -43 -2 -27 -4z"/>
<path d="M165 1240 c33 -33 62 -60 64 -60 3 0 -21 27 -54 60 -33 33 -62 60
-64 60 -3 0 21 -27 54 -60z"/>
<path d="M320 1235 c35 -36 67 -65 69 -65 3 0 -24 29 -59 65 -35 36 -67 65
-69 65 -3 0 24 -29 59 -65z"/>
<path d="M2473 1293 c9 -2 23 -2 30 0 6 3 -1 5 -18 5 -16 0 -22 -2 -12 -5z"/>
<path d="M2823 1293 c15 -2 39 -2 55 0 15 2 2 4 -28 4 -30 0 -43 -2 -27 -4z"/>
<path d="M240 1287 c0 -2 15 -16 33 -33 l32 -29 -29 33 c-28 30 -36 37 -36 29z"/>
<path d="M431 1274 c0 -11 3 -14 6 -6 3 7 2 16 -1 19 -3 4 -6 -2 -5 -13z"/>
<path d="M471 1274 c0 -11 3 -14 6 -6 3 7 2 16 -1 19 -3 4 -6 -2 -5 -13z"/>
<path d="M2553 1283 c9 -2 23 -2 30 0 6 3 -1 5 -18 5 -16 0 -22 -2 -12 -5z"/>
<path d="M200 1272 c0 -5 15 -21 32 -38 18 -16 25 -19 15 -8 -10 12 -15 24
-10 26 4 3 3 3 -4 2 -17 -4 -26 13 -11 19 8 3 6 6 -4 6 -10 1 -18 -3 -18 -7z"/>
<path d="M2458 1273 c6 -2 18 -2 25 0 6 3 1 5 -13 5 -14 0 -19 -2 -12 -5z"/>
<path d="M2643 1273 c9 -2 23 -2 30 0 6 3 -1 5 -18 5 -16 0 -22 -2 -12 -5z"/>
<path d="M2518 1263 c7 -3 16 -2 19 1 4 3 -2 6 -13 5 -11 0 -14 -3 -6 -6z"/>
<path d="M2723 1263 c9 -2 23 -2 30 0 6 3 -1 5 -18 5 -16 0 -22 -2 -12 -5z"/>
<path d="M2568 1253 c7 -3 16 -2 19 1 4 3 -2 6 -13 5 -11 0 -14 -3 -6 -6z"/>
<path d="M2803 1253 c9 -2 23 -2 30 0 6 3 -1 5 -18 5 -16 0 -22 -2 -12 -5z"/>
<path d="M20 1246 c0 -2 8 -10 18 -17 15 -13 16 -12 3 4 -13 16 -21 21 -21 13z"/>
<path d="M2488 1243 c7 -3 16 -2 19 1 4 3 -2 6 -13 5 -11 0 -14 -3 -6 -6z"/>
<path d="M2618 1243 c6 -2 18 -2 25 0 6 3 1 5 -13 5 -14 0 -19 -2 -12 -5z"/>
<path d="M2883 1243 c9 -2 23 -2 30 0 6 3 -1 5 -18 5 -16 0 -22 -2 -12 -5z"/>
<path d="M235 1200 c21 -22 41 -40 44 -40 3 0 -13 18 -34 40 -21 22 -41 40
-44 40 -3 0 13 -18 34 -40z"/>
<path d="M415 1230 c-3 -6 1 -7 9 -4 18 7 21 14 7 14 -6 0 -13 -4 -16 -10z"/>
<path d="M491 1223 c7 -12 15 -20 18 -17 3 2 -3 12 -13 22 -17 16 -18 16 -5
-5z"/>
<path d="M2528 1233 c7 -3 16 -2 19 1 4 3 -2 6 -13 5 -11 0 -14 -3 -6 -6z"/>
<path d="M2678 1233 c7 -3 16 -2 19 1 4 3 -2 6 -13 5 -11 0 -14 -3 -6 -6z"/>
<path d="M2973 1233 c9 -2 23 -2 30 0 6 3 -1 5 -18 5 -16 0 -22 -2 -12 -5z"/>
<path d="M2568 1223 c7 -3 16 -2 19 1 4 3 -2 6 -13 5 -11 0 -14 -3 -6 -6z"/>
<path d="M2728 1223 c7 -3 16 -2 19 1 4 3 -2 6 -13 5 -11 0 -14 -3 -6 -6z"/>
<path d="M3048 1223 c7 -3 16 -2 19 1 4 3 -2 6 -13 5 -11 0 -14 -3 -6 -6z"/>
<path d="M40 1195 c13 -14 26 -25 28 -25 3 0 -5 11 -18 25 -13 14 -26 25 -28
25 -3 0 5 -11 18 -25z"/>
<path d="M311 1204 c0 -11 3 -14 6 -6 3 7 2 16 -1 19 -3 4 -6 -2 -5 -13z"/>
<path d="M451 1166 l-1 -58 -21 23 c-11 13 -18 18 -14 12 10 -21 -2 -15 -42
20 -20 17 -34 27 -30 20 4 -6 3 -14 -3 -18 -6 -4 -8 -10 -6 -14 3 -4 -4 -8
-15 -8 -16 -2 -19 3 -14 20 6 21 6 21 -6 2 -7 -11 -14 -22 -15 -24 -2 -2 -14
4 -26 15 -13 10 -18 12 -12 4 7 -8 12 -44 13 -79 l1 -65 -27 25 -28 24 28 -31
c25 -27 33 -31 68 -27 31 4 44 1 55 -13 8 -11 13 -13 12 -5 -2 7 5 15 16 16
10 2 28 13 40 24 13 12 26 18 29 14 8 -7 97 75 97 89 0 4 -19 -13 -41 -37 -23
-25 -44 -45 -48 -45 -4 0 -5 31 -3 68 2 38 2 77 -1 88 -2 10 -5 -7 -6 -40z
m-81 -11 c10 -12 10 -15 -4 -15 -9 0 -16 7 -16 15 0 8 2 15 4 15 2 0 9 -7 16
-15z"/>
<path d="M2608 1213 c7 -3 16 -2 19 1 4 3 -2 6 -13 5 -11 0 -14 -3 -6 -6z"/>
<path d="M2788 1213 c7 -3 16 -2 19 1 4 3 -2 6 -13 5 -11 0 -14 -3 -6 -6z"/>
<path d="M2838 1203 c7 -3 16 -2 19 1 4 3 -2 6 -13 5 -11 0 -14 -3 -6 -6z"/>
<path d="M520 1143 c-48 -51 -49 -53 -7 -13 l47 44 0 -30 c0 -21 -10 -40 -35
-64 -18 -18 -33 -37 -32 -43 1 -5 -6 -11 -16 -12 -22 -4 -36 -15 -18 -15 7 0
9 -5 6 -11 -5 -7 -14 -4 -28 8 l-22 18 19 -23 19 -22 24 22 c14 13 26 22 29
21 2 -2 4 0 5 5 0 4 8 15 16 25 9 9 13 17 8 17 -4 0 -2 7 5 15 7 8 16 13 20
10 4 -2 16 5 26 18 16 18 16 19 2 8 -16 -12 -18 -11 -18 8 0 15 4 20 13 15 6
-4 4 1 -5 12 -14 16 -15 23 -6 32 7 7 10 12 7 12 -3 0 -29 -26 -59 -57z m10
-77 c0 -2 -8 -10 -17 -17 -16 -13 -17 -12 -4 4 13 16 21 21 21 13z"/>
<path d="M2888 1193 c7 -3 16 -2 19 1 4 3 -2 6 -13 5 -11 0 -14 -3 -6 -6z"/>
<path d="M23 1175 c0 -8 19 -31 41 -52 l41 -38 -33 36 c-18 19 -30 38 -27 41
3 3 -1 10 -8 16 -10 9 -14 8 -14 -3z"/>
<path d="M2948 1183 c7 -3 16 -2 19 1 4 3 -2 6 -13 5 -11 0 -14 -3 -6 -6z"/>
<path d="M125 1140 c21 -22 41 -40 44 -40 3 0 -13 18 -34 40 -21 22 -41 40
-44 40 -3 0 13 -18 34 -40z"/>
<path d="M410 1176 c0 -2 8 -10 18 -17 15 -13 16 -12 3 4 -13 16 -21 21 -21
13z"/>
<path d="M479 1163 c-13 -16 -12 -17 4 -4 9 7 17 15 17 17 0 8 -8 3 -21 -13z"/>
<path d="M2998 1173 c7 -3 16 -2 19 1 4 3 -2 6 -13 5 -11 0 -14 -3 -6 -6z"/>
<path d="M145 1150 c10 -11 20 -20 23 -20 3 0 -3 9 -13 20 -10 11 -20 20 -23
20 -3 0 3 -9 13 -20z"/>
<path d="M649 1153 c-13 -16 -12 -17 4 -4 9 7 17 15 17 17 0 8 -8 3 -21 -13z"/>
<path d="M2560 1160 c8 -5 20 -10 25 -10 6 0 3 5 -5 10 -8 5 -19 10 -25 10 -5
0 -3 -5 5 -10z"/>
<path d="M3048 1163 c7 -3 16 -2 19 1 4 3 -2 6 -13 5 -11 0 -14 -3 -6 -6z"/>
<path d="M110 1125 c19 -19 36 -35 39 -35 3 0 -10 16 -29 35 -19 19 -36 35
-39 35 -3 0 10 -16 29 -35z"/>
<path d="M479 1133 c-13 -16 -12 -17 4 -4 9 7 17 15 17 17 0 8 -8 3 -21 -13z"/>
<path d="M2698 1143 c-18 -4 -22 -15 -18 -42 1 -8 -4 -18 -12 -22 -9 -6 -10
-9 -1 -9 9 0 12 -17 10 -52 l-2 -53 42 3 c23 2 51 -2 64 -8 14 -8 19 -8 15 -1
-5 7 2 11 17 11 13 0 41 14 62 30 21 17 33 30 28 30 -6 0 -10 11 -10 25 0 14
4 25 10 25 22 0 -58 50 -87 54 -64 10 -102 12 -118 9z"/>
<path d="M20 1136 c0 -2 8 -10 18 -17 15 -13 16 -12 3 4 -13 16 -21 21 -21 13z"/>
<path d="M635 1120 c10 -11 20 -20 23 -20 3 0 -3 9 -13 20 -10 11 -20 20 -23
20 -3 0 3 -9 13 -20z"/>
<path d="M2480 1136 c0 -3 9 -10 20 -16 11 -6 20 -8 20 -6 0 3 -9 10 -20 16
-11 6 -20 8 -20 6z"/>
<path d="M2918 1133 c7 -3 16 -2 19 1 4 3 -2 6 -13 5 -11 0 -14 -3 -6 -6z"/>
<path d="M2958 1123 c7 -3 16 -2 19 1 4 3 -2 6 -13 5 -11 0 -14 -3 -6 -6z"/>
<path d="M575 1078 l-40 -43 43 40 c23 21 42 40 42 42 0 8 -9 0 -45 -39z"/>
<path d="M2998 1113 c7 -3 16 -2 19 1 4 3 -2 6 -13 5 -11 0 -14 -3 -6 -6z"/>
<path d="M3038 1103 c7 -3 16 -2 19 1 4 3 -2 6 -13 5 -11 0 -14 -3 -6 -6z"/>
<path d="M589 1063 l-34 -38 38 34 c34 33 42 41 34 41 -2 0 -19 -17 -38 -37z"/>
<path d="M2550 1096 c0 -3 9 -10 20 -16 11 -6 20 -8 20 -6 0 3 -9 10 -20 16
-11 6 -20 8 -20 6z"/>
<path d="M15 1070 c-3 -5 -1 -10 5 -10 6 0 8 -5 4 -12 -4 -7 -3 -8 4 -4 14 9
16 36 3 36 -6 0 -13 -4 -16 -10z"/>
<path d="M2470 1076 c0 -2 8 -10 18 -17 15 -13 16 -12 3 4 -13 16 -21 21 -21
13z"/>
<path d="M2440 1067 c0 -2 15 -16 33 -33 l32 -29 -29 33 c-28 30 -36 37 -36
29z"/>
<path d="M194 1043 l18 -22 -73 -4 -74 -3 78 -1 c76 0 80 -1 113 -34 l34 -35
-34 -33 c-34 -33 -38 -34 -113 -34 l-78 -1 74 -3 c72 -4 73 -4 56 -23 -38 -42
-6 -17 48 38 l57 58 -62 59 c-34 33 -54 50 -44 38z"/>
<path d="M594 1037 l-19 -22 23 19 c22 19 22 19 22 -5 0 -14 -6 -31 -12 -39
-11 -12 -10 -12 5 -1 18 14 23 56 8 65 -4 3 -17 -4 -27 -17z"/>
<path d="M2510 1046 c0 -2 8 -10 18 -17 15 -13 16 -12 3 4 -13 16 -21 21 -21
13z"/>
<path d="M542 1004 c-1 -14 2 -23 7 -20 5 4 8 13 7 21 -4 25 -12 25 -14 -1z"/>
<path d="M521 994 c0 -11 3 -14 6 -6 3 7 2 16 -1 19 -3 4 -6 -2 -5 -13z"/>
<path d="M2560 1006 c0 -2 8 -10 18 -17 15 -13 16 -12 3 4 -13 16 -21 21 -21
13z"/>
<path d="M45 980 c10 -11 20 -20 23 -20 3 0 -3 9 -13 20 -10 11 -20 20 -23 20
-3 0 3 -9 13 -20z"/>
<path d="M286 992 c-3 -5 1 -15 8 -21 11 -10 14 -9 12 3 -3 21 -13 29 -20 18z"/>
<path d="M411 990 c-1 -9 5 -22 11 -28 10 -10 10 -17 0 -32 -6 -11 -12 -25
-11 -32 0 -7 4 -3 10 10 5 13 13 21 18 18 5 -3 7 3 4 14 -4 14 0 20 12 20 12
0 16 -6 12 -20 -7 -29 -1 -25 16 9 15 31 12 47 -7 32 -28 -21 -47 -20 -56 2
-5 13 -9 16 -9 7z"/>
<path d="M2520 997 c0 -2 15 -16 33 -33 l32 -29 -29 33 c-28 30 -36 37 -36 29z"/>
<path d="M70 986 c0 -2 8 -10 18 -17 15 -13 16 -12 3 4 -13 16 -21 21 -21 13z"/>
<path d="M100 986 c0 -2 8 -10 18 -17 15 -13 16 -12 3 4 -13 16 -21 21 -21 13z"/>
<path d="M23 965 c0 -8 3 -13 5 -10 3 3 12 -1 21 -7 10 -8 9 -4 -3 10 -23 26
-23 26 -23 7z"/>
<path d="M203 973 c9 -2 23 -2 30 0 6 3 -1 5 -18 5 -16 0 -22 -2 -12 -5z"/>
<path d="M2600 976 c0 -2 8 -10 18 -17 15 -13 16 -12 3 4 -13 16 -21 21 -21
13z"/>
<path d="M155 949 c-10 -15 3 -25 16 -12 7 7 7 13 1 17 -6 3 -14 1 -17 -5z"/>
<path d="M213 953 c9 -2 25 -2 35 0 9 3 1 5 -18 5 -19 0 -27 -2 -17 -5z"/>
<path d="M93 943 c9 -2 25 -2 35 0 9 3 1 5 -18 5 -19 0 -27 -2 -17 -5z"/>
<path d="M343 943 c15 -2 39 -2 55 0 15 2 2 4 -28 4 -30 0 -43 -2 -27 -4z"/>
<path d="M523 943 c15 -2 37 -2 50 0 12 2 0 4 -28 4 -27 0 -38 -2 -22 -4z"/>
<path d="M2655 930 c10 -11 20 -20 23 -20 3 0 -3 9 -13 20 -10 11 -20 20 -23
20 -3 0 3 -9 13 -20z"/>
<path d="M213 933 c9 -2 25 -2 35 0 9 3 1 5 -18 5 -19 0 -27 -2 -17 -5z"/>
<path d="M74 908 l-19 -23 23 19 c12 11 22 21 22 23 0 8 -8 2 -26 -19z"/>
<path d="M109 913 c-13 -16 -12 -17 4 -4 9 7 17 15 17 17 0 8 -8 3 -21 -13z"/>
<path d="M289 913 c-12 -16 -12 -17 1 -6 9 6 38 13 65 16 l50 3 -51 2 c-39 2
-55 -2 -65 -15z"/>
<path d="M560 920 c30 -4 44 -8 30 -9 l-25 -3 25 -7 c20 -6 25 -14 25 -38 0
-17 4 -29 8 -26 11 6 6 64 -6 81 -6 7 -30 11 -61 10 l-51 -1 55 -7z"/>
<path d="M650 905 c13 -14 26 -25 28 -25 3 0 -5 11 -18 25 -13 14 -26 25 -28
25 -3 0 5 -11 18 -25z"/>
<path d="M2630 895 c19 -19 36 -35 39 -35 3 0 -10 16 -29 35 -19 19 -36 35
-39 35 -3 0 10 -16 29 -35z"/>
<path d="M203 913 c9 -2 23 -2 30 0 6 3 -1 5 -18 5 -16 0 -22 -2 -12 -5z"/>
<path d="M2860 916 c0 -3 9 -10 20 -16 11 -6 20 -8 20 -6 0 3 -9 10 -20 16
-11 6 -20 8 -20 6z"/>
<path d="M318 903 c7 -3 16 -2 19 1 4 3 -2 6 -13 5 -11 0 -14 -3 -6 -6z"/>
<path d="M435 901 c3 -2 -1 -11 -7 -20 -9 -12 -7 -11 7 1 19 17 21 16 64 -25
25 -23 37 -31 26 -18 -11 13 -19 26 -17 30 1 3 -1 6 -5 6 -14 0 -33 16 -29 24
3 4 -6 7 -19 7 -14 0 -22 -2 -20 -5z"/>
<path d="M525 900 c-8 -13 -1 -23 19 -26 16 -2 15 28 -1 33 -6 2 -14 -1 -18
-7z"/>
<path d="M2690 906 c0 -2 8 -10 18 -17 15 -13 16 -12 3 4 -13 16 -21 21 -21
13z"/>
<path d="M143 893 c15 -2 39 -2 55 0 15 2 2 4 -28 4 -30 0 -43 -2 -27 -4z"/>
<path d="M2790 896 c0 -3 20 -19 45 -36 25 -17 45 -29 45 -26 0 3 -20 19 -45
36 -25 17 -45 29 -45 26z"/>
<path d="M640 854 c0 -55 -8 -59 -44 -27 l-31 28 29 -32 c16 -18 32 -32 35
-31 20 2 22 -5 5 -24 -19 -23 -19 -23 1 -7 11 9 29 22 40 28 19 11 19 12 -2 6
-21 -6 -23 -3 -23 36 0 37 2 40 16 28 10 -8 12 -15 5 -17 -16 -5 -13 -21 4
-18 26 4 25 12 -5 41 l-30 29 0 -40z"/>
<path d="M2745 860 c10 -11 20 -20 23 -20 3 0 -3 9 -13 20 -10 11 -20 20 -23
20 -3 0 3 -9 13 -20z"/>
<path d="M2930 876 c0 -3 9 -10 20 -16 11 -6 20 -8 20 -6 0 3 -9 10 -20 16
-11 6 -20 8 -20 6z"/>
<path d="M42 856 c7 -8 15 -12 17 -11 5 6 -10 25 -20 25 -5 0 -4 -6 3 -14z"/>
<path d="M93 853 c9 -2 23 -2 30 0 6 3 -1 5 -18 5 -16 0 -22 -2 -12 -5z"/>
<path d="M570 818 c24 -27 45 -48 47 -48 8 0 0 9 -44 50 l-48 45 45 -47z"/>
<path d="M23 832 c-8 -5 -9 -13 -3 -22 7 -12 10 -12 16 3 8 21 3 29 -13 19z"/>
<path d="M2780 836 c0 -2 8 -10 18 -17 15 -13 16 -12 3 4 -13 16 -21 21 -21
13z"/>
<path d="M70 773 l-55 -58 58 55 c53 50 62 60 54 60 -1 0 -27 -26 -57 -57z"/>
<path d="M188 803 c6 -2 18 -2 25 0 6 3 1 5 -13 5 -14 0 -19 -2 -12 -5z"/>
<path d="M115 770 c-15 -16 -33 -27 -38 -23 -6 4 -7 1 -2 -6 5 -9 17 -4 41 20
19 18 34 34 34 36 0 7 -8 1 -35 -27z"/>
<path d="M575 780 c10 -11 20 -20 23 -20 3 0 -3 9 -13 20 -10 11 -20 20 -23
20 -3 0 3 -9 13 -20z"/>
<path d="M125 748 l-40 -43 43 40 c23 21 42 40 42 42 0 8 -9 0 -45 -39z"/>
<path d="M159 753 l-34 -38 38 34 c34 33 42 41 34 41 -2 0 -19 -17 -38 -37z"/>
<path d="M29 763 c-13 -16 -12 -17 4 -4 9 7 17 15 17 17 0 8 -8 3 -21 -13z"/>
<path d="M184 748 l-19 -23 23 19 c12 11 22 21 22 23 0 8 -8 2 -26 -19z"/>
<path d="M640 746 c0 -2 8 -10 18 -17 15 -13 16 -12 3 4 -13 16 -21 21 -21 13z"/>
<path d="M470 736 c0 -2 8 -10 18 -17 15 -13 16 -12 3 4 -13 16 -21 21 -21 13z"/>
<path d="M39 693 l-24 -26 27 19 c15 10 28 22 28 27 0 12 -5 8 -31 -20z"/>
<path d="M570 665 c30 -30 57 -55 59 -55 3 0 -19 25 -49 55 -30 30 -57 55 -59
55 -3 0 19 -25 49 -55z"/>
<path d="M311 684 c0 -11 3 -14 6 -6 3 7 2 16 -1 19 -3 4 -6 -2 -5 -13z"/>
<path d="M401 689 c-1 -9 7 -23 17 -30 15 -12 16 -12 6 1 -6 8 -14 22 -17 30
-5 13 -6 12 -6 -1z"/>
<path d="M220 645 c-33 -34 -33 -35 -9 -34 13 0 18 3 11 6 -10 4 -6 13 14 34
15 16 26 29 23 29 -3 0 -20 -16 -39 -35z"/>
<path d="M356 661 c-13 -14 -16 -32 -13 -67 l3 -49 2 49 c1 30 9 57 19 68 9
10 14 18 11 18 -3 0 -13 -9 -22 -19z"/>
<path d="M489 663 c-13 -16 -12 -17 4 -4 9 7 17 15 17 17 0 8 -8 3 -21 -13z"/>
<path d="M542 665 c9 -11 18 -36 21 -55 l4 -35 1 36 c2 26 -4 41 -20 55 -23
19 -23 19 -6 -1z"/>
<path d="M29 653 c-13 -16 -12 -17 4 -4 9 7 17 15 17 17 0 8 -8 3 -21 -13z"/>
<path d="M392 638 c-7 -7 -11 -26 -11 -42 l2 -31 4 30 c3 17 9 36 15 43 13 15
6 16 -10 0z"/>
<path d="M448 643 c7 -3 16 -2 19 1 4 3 -2 6 -13 5 -11 0 -14 -3 -6 -6z"/>
<path d="M620 646 c0 -2 8 -10 18 -17 15 -13 16 -12 3 4 -13 16 -21 21 -21 13z"/>
<path d="M32 600 c0 -19 2 -27 5 -17 2 9 2 25 0 35 -3 9 -5 1 -5 -18z"/>
<path d="M150 605 c-13 -14 -19 -25 -14 -25 8 1 50 50 41 50 -2 0 -14 -11 -27
-25z"/>
<path d="M294 598 l-29 -33 33 29 c30 28 37 36 29 36 -2 0 -16 -15 -33 -32z"/>
<path d="M431 614 c0 -11 3 -14 6 -6 3 7 2 16 -1 19 -3 4 -6 -2 -5 -13z"/>
<path d="M471 614 c0 -11 3 -14 6 -6 3 7 2 16 -1 19 -3 4 -6 -2 -5 -13z"/>
<path d="M580 626 c0 -2 8 -10 18 -17 15 -13 16 -12 3 4 -13 16 -21 21 -21 13z"/>
<path d="M193 593 c9 -2 25 -2 35 0 9 3 1 5 -18 5 -19 0 -27 -2 -17 -5z"/>
<path d="M304 578 c-12 -14 -13 -18 -3 -10 9 6 19 9 22 5 4 -3 7 1 7 10 0 22
-3 21 -26 -5z"/>
<path d="M460 586 c0 -2 8 -10 18 -17 15 -13 16 -12 3 4 -13 16 -21 21 -21 13z"/>
</g>
</svg>
