<?xml version="1.0" standalone="no"?>
<!DOCTYPE svg PUBLIC "-//W3C//DTD SVG 20010904//EN"
 "http://www.w3.org/TR/2001/REC-SVG-20010904/DTD/svg10.dtd">
<svg version="1.0" xmlns="http://www.w3.org/2000/svg"
 width="300.000000pt" height="225.000000pt" viewBox="0 0 300.000000 225.000000"
 preserveAspectRatio="xMidYMid meet">

<g transform="translate(0.000000,225.000000) scale(0.100000,-0.100000)"
fill="#000000" stroke="none">
<path d="M595 2232 c-9 -25 -6 -37 7 -24 7 7 29 12 50 12 l38 0 0 -115 c0 -70
-4 -115 -10 -115 -5 0 -10 -3 -10 -8 0 -4 21 -5 46 -3 27 2 41 6 34 11 -8 5
-14 46 -18 119 l-5 111 41 0 c29 0 44 -5 51 -17 9 -16 10 -14 11 9 l0 27 -115
3 c-89 2 -116 0 -120 -10z"/>
<path d="M1156 2240 c-63 -20 -104 -89 -92 -155 14 -72 89 -124 163 -112 27 5
48 -2 101 -31 59 -33 75 -37 137 -37 39 0 78 5 87 10 12 7 -1 10 -50 10 -56 0
-78 6 -134 34 -38 19 -68 36 -68 38 0 3 9 18 21 34 45 64 29 163 -31 194 -37
19 -99 26 -134 15z m97 -30 c73 -58 50 -220 -32 -220 -42 0 -88 34 -101 75
-37 112 52 209 133 145z"/>
<path d="M2095 2124 c-27 -69 -55 -128 -62 -131 -26 -10 -12 -19 22 -15 19 2
32 8 29 13 -3 5 0 25 6 45 11 33 14 35 53 32 39 -3 43 -6 56 -45 13 -37 18
-42 53 -45 21 -2 38 0 38 4 0 5 -6 8 -14 8 -13 0 -30 36 -87 183 -17 42 -34
77 -37 77 -4 0 -29 -57 -57 -126z m75 -25 c0 -5 -13 -9 -30 -9 -19 0 -28 4
-25 13 2 6 9 26 15 42 l12 30 14 -34 c8 -18 14 -37 14 -42z"/>
<path d="M868 2231 c10 -6 14 -38 13 -119 0 -62 -2 -116 -5 -121 -8 -12 126
-20 142 -8 6 5 12 19 12 30 0 20 -1 20 -13 3 -9 -12 -23 -17 -47 -14 -35 3
-35 4 -38 56 -3 52 -3 52 27 52 18 0 34 -7 40 -17 9 -15 10 -14 11 10 0 25 -3
27 -40 27 l-40 0 0 45 c0 45 0 45 35 45 19 0 35 -4 35 -10 0 -5 5 -10 10 -10
6 0 10 9 10 20 0 18 -7 20 -82 20 -49 0 -78 -4 -70 -9z"/>
<path d="M1386 2232 c7 -4 13 -48 16 -105 4 -88 6 -100 29 -123 54 -54 156
-37 179 29 5 17 10 67 10 113 0 56 4 84 13 87 6 3 -6 5 -28 5 -22 0 -34 -2
-27 -5 8 -3 12 -33 12 -99 0 -87 -2 -97 -25 -119 -31 -32 -59 -32 -90 0 -23
22 -25 32 -25 119 0 66 4 96 13 99 6 3 -10 6 -38 6 -27 0 -45 -3 -39 -7z"/>
<path d="M1698 2233 c15 -6 18 -243 2 -243 -5 0 -10 -3 -10 -8 0 -4 21 -5 46
-3 26 2 41 7 35 11 -9 5 -11 42 -9 128 l3 122 -40 -1 c-22 0 -34 -3 -27 -6z"/>
<path d="M1848 2233 c9 -3 12 -38 12 -124 0 -88 -3 -119 -12 -121 -7 -1 21 -4
62 -8 89 -7 100 -5 99 24 0 11 -3 15 -6 9 -3 -8 -23 -13 -49 -13 l-44 0 0 114
c0 82 4 116 13 119 6 3 -10 5 -38 5 -27 0 -44 -2 -37 -5z"/>
<path d="M2226 1860 c-28 -4 -45 -14 -64 -37 l-25 -33 24 0 c13 0 31 6 40 13
83 65 83 65 25 57z"/>
<path d="M2234 1811 c-27 -21 -61 -41 -74 -44 -22 -4 -22 -4 5 -5 22 -1 43 10
80 43 62 55 55 59 -11 6z"/>
<path d="M1580 1706 c-98 -23 -133 -45 -95 -60 12 -4 15 -25 15 -100 l0 -95
-27 -3 c-19 -2 -29 -9 -31 -24 -3 -18 1 -20 30 -17 l33 4 -30 -16 -30 -15 28
5 27 5 0 -70 c0 -65 -2 -73 -27 -96 l-28 -24 95 1 c61 1 95 -2 98 -9 2 -7 -26
-12 -85 -15 l-88 -3 98 -2 c53 -1 97 1 97 5 0 3 -11 21 -25 39 -22 28 -25 43
-25 108 l0 75 33 9 c17 5 35 7 39 5 11 -5 48 -125 61 -196 7 -36 15 -66 19
-66 5 -1 32 11 62 26 l55 26 -44 51 c-40 45 -124 192 -114 198 2 2 22 12 44
23 54 28 88 80 81 125 -8 49 -60 95 -125 109 -62 13 -70 13 -141 -3z m107 -27
c50 -19 73 -48 73 -94 0 -51 -36 -90 -104 -110 l-46 -14 0 99 0 100 34 0 c19
0 47 -5 63 -10 26 -9 27 -9 9 5 -12 9 -40 15 -68 15 l-48 0 0 -105 c0 -63 -4
-105 -10 -105 -6 0 -10 42 -10 105 0 100 1 106 23 115 30 12 51 12 84 -1z
m-10 -245 c-3 -4 -21 -9 -39 -13 l-33 -7 -3 -82 c-2 -49 2 -91 9 -104 12 -23
12 -23 -10 -4 -19 17 -21 30 -21 112 l0 93 33 4 c57 7 70 7 64 1z"/>
<path d="M57 1689 c19 -21 22 -37 24 -124 l2 -99 -30 -8 c-17 -4 -36 -15 -43
-23 -12 -14 -8 -15 31 -10 41 5 42 4 12 -5 -41 -13 -43 -21 -3 -13 l30 6 0
-84 c0 -72 -3 -86 -22 -107 l-23 -23 90 2 c58 1 90 -2 93 -9 2 -7 -25 -12 -80
-15 l-83 -3 98 -2 c53 -1 97 2 97 6 0 5 -11 19 -25 32 -23 22 -25 31 -25 110
l0 87 83 5 c64 3 92 10 120 27 66 41 85 146 36 203 l-20 23 17 -29 c23 -37 23
-115 1 -150 -27 -40 -74 -59 -167 -65 l-85 -6 -3 -84 c-2 -49 1 -88 8 -95 19
-19 10 -29 -10 -11 -17 16 -20 31 -20 110 l0 92 83 5 c139 9 190 45 190 134 0
54 -23 89 -78 118 -32 16 -63 21 -179 24 l-141 4 22 -23z m251 -45 c30 -20 45
-61 37 -102 -8 -41 -54 -72 -107 -72 l-38 0 0 85 0 85 34 0 c19 0 47 -5 63
-10 27 -10 27 -9 8 5 -13 11 -36 15 -70 13 l-50 -3 -3 -87 c-1 -49 -7 -88 -12
-88 -12 0 -14 183 -2 194 11 12 114 -3 140 -20z"/>
<path d="M617 1684 c16 -25 16 -29 -7 -95 -14 -38 -26 -69 -29 -69 -2 0 -14 8
-25 17 -18 15 -18 14 2 -8 25 -29 18 -47 -10 -22 -10 9 -19 14 -21 12 -2 -2
-11 -16 -20 -31 -16 -26 -16 -26 14 -37 25 -9 29 -14 24 -33 -18 -61 -69 -154
-101 -184 l-35 -34 85 0 c47 0 86 3 86 8 0 4 -7 16 -15 26 -8 11 -15 34 -15
51 0 40 29 127 40 120 5 -3 2 -24 -6 -47 -19 -56 -18 -97 6 -136 11 -18 20
-34 20 -37 0 -2 -42 -6 -92 -8 l-93 -3 108 -2 c84 -2 106 1 101 11 -5 6 -18
27 -31 46 -13 19 -23 43 -23 54 0 27 22 97 30 97 4 0 20 -18 35 -40 l27 -40
35 45 c19 25 38 45 43 45 17 0 11 -11 -25 -51 -19 -22 -35 -44 -35 -51 0 -13
59 51 60 65 1 23 18 0 35 -48 l18 -55 -24 -26 -24 -25 100 2 c65 1 100 -2 103
-9 2 -8 -28 -12 -90 -15 l-93 -3 108 -2 c59 -1 107 1 107 5 0 4 -15 23 -34 43
-22 23 -44 65 -65 123 l-31 89 40 -7 39 -7 -22 51 c-25 57 -46 71 -22 15 19
-46 20 -44 -15 -44 -16 0 -30 -4 -30 -9 0 -21 64 -187 79 -206 16 -19 15 -19
-9 -4 -18 12 -35 44 -61 115 -20 55 -34 102 -32 107 2 4 17 7 34 7 34 0 33 -3
14 45 -13 30 -19 35 -30 25 -12 -10 -16 -8 -24 11 -5 13 -18 47 -30 76 -12 31
-17 55 -11 58 6 3 15 16 21 28 10 19 8 19 -16 -5 -30 -29 -31 -24 14 -135 11
-29 17 -55 12 -57 -5 -3 -23 33 -41 80 l-32 86 23 24 22 24 -91 0 -92 0 17
-26z m30 -150 l-25 -61 34 -43 c38 -47 37 -47 26 -54 -5 -3 -25 15 -46 40
l-37 44 33 88 c19 50 34 79 36 67 1 -11 -8 -48 -21 -81z m66 -26 c24 -67 25
-74 10 -90 -22 -24 -24 -23 -57 18 l-29 36 19 54 c10 30 21 54 25 54 3 0 18
-33 32 -72z"/>
<path d="M920 1702 c0 -4 4 -12 9 -17 4 -6 16 -32 26 -58 l18 -49 11 33 c13
39 46 59 96 58 l35 -1 -40 -9 c-44 -10 -75 -40 -75 -73 1 -17 3 -15 14 10 16
36 20 39 64 49 l32 7 0 -205 0 -205 -27 -21 -28 -21 95 1 c122 0 120 1 120
-11 0 -5 -44 -11 -97 -13 l-98 -3 115 -2 114 -2 -37 38 -37 38 0 197 0 197 38
1 c30 0 33 2 17 9 -11 5 -30 9 -42 9 l-23 1 0 -213 c0 -156 3 -217 13 -227 6
-8 2 -6 -10 4 -23 19 -23 23 -23 233 l0 213 44 0 c49 0 72 -16 82 -57 7 -25 9
-23 35 28 15 30 28 57 29 62 0 4 -106 7 -235 7 -129 0 -235 -4 -235 -8z"/>
<path d="M2052 1689 c-103 -51 -149 -196 -106 -338 54 -182 303 -211 385 -44
20 41 24 63 24 143 -1 82 -4 102 -27 145 -14 28 -34 58 -45 67 -55 50 -159 62
-231 27z m143 -25 c55 -26 70 -70 70 -204 0 -93 -4 -124 -19 -159 -30 -66 -93
-89 -156 -56 -49 25 -64 67 -67 185 -4 130 14 193 66 227 40 27 61 29 106 7z"/>
<path d="M2090 1632 c-36 -37 -52 -96 -52 -197 -1 -78 22 -162 49 -178 6 -4
-1 15 -14 40 -19 38 -23 62 -23 132 0 102 12 150 46 191 27 32 53 37 101 20
26 -9 27 -9 9 5 -32 25 -84 19 -116 -13z"/>
<path d="M2463 1682 l27 -28 0 -170 c0 -187 -8 -233 -47 -264 l-26 -20 92 0
c120 0 119 -18 -1 -23 l-93 -3 103 -2 c56 -1 102 2 102 7 0 10 -24 31 -53 46
-40 20 -47 51 -47 225 0 110 4 160 10 150 5 -8 10 -85 10 -170 1 -121 4 -160
16 -180 9 -14 12 -16 7 -5 -4 11 -9 85 -10 165 l-3 145 85 -160 c46 -88 87
-168 91 -177 4 -13 16 -18 40 -18 l34 0 0 193 c1 220 7 263 47 294 l28 23 -84
0 -84 0 26 -24 c35 -32 38 -51 35 -186 l-3 -115 -74 139 -73 139 23 18 c13 10
20 19 14 18 -5 0 -19 -6 -30 -15 -19 -14 -18 -19 63 -180 46 -90 82 -172 80
-181 -2 -10 -45 64 -96 164 l-92 181 27 21 28 20 -99 1 -100 0 27 -28z"/>
<path d="M1377 1634 c-37 -74 -33 -83 4 -10 17 32 29 60 27 62 -2 2 -16 -21
-31 -52z"/>
<path d="M2315 1655 c49 -52 68 -119 63 -224 -3 -62 -10 -98 -26 -128 -45 -87
-142 -135 -234 -116 -33 6 -45 6 -38 -1 5 -5 36 -12 67 -14 78 -5 154 33 200
101 57 85 65 234 17 329 -17 34 -63 88 -75 88 -3 0 8 -16 26 -35z"/>
<path d="M2844 1659 c-17 -19 -19 -42 -22 -249 l-4 -229 -36 -4 c-30 -4 -29
-4 8 -3 l45 1 5 237 c3 130 7 238 10 241 3 2 14 9 25 15 15 9 16 11 4 12 -9 0
-24 -9 -35 -21z"/>
<path d="M1861 1631 c28 -57 -13 -143 -82 -172 -24 -9 -28 -16 -23 -33 14 -48
72 -143 110 -183 l41 -43 -58 -26 c-32 -15 -64 -33 -71 -41 -6 -8 20 2 58 21
38 20 75 36 82 36 19 0 15 7 -32 50 -39 36 -116 161 -116 188 0 6 16 19 35 31
66 38 97 130 59 177 -14 18 -15 18 -3 -5z"/>
<path d="M2902 1274 c-25 -17 -31 -71 -10 -92 16 -16 73 -15 86 1 24 30 23 56
-2 82 -29 29 -43 31 -74 9z m66 -16 c28 -28 7 -78 -33 -78 -27 0 -45 18 -45
45 0 27 18 45 45 45 12 0 26 -5 33 -12z"/>
<path d="M2910 1230 c0 -16 5 -30 10 -30 6 0 10 5 10 12 0 6 7 3 16 -8 12 -14
14 -15 11 -3 -3 9 -1 21 5 27 15 15 1 32 -28 32 -20 0 -24 -5 -24 -30z m40 10
c0 -5 -4 -10 -10 -10 -5 0 -10 5 -10 10 0 6 5 10 10 10 6 0 10 -4 10 -10z"/>
<path d="M1281 864 c-27 -24 -50 -59 -71 -111 -18 -42 -37 -85 -43 -95 -9 -13
-9 -20 0 -29 16 -16 33 -2 31 24 -5 62 90 227 130 227 20 0 52 -42 58 -77 8
-44 -1 -52 -30 -24 -32 30 -75 25 -96 -11 -13 -25 -13 -31 0 -55 11 -20 26
-30 50 -33 34 -5 34 -6 13 -18 -39 -21 -25 -32 20 -16 54 19 151 19 206 1 55
-19 50 -1 -9 30 -47 25 -119 30 -166 12 -28 -10 -28 -10 -10 10 35 39 122 39
167 0 63 -54 148 22 89 81 -28 28 -64 25 -88 -5 -24 -31 -35 -18 -27 29 7 37
38 76 60 76 39 0 125 -152 125 -220 0 -32 16 -48 32 -32 11 11 6 22 -63 169
-35 73 -84 112 -118 93 -24 -12 -51 -60 -51 -90 0 -16 -6 -20 -35 -20 -19 0
-38 -1 -42 -2 -4 -2 -11 16 -16 39 -7 39 -44 83 -68 83 -5 0 -27 -16 -48 -36z
m71 -109 c10 -22 9 -29 -10 -47 -18 -19 -25 -20 -47 -10 -44 20 -28 82 22 82
15 0 27 -9 35 -25z m266 -12 c3 -27 -1 -35 -23 -45 -38 -17 -74 19 -57 57 10
22 18 26 45 23 28 -3 32 -7 35 -35z"/>
<path d="M1343 615 c-19 -8 -47 -11 -67 -8 -43 7 -160 -13 -258 -43 -91 -29
-212 -106 -262 -168 -39 -47 -83 -134 -92 -184 -16 -85 29 -152 102 -152 23 0
55 -5 70 -10 38 -15 91 4 109 40 23 44 42 44 84 0 51 -54 82 -54 118 1 16 23
32 48 37 54 6 8 3 34 -10 71 -66 204 61 384 271 384 67 0 117 -15 170 -51 61
-41 92 -81 110 -141 19 -65 19 -112 0 -174 -25 -82 -23 -88 46 -171 17 -22 59
-15 88 15 15 15 30 33 32 39 7 20 43 4 61 -28 24 -41 62 -53 115 -38 23 6 49
9 58 5 25 -9 64 11 86 46 16 26 19 45 17 89 -14 213 -277 402 -578 414 -47 2
-101 8 -120 14 -48 15 -148 13 -187 -4z m-63 -34 c0 -6 -27 -24 -60 -42 -95
-50 -153 -139 -190 -286 -15 -60 -26 -83 -47 -101 -29 -23 -30 -24 -69 -67
-21 -23 -30 -26 -57 -20 -18 3 -54 8 -82 10 -39 2 -54 8 -73 31 -21 24 -24 35
-19 84 13 143 156 298 327 355 111 37 270 58 270 36z m550 -22 c209 -58 378
-224 381 -375 2 -78 -44 -130 -97 -110 -9 4 -31 1 -49 -5 -46 -17 -85 -4 -98
31 -6 17 -17 30 -23 30 -33 0 -62 42 -79 112 -21 87 -63 179 -104 229 -16 19
-57 50 -90 68 -36 19 -59 37 -55 43 9 15 122 3 214 -23z m-665 -111 c-30 -65
-33 -155 -8 -236 17 -54 17 -54 -5 -72 -12 -10 -22 -25 -22 -33 0 -48 -70 -45
-99 4 -17 27 -17 35 -6 63 7 17 18 56 25 86 19 81 53 152 95 199 21 22 39 41
41 41 2 0 -8 -24 -21 -52z m623 -47 c14 -25 39 -88 55 -140 15 -53 31 -103 33
-112 3 -9 -7 -30 -21 -47 -34 -41 -71 -43 -88 -4 -6 15 -20 34 -31 43 -18 15
-18 18 -3 65 27 85 30 129 12 191 -9 32 -24 69 -32 83 -14 23 -13 22 17 -5 17
-16 44 -50 58 -74z"/>
<path d="M1049 536 c-56 -16 -161 -67 -166 -81 -2 -6 13 -17 32 -24 34 -12 37
-11 76 22 22 19 60 45 84 58 71 38 59 48 -26 25z m-30 -39 c-2 -2 -21 -15 -41
-30 -29 -22 -42 -26 -55 -18 -15 8 -9 14 37 34 30 14 57 23 59 21 2 -2 2 -5 0
-7z"/>
<path d="M1064 481 c-104 -69 -117 -83 -105 -111 6 -14 21 -38 35 -54 l24 -28
12 38 c16 51 54 116 92 159 41 47 17 45 -58 -4z m-21 -81 c-27 -54 -38 -68
-48 -60 -31 26 -24 50 27 90 27 22 51 40 53 40 2 0 -13 -32 -32 -70z"/>
<path d="M834 410 c-31 -12 -72 -66 -80 -105 -16 -88 47 -174 102 -137 22 15
35 53 28 85 -8 39 -41 87 -59 87 -26 0 -28 23 -4 41 28 21 60 24 77 7 19 -19
14 -36 -15 -46 l-28 -10 27 -1 c33 -1 54 29 39 58 -16 30 -47 37 -87 21z m-1
-100 c50 -40 44 -130 -8 -130 -29 0 -55 42 -55 89 0 63 19 76 63 41z"/>
<path d="M903 313 c-9 -3 -9 -11 -2 -31 6 -15 8 -46 4 -69 -5 -38 -4 -43 13
-43 32 0 72 38 72 70 0 45 -50 88 -87 73z m57 -33 c24 -24 25 -38 4 -68 -27
-39 -41 -27 -41 33 0 60 6 66 37 35z"/>
<path d="M710 215 c-13 -34 -13 -48 1 -79 13 -29 34 -39 60 -31 26 9 24 32 -6
67 -14 16 -25 36 -25 43 0 26 -20 26 -30 0z m55 -93 c-13 -14 -40 17 -43 49
l-4 34 27 -39 c14 -21 23 -41 20 -44z"/>
<path d="M841 136 c-32 -11 -33 -13 -16 -30 11 -11 29 -16 49 -14 26 2 31 7
31 28 0 29 -17 34 -64 16z m49 -15 c0 -13 -28 -22 -35 -11 -3 4 1 11 7 13 20
8 28 8 28 -2z"/>
<path d="M1770 543 c0 -4 20 -19 45 -32 24 -13 62 -39 84 -58 39 -33 42 -34
76 -22 19 7 35 16 35 21 0 11 -79 54 -130 71 -66 22 -110 30 -110 20z m174
-65 c33 -17 37 -22 23 -30 -16 -8 -58 14 -102 55 -14 13 32 -2 79 -25z"/>
<path d="M1775 479 c35 -39 95 -150 95 -176 0 -22 14 -13 37 22 39 62 38 68
-19 113 -115 87 -175 109 -113 41z m122 -71 c25 -26 25 -28 9 -53 -10 -15 -19
-25 -21 -23 -2 1 -19 33 -38 71 l-36 67 30 -17 c16 -10 42 -30 56 -45z"/>
<path d="M1992 404 c-41 -28 -14 -100 29 -73 12 7 11 9 -2 9 -27 0 -44 27 -29
45 18 22 55 18 87 -9 l28 -24 -26 -10 c-42 -16 -69 -59 -69 -107 0 -81 79
-105 115 -34 35 67 8 159 -57 199 -40 24 -47 24 -76 4z m129 -107 c9 -35 -6
-89 -30 -111 -24 -22 -56 -8 -65 29 -9 34 18 93 46 104 32 13 41 9 49 -22z"/>
<path d="M1927 298 c-9 -7 -20 -27 -23 -45 -5 -26 -1 -37 19 -57 15 -14 35
-26 47 -26 18 0 20 6 20 54 0 30 3 61 6 70 5 12 -1 16 -23 16 -16 0 -37 -6
-46 -12z m45 -53 c-4 -58 -11 -65 -36 -39 -21 20 -20 53 1 76 29 32 38 22 35
-37z"/>
<path d="M2155 210 c-4 -11 -18 -34 -32 -50 -20 -25 -23 -33 -13 -45 29 -35
80 -2 80 52 0 57 -22 84 -35 43z m25 -29 c0 -28 -21 -61 -40 -61 -25 0 -25 5
3 40 22 30 37 37 37 21z"/>
<path d="M1990 136 c-20 -25 -5 -46 33 -46 52 0 77 33 33 44 -13 3 -31 8 -38
11 -8 3 -21 -1 -28 -9z m53 -16 c8 0 8 -3 0 -11 -13 -13 -43 -5 -43 12 0 6 7
8 16 5 9 -3 21 -6 27 -6z"/>
<path d="M1089 323 c-17 -45 -30 -144 -24 -175 9 -40 40 -37 60 6 13 28 14 42
6 73 -6 21 -11 57 -11 81 0 48 -15 55 -31 15z m24 -94 c5 -41 -8 -89 -25 -89
-9 0 -11 64 -2 109 8 40 20 32 27 -20z"/>
<path d="M1770 296 c0 -30 -5 -67 -11 -82 -8 -22 -6 -35 8 -61 21 -40 50 -43
59 -7 14 55 -19 204 -45 204 -7 0 -11 -23 -11 -54z m39 -98 c1 -62 -7 -73 -25
-34 -8 17 -8 38 0 76 13 63 24 44 25 -42z"/>
<path d="M1365 561 c-207 -55 -245 -252 -84 -435 24 -27 70 -67 103 -88 l59
-38 49 27 c73 40 171 149 198 220 30 79 25 164 -12 221 -38 57 -118 94 -211
98 -40 2 -85 0 -102 -5z m-90 -98 c-18 -42 -32 -60 -41 -51 -8 8 34 88 46 88
6 0 3 -17 -5 -37z m368 8 c19 -33 22 -51 6 -51 -8 0 -39 58 -39 75 0 14 18 2
33 -24z m-327 -6 c-14 -54 -27 -78 -37 -68 -7 7 -5 23 7 52 17 44 40 57 30 16z
m290 -10 c16 -40 18 -55 5 -55 -5 0 -16 20 -24 45 -19 53 -3 62 19 10z m-266
-34 c-6 -23 -16 -41 -21 -41 -12 0 -7 28 12 77 16 39 22 13 9 -36z m233 15
c14 -42 13 -56 -3 -56 -4 0 -13 20 -19 44 -13 54 -13 56 -2 56 5 0 16 -20 24
-44z m-188 9 c-3 -14 -7 -36 -10 -50 -9 -45 -27 -29 -20 18 8 48 12 57 26 57
5 0 7 -11 4 -25z m35 -25 c0 -38 -4 -50 -15 -50 -13 0 -15 8 -10 38 13 79 25
85 25 12z m40 -5 c0 -43 -12 -65 -25 -45 -9 15 6 101 16 94 5 -3 9 -25 9 -49z
m36 10 c7 -48 -1 -69 -16 -45 -13 20 -13 90 -1 90 6 0 13 -20 17 -45z m39 -1
c6 -44 2 -64 -11 -51 -4 3 -9 26 -11 52 -7 60 13 60 22 -1z m165 -54 c0 -5 -2
-10 -4 -10 -3 0 -8 5 -11 10 -3 6 -1 10 4 10 6 0 11 -4 11 -10z m-474 -61
c-11 -26 -16 -30 -21 -17 -4 9 2 31 11 50 23 42 31 16 10 -33z m454 42 c5 -11
10 -30 10 -43 -1 -20 -3 -19 -20 12 -11 19 -19 38 -20 43 0 15 20 6 30 -12z
m-26 -32 c12 -29 14 -45 7 -52 -10 -10 -23 14 -37 68 -10 41 13 28 30 -16z
m-380 9 c-15 -51 -24 -68 -34 -68 -14 0 -13 11 5 54 17 39 41 51 29 14z m346
-31 c12 -38 8 -59 -9 -41 -13 13 -30 81 -23 88 9 9 18 -5 32 -47z m-310 24 c0
-30 -22 -83 -31 -74 -10 10 10 93 22 93 5 0 9 -8 9 -19z m36 -22 c-3 -17 -6
-38 -6 -45 0 -8 -7 -14 -15 -14 -15 0 -15 12 2 73 8 31 26 19 19 -14z m36 -26
c-3 -29 -9 -43 -19 -43 -11 0 -12 9 -8 38 9 54 15 67 24 56 4 -5 6 -28 3 -51z
m152 40 c17 -61 17 -83 2 -83 -11 0 -16 9 -16 28 0 15 -3 37 -6 50 -4 12 -2
22 4 22 6 0 13 -8 16 -17z m46 -24 c11 -41 7 -61 -9 -43 -5 5 -12 26 -15 47
-9 51 10 48 24 -4z m-160 -14 c0 -29 -4 -45 -13 -45 -8 0 -11 14 -9 45 2 25 8
45 13 45 5 0 9 -20 9 -45z m40 -6 c0 -32 -4 -49 -11 -47 -6 2 -10 7 -10 11 1
4 1 25 1 47 0 22 5 40 10 40 6 0 10 -23 10 -51z m42 6 c2 -31 -1 -45 -9 -45
-7 0 -13 6 -13 14 0 7 -3 28 -6 45 -5 24 -3 31 9 31 11 0 16 -13 19 -45z
m-237 -74 c3 -5 1 -12 -5 -16 -5 -3 -10 1 -10 9 0 18 6 21 15 7z m385 1 c0
-13 -12 -22 -22 -16 -10 6 -1 24 13 24 5 0 9 -4 9 -8z m-350 -32 c0 -16 -4
-30 -9 -30 -12 0 -19 21 -13 43 7 28 22 20 22 -13z m313 8 c7 -25 0 -41 -14
-33 -12 8 -12 55 0 55 5 0 11 -10 14 -22z m-273 -20 c0 -38 -14 -66 -24 -49
-9 14 4 81 15 81 5 0 9 -15 9 -32z m199 -35 c1 -18 -3 -33 -8 -33 -12 0 -25
76 -15 91 10 17 22 -15 23 -58z m35 51 c9 -23 7 -62 -3 -68 -8 -5 -21 38 -21
70 0 19 16 18 24 -2z m-196 -36 c-4 -49 -28 -66 -28 -20 0 37 9 62 22 62 5 0
8 -19 6 -42z m42 -2 c0 -44 -12 -66 -25 -46 -9 15 4 90 16 90 5 0 9 -20 9 -44z
m40 -7 c0 -36 -4 -49 -12 -47 -14 5 -23 61 -14 84 12 31 26 11 26 -37z m38 12
c2 -18 0 -40 -3 -49 -6 -15 -8 -15 -15 3 -5 11 -9 35 -9 53 -1 44 23 38 27 -7z"/>
</g>
</svg>
