<?xml version="1.0" standalone="no"?>
<!DOCTYPE svg PUBLIC "-//W3C//DTD SVG 20010904//EN"
 "http://www.w3.org/TR/2001/REC-SVG-20010904/DTD/svg10.dtd">
<svg version="1.0" xmlns="http://www.w3.org/2000/svg"
 width="311.000000pt" height="162.000000pt" viewBox="0 0 311.000000 162.000000"
 preserveAspectRatio="xMidYMid meet">

<g transform="translate(0.000000,162.000000) scale(0.100000,-0.100000)"
fill="#000000" stroke="none">
<path d="M0 810 l0 -810 1555 0 1555 0 0 810 0 810 -1555 0 -1555 0 0 -810z
m1592 176 c32 -15 68 -60 68 -85 0 -20 -48 -12 -55 8 -14 45 -88 66 -168 49
-72 -15 -105 -77 -76 -142 33 -71 202 -75 239 -6 10 19 7 20 -55 20 -58 0 -65
2 -65 20 0 19 7 20 90 20 l90 0 0 -75 c0 -73 -1 -75 -25 -75 -18 0 -25 5 -25
20 l0 20 -40 -20 c-54 -27 -153 -28 -198 0 -66 40 -89 116 -56 185 27 59 92
87 185 81 31 -2 72 -11 91 -20z m-1132 -6 c22 -22 26 -60 10 -90 -7 -13 -6
-21 5 -30 38 -32 20 -121 -27 -134 -13 -3 -87 -6 -165 -6 l-143 0 0 140 0 140
150 0 c137 0 152 -2 170 -20z m120 -69 c0 -81 3 -93 24 -118 23 -26 29 -28
105 -28 70 0 83 3 103 23 20 20 23 35 26 117 4 93 5 95 28 95 24 0 24 -2 24
-87 0 -150 -40 -193 -178 -193 -143 0 -182 40 -182 188 0 92 0 92 25 92 25 0
25 -1 25 -89z m647 55 c33 -30 37 -39 40 -92 3 -47 0 -66 -17 -92 -31 -50 -71
-62 -205 -62 l-115 0 0 140 0 140 130 0 130 0 37 -34z m758 -83 c38 -65 75
-128 83 -140 14 -22 13 -23 -15 -23 -24 0 -34 7 -49 35 l-19 35 -101 0 -101 0
-19 -35 c-15 -27 -25 -35 -47 -35 l-29 0 22 38 c12 20 50 83 83 140 56 95 62
102 92 102 29 0 35 -7 100 -117z m180 60 l0 -58 138 -3 137 -3 0 61 c0 57 1
60 25 60 l25 0 0 -140 0 -140 -25 0 c-24 0 -25 3 -25 60 l0 60 -140 0 -140 0
0 -60 c0 -57 -1 -60 -25 -60 l-25 0 0 140 0 140 28 0 c26 0 27 -1 27 -57z
m514 -54 c68 -108 70 -110 84 -87 129 205 124 198 167 198 l40 0 0 -140 0
-140 -25 0 c-24 0 -24 0 -27 115 l-3 114 -71 -112 c-96 -152 -97 -152 -191 0
l-73 117 0 -117 0 -117 -25 0 -25 0 0 140 0 140 39 0 c39 0 40 0 110 -111z"/>
<path d="M192 923 l3 -38 97 -3 c113 -3 141 6 136 46 l-3 27 -118 3 -118 3 3
-38z"/>
<path d="M190 800 l0 -40 120 0 c110 0 120 2 130 20 6 12 8 30 5 40 -6 18 -16
20 -131 20 l-124 0 0 -40z"/>
<path d="M980 860 l0 -100 79 0 c87 0 137 13 151 40 6 10 10 39 10 65 0 35 -6
51 -25 70 -22 23 -32 25 -120 25 l-95 0 0 -100z"/>
<path d="M1868 928 c-8 -13 -24 -40 -37 -60 l-23 -38 76 0 75 0 -30 53 c-41
70 -44 72 -61 45z"/>
</g>
</svg>
