<?xml version="1.0" standalone="no"?>
<!DOCTYPE svg PUBLIC "-//W3C//DTD SVG 20010904//EN"
 "http://www.w3.org/TR/2001/REC-SVG-20010904/DTD/svg10.dtd">
<svg version="1.0" xmlns="http://www.w3.org/2000/svg"
 width="3840.000000pt" height="2160.000000pt" viewBox="0 0 3840.000000 2160.000000"
 preserveAspectRatio="xMidYMid meet">

<g transform="translate(0.000000,2160.000000) scale(0.100000,-0.100000)"
fill="#000000" stroke="none">
<path d="M15145 14135 c-192 -41 -362 -74 -377 -75 -25 0 -280 -51 -1126 -225
-173 -36 -325 -65 -339 -65 -14 0 -219 -40 -456 -89 -459 -94 -923 -187 -1227
-245 -405 -77 -1158 -235 -1176 -246 -17 -12 -126 -169 -183 -265 -13 -22 -26
-42 -30 -45 -8 -6 -105 -131 -114 -147 -4 -6 133 24 304 68 171 43 319 79 329
79 10 0 175 41 367 91 191 50 450 117 575 150 125 32 237 59 249 59 12 0 70
13 128 29 300 84 952 255 996 261 28 4 77 15 110 25 33 9 116 31 185 50 69 18
193 52 275 75 83 22 233 64 335 92 102 28 208 54 235 59 52 8 87 18 350 92
609 173 663 188 715 197 25 5 106 26 180 47 135 38 135 38 135 68 0 29 -2 30
-45 32 -25 1 -202 -32 -395 -72z"/>
<path d="M10731 14004 c0 -11 3 -14 6 -6 3 7 2 16 -1 19 -3 4 -6 -2 -5 -13z"/>
<path d="M9139 13563 c-13 -16 -12 -17 4 -4 16 13 21 21 13 21 -2 0 -10 -8
-17 -17z"/>
<path d="M35325 13259 c-156 -15 -378 -59 -535 -106 -119 -35 -339 -150 -428
-223 -41 -33 -78 -60 -83 -60 -4 0 -44 -41 -87 -91 -129 -147 -224 -353 -258
-559 -18 -107 -18 -312 0 -410 16 -91 63 -215 111 -294 19 -32 35 -63 35 -68
0 -16 158 -168 225 -219 33 -24 65 -48 71 -54 28 -26 255 -125 385 -169 86
-29 225 -65 349 -90 475 -98 667 -153 791 -227 95 -57 127 -85 172 -149 30
-42 32 -50 32 -135 0 -79 -4 -97 -29 -148 -56 -115 -174 -191 -359 -230 -88
-18 -135 -21 -342 -21 -257 0 -357 11 -590 69 -125 31 -409 125 -413 136 -2 5
-11 9 -19 9 -8 0 -74 24 -147 52 -72 29 -135 53 -140 53 -5 0 -67 -173 -137
-385 -92 -277 -124 -387 -116 -392 62 -40 536 -203 631 -218 28 -4 119 -21
201 -38 550 -112 1198 -92 1725 55 117 32 311 130 415 207 39 28 86 62 105 73
85 52 266 274 325 398 121 257 148 582 69 845 -25 82 -80 202 -108 238 -163
201 -206 241 -343 313 -43 23 -85 47 -93 54 -18 15 -126 63 -252 111 -119 45
-314 100 -424 120 -48 8 -143 28 -213 44 -69 17 -175 42 -236 56 -152 36 -291
81 -345 112 -126 72 -164 132 -164 257 0 100 29 147 154 249 39 32 172 74 286
91 174 26 434 3 694 -61 140 -35 433 -140 533 -191 27 -14 49 -23 51 -21 8 12
58 123 74 164 11 27 50 116 86 197 36 82 66 155 66 164 0 8 16 48 35 90 19 42
35 80 35 84 0 32 -331 173 -510 217 -166 40 -441 86 -615 102 -126 11 -551 11
-670 -1z"/>
<path d="M19930 11235 l0 -1935 1335 0 1335 0 0 395 0 395 -795 0 -795 0 0
425 0 425 660 0 660 0 0 380 0 380 -660 0 -660 0 0 355 0 355 790 0 790 0 0
380 0 380 -1330 0 -1330 0 0 -1935z"/>
<path d="M15020 12775 l0 -385 565 0 565 0 2 -1542 3 -1543 548 -3 547 -2 0
1545 0 1545 565 0 565 0 0 385 0 385 -1680 0 -1680 0 0 -385z"/>
<path d="M24540 11235 l0 -1925 1380 0 1380 0 0 380 0 380 -830 0 -830 0 0
1545 0 1545 -550 0 -550 0 0 -1925z"/>
<path d="M28640 11772 c0 -930 4 -1424 11 -1497 10 -97 19 -140 64 -295 25
-88 193 -310 276 -365 9 -5 45 -32 82 -59 36 -27 107 -72 159 -99 100 -53 295
-127 332 -127 12 0 58 -9 101 -20 43 -11 140 -29 216 -40 463 -68 1014 -36
1414 82 107 31 325 140 417 207 46 33 100 73 122 88 40 30 156 158 156 173 0
5 17 35 37 67 50 78 90 187 110 297 14 81 16 246 17 1531 l1 1440 -562 3 -563
2 0 -1302 c0 -717 -3 -1328 -6 -1358 -18 -201 -64 -288 -200 -380 -186 -125
-609 -131 -827 -12 -98 53 -162 137 -194 252 -16 60 -17 166 -20 1433 l-4
1367 -569 0 -570 0 0 -1388z"/>
<path d="M8604 13088 l-19 -23 23 19 c12 11 22 21 22 23 0 8 -8 2 -26 -19z"/>
<path d="M9550 13025 c-409 -86 -399 -84 -529 -116 -62 -16 -127 -29 -145 -29
-17 0 -92 -14 -166 -31 -285 -65 -386 -87 -425 -94 -22 -3 -211 -44 -421 -91
-209 -46 -392 -84 -406 -84 -21 0 -197 -37 -448 -95 -308 -70 -887 -195 -905
-195 -19 0 -493 -101 -610 -130 -130 -32 -770 -170 -790 -170 -20 0 -572 -118
-700 -150 -124 -31 -635 -140 -655 -140 -28 0 -780 -164 -834 -182 -43 -15
-42 -14 -136 -263 -27 -71 -74 -194 -105 -273 -59 -153 -63 -172 -40 -172 8 0
275 65 592 145 318 80 586 145 597 145 11 0 281 66 600 147 320 80 604 149
631 153 28 3 316 72 640 152 1199 297 1780 439 1797 439 9 -1 132 29 275 65
678 174 920 234 940 234 13 0 42 5 65 10 24 6 214 53 423 104 209 51 421 103
471 114 50 12 107 31 125 44 43 29 270 270 281 297 4 12 12 21 17 21 5 0 42
39 82 88 40 48 79 95 87 105 8 9 11 17 6 16 -5 0 -146 -29 -314 -64z"/>
<path d="M8294 12798 l-19 -23 23 19 c12 11 22 21 22 23 0 8 -8 2 -26 -19z"/>
<path d="M9004 12188 l-19 -23 23 19 c12 11 22 21 22 23 0 8 -8 2 -26 -19z"/>
<path d="M8204 12108 l-19 -23 23 19 c21 18 27 26 19 26 -2 0 -12 -10 -23 -22z"/>
<path d="M7559 12043 c-13 -16 -12 -17 4 -4 9 7 17 15 17 17 0 8 -8 3 -21 -13z"/>
<path d="M9339 11903 c-13 -16 -12 -17 4 -4 16 13 21 21 13 21 -2 0 -10 -8
-17 -17z"/>
<path d="M5741 8974 c0 -11 3 -14 6 -6 3 7 2 16 -1 19 -3 4 -6 -2 -5 -13z"/>
<path d="M5741 8824 c0 -11 3 -14 6 -6 3 7 2 16 -1 19 -3 4 -6 -2 -5 -13z"/>
<path d="M7198 8213 c6 -2 18 -2 25 0 6 3 1 5 -13 5 -14 0 -19 -2 -12 -5z"/>
<path d="M7348 8213 c7 -3 16 -2 19 1 4 3 -2 6 -13 5 -11 0 -14 -3 -6 -6z"/>
<path d="M7428 7733 c7 -3 16 -2 19 1 4 3 -2 6 -13 5 -11 0 -14 -3 -6 -6z"/>
<path d="M7048 7723 c7 -3 16 -2 19 1 4 3 -2 6 -13 5 -11 0 -14 -3 -6 -6z"/>
<path d="M7298 7723 c7 -3 16 -2 19 1 4 3 -2 6 -13 5 -11 0 -14 -3 -6 -6z"/>
</g>
</svg>
