<?xml version="1.0" standalone="no"?>
<!DOCTYPE svg PUBLIC "-//W3C//DTD SVG 20010904//EN"
 "http://www.w3.org/TR/2001/REC-SVG-20010904/DTD/svg10.dtd">
<svg version="1.0" xmlns="http://www.w3.org/2000/svg"
 width="1267.000000pt" height="332.000000pt" viewBox="0 0 1267.000000 332.000000"
 preserveAspectRatio="xMidYMid meet">

<g transform="translate(0.000000,332.000000) scale(0.100000,-0.100000)"
fill="#000000" stroke="none">
<path d="M2345 3185 c-1111 -73 -2046 -135 -2078 -137 -41 -3 -64 -10 -78 -25
-27 -26 -195 -678 -185 -717 4 -15 15 -35 26 -46 20 -20 37 -20 1905 -18
l1885 3 34 35 c19 20 147 244 305 533 149 274 271 500 271 503 0 6 77 11
-2085 -131z m685 -147 c-1 -34 -57 -202 -70 -209 -8 -5 -68 -32 -132 -60 -65
-28 -122 -56 -127 -63 -7 -8 19 -35 89 -91 55 -44 99 -83 100 -87 0 -5 -37 -8
-81 -8 l-81 0 -69 61 -69 61 -48 -38 c-26 -21 -94 -83 -151 -138 -57 -56 -101
-93 -98 -84 3 9 11 35 17 58 11 40 75 125 166 220 l44 46 -76 64 -76 65 72 3
c69 3 75 1 111 -28 l39 -31 67 54 c83 66 150 110 266 171 93 49 107 53 107 34z
m700 -202 c13 -23 13 -29 0 -53 -21 -37 -83 -45 -100 -13 -43 81 55 146 100
66z m-2022 -10 c62 -32 62 -57 6 -253 l-15 -53 -55 0 c-33 0 -54 4 -54 11 0 6
12 54 26 106 14 52 23 101 20 109 -18 47 -155 55 -236 14 -51 -26 -62 -45 -91
-152 l-24 -88 -57 0 c-32 0 -58 1 -58 3 1 1 20 72 43 157 l42 155 58 3 c56 3
58 2 52 -18 -7 -21 -6 -21 24 -6 51 27 102 35 196 32 62 -1 100 -8 123 -20z
m511 13 c60 -13 101 -42 101 -72 0 -12 -12 -73 -27 -134 l-28 -113 -47 0 c-41
0 -48 3 -48 20 0 24 -3 24 -40 5 -81 -42 -272 -40 -330 3 -37 28 -38 71 -3
104 47 44 113 60 271 66 129 4 142 6 142 23 0 10 -12 26 -27 36 -35 23 -159
22 -226 -1 -47 -17 -48 -16 -79 5 l-31 22 24 10 c90 34 254 46 348 26z m1323
1 c52 -15 55 -26 11 -49 -36 -18 -43 -18 -92 -5 -85 22 -191 -10 -154 -47 5
-5 47 -17 94 -25 46 -9 96 -23 111 -30 58 -30 42 -97 -33 -135 -80 -42 -253
-47 -335 -9 l-39 17 47 23 c43 22 50 22 74 9 42 -22 157 -19 183 5 32 29 11
44 -94 67 -107 23 -135 39 -135 78 0 45 54 84 145 104 39 9 181 7 217 -3z
m-2912 -3 c0 -2 -7 -27 -16 -56 -8 -29 -13 -55 -10 -59 3 -3 64 23 136 57 128
61 132 62 204 59 l74 -3 -149 -69 c-82 -38 -149 -71 -149 -75 0 -3 55 -42 122
-86 l122 -80 -78 -3 -77 -3 -99 71 c-55 39 -105 73 -113 76 -10 3 -19 -16 -32
-71 l-19 -75 -59 0 c-43 0 -57 3 -54 13 3 6 22 78 43 160 l39 147 57 0 c32 0
58 -1 58 -3z m505 -154 l-42 -158 -57 -3 c-31 -2 -56 0 -56 3 0 4 19 76 41
161 l42 154 57 0 57 0 -42 -157z m1974 50 c-16 -60 -35 -130 -42 -158 l-13
-50 -58 -3 c-52 -3 -58 -1 -54 15 3 10 22 82 43 161 l38 142 57 0 58 0 -29
-107z"/>
<path d="M3668 2853 c7 -3 16 -2 19 1 4 3 -2 6 -13 5 -11 0 -14 -3 -6 -6z"/>
<path d="M3700 2817 c0 -23 4 -36 10 -32 13 8 13 35 0 55 -7 11 -10 5 -10 -23z"/>
<path d="M3634 2826 c-3 -8 -1 -23 5 -33 9 -15 10 -13 11 15 0 34 -7 42 -16
18z"/>
<path d="M3670 2783 c0 -13 5 -23 10 -23 13 0 13 11 0 30 -8 12 -10 11 -10 -7z"/>
<path d="M1967 2659 c-55 -13 -77 -27 -77 -50 0 -26 37 -39 116 -39 69 0 125
18 161 52 43 40 31 48 -69 47 -51 -1 -110 -5 -131 -10z"/>
<path d="M3160 1569 c-298 -46 -497 -245 -567 -569 -23 -111 -24 -362 0 -466
72 -318 254 -488 563 -526 114 -14 230 -2 349 36 112 36 171 75 186 124 14 48
8 197 -9 214 -9 9 -35 0 -127 -47 l-116 -60 -112 -3 c-96 -3 -120 -1 -169 18
-117 44 -201 154 -233 305 -19 90 -19 290 0 380 31 146 114 262 223 313 50 23
69 26 152 26 109 -1 170 -20 266 -82 76 -49 90 -54 107 -37 38 37 30 208 -11
256 -73 88 -321 146 -502 118z"/>
<path d="M4525 1566 c-308 -60 -490 -250 -550 -571 -24 -127 -17 -406 14 -520
81 -305 274 -453 617 -472 277 -15 501 71 631 242 101 132 150 289 160 505 9
213 -17 363 -88 509 -75 153 -192 244 -374 292 -103 27 -310 34 -410 15z m253
-251 c58 -7 133 -46 176 -91 82 -84 117 -213 118 -424 0 -275 -69 -433 -221
-507 -52 -26 -65 -28 -181 -28 -117 0 -129 2 -182 28 -111 55 -167 149 -195
327 -18 112 -12 300 12 399 41 168 157 281 309 300 60 8 78 8 164 -4z"/>
<path d="M8010 1569 c-242 -37 -425 -181 -516 -407 -60 -149 -83 -329 -66
-504 36 -349 185 -550 467 -629 62 -18 107 -23 200 -23 143 -1 242 20 348 73
96 48 109 73 105 198 -2 55 -8 97 -15 104 -10 10 -37 0 -128 -47 l-116 -59
-112 -3 c-136 -5 -199 15 -276 84 -95 85 -141 222 -141 422 0 261 79 431 238
509 51 25 67 28 152 27 109 -1 170 -20 266 -82 77 -49 90 -54 108 -37 19 19
30 104 21 171 -5 40 -14 64 -36 88 -76 87 -318 143 -499 115z"/>
<path d="M220 1553 c-52 -11 -50 26 -50 -763 0 -674 1 -739 17 -751 22 -19
238 -20 271 -1 l22 13 0 739 0 739 -22 13 c-23 12 -193 21 -238 11z"/>
<path d="M1961 1551 c-18 -5 -38 -15 -43 -23 -5 -7 -7 -241 -6 -539 l3 -526
-106 211 c-137 273 -404 772 -434 812 -41 54 -77 64 -229 64 -83 0 -145 -5
-161 -12 -56 -25 -55 -6 -55 -776 0 -648 1 -711 17 -723 23 -20 223 -20 247 0
15 13 17 59 14 582 -2 312 0 565 3 561 4 -4 26 -50 49 -102 57 -124 494 -945
526 -987 38 -50 73 -63 182 -70 114 -6 172 6 201 44 21 25 21 35 21 743 0 622
-2 719 -15 730 -18 15 -167 22 -214 11z"/>
<path d="M6823 1551 c-70 -18 -65 21 -61 -562 l3 -527 -101 201 c-115 231
-406 778 -437 821 -37 52 -85 66 -239 66 l-138 0 -32 -29 -33 -29 -3 -704 c-1
-387 0 -713 3 -725 4 -16 17 -26 48 -34 52 -14 190 -7 212 11 14 12 15 73 13
586 -2 315 -1 571 0 569 2 -2 23 -47 48 -101 51 -115 484 -931 525 -990 44
-64 83 -78 219 -79 127 0 162 12 180 61 6 15 10 308 10 734 l0 709 -21 11
c-27 15 -154 22 -196 11z"/>
<path d="M8925 1525 l-25 -24 0 -711 0 -711 25 -24 24 -25 415 0 414 0 12 36
c15 45 9 166 -9 188 -12 14 -47 16 -292 16 l-279 0 0 215 0 215 234 0 c278 0
266 -6 266 120 0 126 12 120 -266 120 l-234 0 0 185 0 185 280 0 c273 0 280 0
291 21 14 28 15 170 0 197 l-12 22 -410 0 -410 0 -24 -25z"/>
<path d="M10225 1525 l-25 -24 0 -724 c0 -612 2 -726 14 -736 35 -29 251 -25
281 5 13 13 15 62 15 310 l0 294 70 0 c164 0 203 -47 351 -417 39 -98 77 -185
85 -193 21 -21 273 -22 298 -1 25 21 18 46 -75 265 -126 297 -153 343 -240
406 l-37 26 74 38 c130 67 199 170 211 318 15 180 -63 327 -211 397 -108 52
-183 61 -501 61 l-286 0 -24 -25z m570 -226 c133 -38 179 -226 82 -336 -51
-58 -103 -75 -244 -81 l-123 -5 0 223 0 223 123 -6 c67 -4 140 -11 162 -18z"/>
<path d="M11519 1533 c-18 -21 -19 -179 -1 -210 13 -23 16 -23 212 -23 l200 0
0 -625 0 -624 23 -13 c14 -8 61 -13 132 -13 71 0 118 5 133 13 l22 13 0 624 0
625 199 0 c172 0 200 2 212 17 10 11 14 45 14 108 0 63 -4 97 -14 108 -12 15
-64 17 -566 17 -502 0 -554 -2 -566 -17z"/>
</g>
</svg>
