<?xml version="1.0" standalone="no"?>
<!DOCTYPE svg PUBLIC "-//W3C//DTD SVG 20010904//EN"
 "http://www.w3.org/TR/2001/REC-SVG-20010904/DTD/svg10.dtd">
<svg version="1.0" xmlns="http://www.w3.org/2000/svg"
 width="1000.000000pt" height="233.000000pt" viewBox="0 0 1000.000000 233.000000"
 preserveAspectRatio="xMidYMid meet">

<g transform="translate(0.000000,233.000000) scale(0.100000,-0.100000)"
fill="#000000" stroke="none">
<path d="M4750 2319 c-214 -26 -455 -135 -554 -251 -20 -23 -49 -67 -64 -98
-25 -51 -27 -65 -27 -175 0 -107 3 -127 26 -183 49 -115 93 -174 251 -338 86
-89 166 -180 177 -202 55 -107 -7 -236 -104 -218 -65 12 -92 74 -69 158 7 29
14 69 14 88 0 109 -141 175 -250 117 -61 -32 -83 -75 -77 -154 5 -74 37 -135
98 -187 59 -50 115 -66 231 -66 191 0 284 63 345 234 19 54 18 205 -1 279 -18
65 -67 167 -90 186 -31 26 -17 34 53 29 90 -7 124 -30 164 -116 28 -60 31 -76
38 -221 9 -182 25 -243 77 -296 37 -37 153 -100 171 -94 5 2 94 73 197 158
144 119 183 156 171 163 -11 6 -31 -1 -63 -22 -62 -39 -106 -40 -144 -2 -37
38 -51 92 -59 237 -5 82 -13 130 -24 152 -21 40 -79 88 -139 115 -27 12 -46
23 -45 25 2 1 71 12 153 24 82 12 152 24 155 28 13 13 -21 156 -51 217 -33 68
-101 142 -165 179 -120 71 -312 72 -416 2 -84 -57 -159 -225 -159 -358 0 -38
-4 -69 -9 -69 -5 0 -19 33 -32 73 -35 105 -34 230 3 309 72 155 221 236 417
226 157 -8 273 -61 392 -179 88 -87 135 -181 157 -313 11 -71 19 -96 30 -96
22 0 10 120 -22 210 -35 102 -80 172 -166 260 -81 83 -156 127 -263 154 -76
20 -233 27 -327 15z m124 -422 c48 -28 83 -92 98 -181 6 -37 9 -69 6 -72 -9
-9 -351 -74 -357 -68 -3 3 -8 48 -9 101 -6 145 21 201 110 228 63 20 108 18
152 -8z"/>
<path d="M0 1540 l0 -670 175 0 175 0 2 222 3 223 225 6 c194 5 233 9 282 27
154 56 234 162 259 343 29 210 -46 380 -203 460 -107 54 -148 59 -550 59
l-368 0 0 -670z m690 368 c63 -32 93 -92 86 -167 -5 -58 -24 -91 -70 -125 -25
-19 -44 -21 -192 -24 l-164 -3 0 170 0 171 148 0 c133 0 152 -2 192 -22z"/>
<path d="M6830 1540 l0 -670 165 0 165 0 0 670 0 670 -165 0 -164 0 -1 -670z"/>
<path d="M7450 1990 l0 -150 -80 0 -80 0 0 -100 0 -100 79 0 79 0 4 -292 c4
-246 7 -300 22 -338 38 -100 108 -140 261 -148 56 -2 132 -1 168 2 l67 8 0
113 0 113 -75 4 c-61 3 -79 7 -97 26 -23 22 -23 27 -23 265 l0 242 98 3 97 3
0 99 0 99 -97 3 -98 3 -3 148 -3 147 -159 0 -160 0 0 -150z"/>
<path d="M1509 1851 c-131 -42 -249 -142 -304 -256 -99 -210 -55 -471 106
-619 99 -92 214 -136 354 -136 261 0 458 156 510 406 57 271 -103 542 -360
609 -81 21 -234 19 -306 -4z m224 -235 c46 -19 94 -78 112 -138 20 -67 19
-180 -1 -248 -51 -172 -260 -198 -335 -43 -28 58 -38 205 -20 280 32 127 140
193 244 149z"/>
<path d="M2779 1857 c-53 -20 -105 -54 -134 -88 l-25 -31 0 56 0 56 -155 0
-155 0 2 -652 3 -653 158 -3 157 -3 0 211 c0 115 3 210 6 210 4 0 26 -17 49
-39 141 -130 418 -98 532 61 77 108 105 204 104 359 0 130 -19 219 -67 309
-46 88 -104 146 -184 184 -56 26 -78 31 -160 33 -62 2 -108 -1 -131 -10z m137
-262 c70 -53 104 -173 84 -298 -12 -79 -30 -119 -73 -165 -75 -78 -218 -59
-266 37 -22 42 -41 135 -41 196 0 61 27 155 57 193 56 74 168 91 239 37z"/>
<path d="M9797 1840 c-67 -26 -112 -63 -144 -118 l-28 -47 -3 83 -3 82 -154 0
-155 0 0 -485 0 -485 165 0 164 0 3 284 3 284 30 44 c20 28 49 53 85 71 52 27
60 28 148 24 l92 -5 0 144 0 144 -77 0 c-52 -1 -94 -7 -126 -20z"/>
<path d="M5630 1548 c0 -287 9 -427 30 -499 25 -86 105 -165 194 -191 23 -7
82 -12 131 -12 114 0 183 25 260 96 l55 50 0 -61 0 -61 155 0 155 0 0 485 0
485 -162 0 -163 0 2 -277 c3 -320 -3 -360 -62 -412 -19 -16 -52 -35 -72 -40
-47 -12 -116 0 -145 25 -45 41 -48 65 -48 394 l0 310 -165 0 -165 0 0 -292z"/>
<path d="M8112 1478 c5 -401 8 -421 71 -514 41 -60 110 -99 205 -116 129 -22
251 13 340 99 25 23 47 43 50 43 2 0 2 -27 0 -60 l-3 -60 158 0 157 0 0 485 0
485 -165 0 -166 0 2 -298 c1 -285 1 -300 -19 -339 -54 -105 -187 -132 -266
-54 l-31 31 -3 330 -3 330 -165 0 -166 0 4 -362z"/>
<path d="M3713 1579 l-183 -60 0 -139 c0 -77 3 -140 7 -140 5 0 90 27 190 61
l183 61 0 139 c0 76 -3 139 -7 138 -5 0 -90 -27 -190 -60z"/>
</g>
</svg>
