<?xml version="1.0" standalone="no"?>
<!DOCTYPE svg PUBLIC "-//W3C//DTD SVG 20010904//EN"
 "http://www.w3.org/TR/2001/REC-SVG-20010904/DTD/svg10.dtd">
<svg version="1.0" xmlns="http://www.w3.org/2000/svg"
 width="1618.000000pt" height="1618.000000pt" viewBox="0 0 1618.000000 1618.000000"
 preserveAspectRatio="xMidYMid meet">

<g transform="translate(0.000000,1618.000000) scale(0.100000,-0.100000)"
fill="#000000" stroke="none">
<path d="M7398 14856 c-24 -18 -38 -59 -38 -110 0 -33 -23 -91 -104 -262 -138
-294 -174 -355 -684 -1164 -596 -945 -819 -1314 -1067 -1760 -86 -157 -291
-508 -455 -780 -483 -804 -1013 -1719 -1215 -2095 -134 -250 -203 -364 -500
-835 -446 -705 -488 -778 -735 -1260 -108 -212 -222 -430 -253 -485 -67 -122
-112 -222 -227 -510 -112 -283 -157 -380 -421 -905 -186 -371 -252 -491 -449
-815 -301 -495 -374 -624 -403 -715 -31 -97 -51 -203 -43 -234 8 -31 63 -51
115 -42 20 4 180 14 356 23 233 11 666 17 1590 23 l1270 7 340 28 c453 37 656
37 1425 -4 353 -18 777 -34 995 -37 209 -3 466 -12 570 -20 281 -22 645 -29
820 -15 166 13 228 6 305 -32 44 -21 54 -22 390 -23 281 0 385 -4 560 -22 832
-85 868 -87 2115 -87 1125 1 1141 1 1740 50 214 17 383 25 545 25 129 0 434 5
678 12 361 10 445 10 451 -1 6 -10 36 -12 119 -9 89 2 114 6 130 21 51 46 55
220 8 320 -15 30 -70 111 -123 179 -112 144 -175 236 -228 333 -145 266 -300
498 -603 902 -529 707 -1004 1373 -1569 2203 -88 129 -214 312 -281 405 -67
94 -167 247 -224 340 -287 478 -801 1241 -1233 1830 -331 452 -396 549 -579
863 -438 751 -1310 2105 -1862 2892 -304 433 -419 609 -567 867 -87 152 -113
191 -212 323 -158 210 -236 348 -269 475 -20 78 -58 115 -119 115 -23 0 -50
-6 -59 -14z m161 -441 c41 -66 134 -246 206 -400 397 -841 514 -1096 519
-1127 4 -21 0 -46 -11 -70 -18 -38 -876 -1034 -1346 -1562 -314 -353 -424
-482 -827 -971 -627 -760 -812 -968 -1782 -2000 -488 -520 -643 -674 -723
-719 -22 -12 -97 -49 -168 -83 -126 -62 -127 -62 -121 -35 12 52 708 1258
1231 2132 737 1231 771 1289 948 1610 175 315 266 468 530 890 235 376 553
896 903 1479 200 332 310 527 368 650 115 244 164 332 183 329 9 -2 49 -57 90
-123z m1088 -1657 c118 -156 560 -781 632 -893 736 -1147 908 -1427 1131
-1840 124 -231 205 -353 420 -640 198 -263 323 -438 575 -805 103 -151 223
-322 265 -380 95 -128 127 -191 146 -283 8 -38 20 -79 26 -91 25 -46 646
-1001 853 -1311 354 -531 427 -628 805 -1070 409 -479 604 -741 945 -1268 88
-136 290 -435 448 -665 262 -379 337 -495 337 -520 0 -5 -19 -16 -42 -25 -37
-13 -148 -16 -813 -21 -855 -5 -1357 -23 -1480 -52 -133 -31 -174 -5 -199 129
-9 43 -34 121 -57 175 -107 251 -487 1099 -659 1472 -106 228 -275 594 -376
813 -102 219 -212 466 -245 550 -33 84 -102 244 -154 357 -51 113 -194 444
-318 735 -124 292 -273 638 -332 770 -171 383 -183 410 -204 482 -12 37 -27
107 -36 155 -13 80 -29 116 -204 466 -264 527 -324 665 -658 1505 -244 614
-316 789 -604 1459 -148 345 -275 655 -283 688 -13 57 -12 84 9 148 9 25 34
11 72 -40z m-189 -303 c38 -88 81 -193 96 -233 57 -158 105 -392 141 -677 21
-169 46 -299 101 -519 53 -214 55 -254 17 -296 -40 -43 -565 -399 -773 -524
-298 -178 -1129 -635 -1861 -1022 -649 -343 -648 -342 -1244 -745 -261 -177
-365 -239 -365 -218 0 6 83 93 184 193 168 166 309 323 477 531 110 138 214
252 448 495 383 400 501 539 786 930 280 383 356 478 884 1100 737 868 1011
1174 1030 1155 5 -6 41 -82 79 -170z m564 -1355 c234 -714 442 -1214 1016
-2436 399 -850 511 -1108 702 -1614 143 -378 391 -944 721 -1645 311 -662 355
-761 809 -1815 300 -694 274 -629 261 -656 -17 -38 -64 -32 -117 15 -30 26
-67 45 -116 61 -40 12 -226 75 -413 140 -329 113 -498 168 -1160 376 -328 102
-371 118 -380 142 -3 8 -10 65 -15 126 -5 61 -20 186 -34 278 -14 92 -32 243
-41 335 -27 296 -64 512 -150 888 -109 471 -315 1623 -405 2260 -44 309 -54
362 -100 521 -16 56 -37 146 -46 200 -8 54 -49 250 -90 434 -40 184 -101 486
-135 670 -68 373 -100 524 -254 1170 -127 536 -121 512 -140 630 -19 123 -19
132 3 128 13 -2 34 -54 84 -208z m-102 -668 c15 -175 33 -657 26 -694 -4 -22
-16 -42 -31 -52 -29 -19 -603 -218 -1155 -401 -618 -204 -957 -335 -1500 -580
-118 -54 -294 -131 -390 -172 -315 -135 -1164 -475 -1190 -476 -16 -1 -25 4
-28 16 -2 9 2 17 9 17 7 0 168 103 359 229 190 126 395 259 455 296 136 81
458 244 800 405 542 255 823 408 1485 807 620 375 792 483 913 576 68 52 145
109 172 126 61 39 64 35 75 -97z m236 -1159 c13 -103 40 -273 59 -378 36 -188
49 -252 184 -850 74 -331 147 -701 315 -1605 58 -311 141 -741 185 -957 44
-215 94 -472 110 -570 64 -378 160 -1087 149 -1098 -11 -12 -1009 441 -1047
475 -21 18 -23 26 -16 68 4 26 10 130 14 232 5 110 15 217 25 265 26 119 23
322 -18 1035 -67 1153 -77 1315 -117 1770 -31 361 -27 453 31 621 23 69 26
112 50 702 11 263 22 483 26 488 16 26 28 -21 50 -198z m-289 127 c9 -20 5
-67 -23 -250 -44 -293 -51 -326 -82 -383 -49 -92 -130 -137 -287 -161 -316
-49 -625 -77 -1285 -116 -179 -10 -503 -36 -721 -56 -375 -36 -447 -38 -422
-13 15 15 488 188 1161 425 938 330 993 350 1166 424 226 98 403 160 446 157
26 -1 38 -8 47 -27z m-238 -959 c18 -12 16 -64 -5 -127 -9 -27 -65 -147 -125
-267 -91 -180 -114 -219 -137 -228 -33 -13 -4 -20 -397 91 -418 117 -567 164
-1032 330 -58 21 -39 36 75 60 87 18 158 24 382 31 198 6 328 15 465 33 105
14 282 37 395 51 113 13 219 26 235 28 58 8 130 7 144 -2z m-2294 -187 c22 -9
28 -22 168 -369 173 -429 572 -1538 565 -1572 -5 -25 -417 495 -724 912 -256
347 -691 981 -681 991 4 4 513 40 604 43 28 0 59 -2 68 -5z m-847 -121 c11
-10 116 -151 234 -313 118 -162 409 -562 647 -888 457 -627 706 -986 695
-1003 -4 -7 -12 -5 -22 4 -10 7 -57 47 -107 88 -49 41 -155 135 -235 209 -427
396 -893 787 -1329 1113 -96 72 -199 152 -230 177 -79 66 -354 320 -364 335
-5 10 8 18 45 31 53 17 237 101 458 207 124 60 174 69 208 40z m1355 -53 c142
-46 190 -66 201 -83 12 -19 13 -86 5 -457 -10 -457 -13 -504 -32 -497 -10 3
-416 1066 -417 1090 0 18 68 3 243 -53z m861 -266 c204 -63 391 -124 414 -135
l44 -19 -29 -23 c-116 -95 -855 -647 -867 -647 -40 0 -43 384 -6 798 11 114
21 142 51 142 12 0 188 -52 393 -116z m-3130 -44 c125 -139 196 -198 591 -501
377 -288 438 -337 635 -514 91 -82 392 -337 670 -568 278 -231 533 -447 568
-481 35 -33 95 -102 133 -152 82 -110 184 -207 334 -318 114 -86 164 -132 115
-106 -42 22 -3965 2163 -3969 2166 -8 7 84 116 143 171 71 66 155 122 281 186
50 26 155 89 235 141 80 52 148 95 151 95 3 1 54 -53 113 -119z m4036 26 c0
-12 -50 -197 -110 -411 -152 -534 -211 -770 -345 -1378 -111 -501 -125 -560
-182 -744 l-25 -82 -102 90 c-57 49 -138 130 -182 180 -168 192 -168 197 -53
389 94 157 203 377 353 715 59 132 190 402 292 600 102 198 220 430 262 517
42 86 80 154 84 151 5 -2 8 -14 8 -27z m154 -163 c8 -20 51 -549 66 -798 5
-99 17 -349 25 -555 8 -206 22 -490 32 -630 15 -226 15 -283 4 -500 -11 -197
-11 -284 -1 -442 11 -178 10 -199 -5 -231 -18 -39 -37 -51 -69 -41 -43 13
-631 495 -690 565 -36 42 -33 76 14 232 52 167 117 427 170 677 160 751 312
1413 362 1570 30 94 65 170 79 170 4 0 10 -7 13 -17z m-681 -349 c-3 -18 -283
-643 -350 -784 -75 -156 -206 -398 -270 -499 l-40 -62 -25 58 c-82 184 -238
593 -238 624 0 27 8 43 33 66 28 27 677 484 817 575 52 34 77 42 73 22z
m-4818 -41 c30 -15 55 -31 55 -36 0 -5 -26 -41 -58 -80 -32 -40 -139 -175
-237 -302 -187 -240 -217 -275 -235 -275 -5 0 -10 9 -10 21 0 23 194 417 232
472 36 51 182 226 190 226 4 1 32 -11 63 -26z m635 -308 c1033 -532 1078 -556
1762 -936 598 -332 1110 -622 1718 -972 777 -447 1261 -705 1655 -881 206 -92
314 -160 291 -183 -11 -11 -246 58 -421 124 -575 218 -613 230 -1210 382 -584
148 -1164 330 -1945 609 -590 211 -1001 327 -1727 491 -149 34 -374 90 -500
125 -125 35 -361 100 -523 145 -288 79 -370 106 -370 122 0 4 33 49 73 101
240 307 463 599 596 783 85 116 165 220 180 233 48 43 85 30 421 -143z m-665
-1391 c869 -246 830 -234 1133 -354 125 -49 255 -95 288 -102 32 -6 77 -22 98
-36 76 -47 181 -84 390 -137 116 -30 369 -97 561 -150 336 -92 863 -225 1330
-335 685 -163 1439 -396 1994 -616 497 -198 764 -278 1141 -344 314 -55 483
-105 1078 -321 396 -144 494 -174 615 -184 83 -7 127 -22 127 -41 0 -21 -87
-18 -593 16 -243 16 -585 39 -759 50 -174 11 -404 32 -510 45 -106 14 -285 37
-398 52 -259 33 -500 37 -630 9 -63 -14 -102 -16 -150 -11 -36 4 -101 6 -145
4 -193 -9 -507 1 -795 25 -302 25 -515 36 -1115 56 -170 6 -418 18 -550 26
-558 36 -2564 26 -2905 -15 -332 -39 -473 -46 -950 -46 -486 1 -1382 30 -1413
46 -9 5 -17 20 -17 33 0 56 194 406 495 896 54 87 785 1550 785 1570 0 5 14
25 31 45 25 28 38 35 67 35 20 0 379 -97 797 -216z"/>
<path d="M9091 2467 c-98 -57 -40 -231 81 -244 37 -4 49 -1 76 22 41 34 50 81
27 140 -9 25 -30 54 -47 66 -37 27 -105 34 -137 16z"/>
<path d="M10973 2470 c-62 -13 -101 -36 -119 -72 -15 -29 -16 -47 -5 -168 6
-74 15 -227 21 -340 5 -113 15 -256 21 -318 10 -100 14 -115 35 -131 14 -11
33 -17 44 -14 40 11 45 30 48 206 l4 170 178 -177 c157 -157 181 -177 206
-174 25 3 29 8 32 39 3 31 -6 48 -57 115 -33 44 -107 135 -165 204 l-106 125
103 5 c115 7 157 24 181 75 73 152 -36 365 -222 435 -59 23 -145 31 -199 20z
m182 -204 c75 -35 118 -85 119 -138 1 -52 -9 -56 -146 -57 l-98 -1 0 33 c0 19
-3 68 -6 110 l-7 77 44 0 c25 0 65 -10 94 -24z"/>
<path d="M875 2456 c-32 -9 -60 -26 -79 -47 l-29 -33 6 -175 c7 -176 30 -496
46 -645 10 -85 32 -129 70 -134 47 -7 51 8 51 190 0 138 3 170 15 174 9 4 37
-19 77 -63 177 -192 252 -263 286 -269 24 -5 37 -2 43 7 27 43 -9 103 -189
309 -67 77 -120 145 -117 150 3 6 34 10 68 10 87 0 136 16 178 59 48 48 59
107 35 195 -54 195 -273 325 -461 272z m194 -179 c58 -29 111 -97 111 -141 0
-48 -27 -67 -112 -77 -135 -15 -123 -23 -136 85 -15 123 -15 131 5 151 21 21
69 15 132 -18z"/>
<path d="M13627 2460 c-56 -10 -90 -30 -113 -66 -15 -22 -16 -48 -11 -227 8
-244 43 -661 58 -700 21 -51 83 -65 99 -21 6 14 10 97 10 184 0 108 4 161 11
166 7 4 32 -17 62 -52 28 -32 101 -110 161 -172 91 -92 118 -114 147 -118 34
-6 37 -4 42 22 9 47 -24 99 -173 269 -77 88 -138 165 -137 170 2 6 42 13 89
16 92 6 136 24 170 70 67 90 25 254 -92 362 -88 82 -205 117 -323 97z m193
-188 c48 -38 100 -118 100 -152 0 -40 -48 -54 -152 -47 -112 7 -121 17 -116
125 2 70 6 86 23 99 30 22 101 9 145 -25z"/>
<path d="M15117 2409 c-66 -43 -190 -179 -221 -241 -31 -62 -34 -126 -7 -183
24 -52 53 -82 129 -133 76 -53 96 -87 90 -159 -4 -42 -11 -60 -33 -83 -36 -37
-51 -37 -123 -2 -31 16 -81 37 -109 47 -58 21 -58 19 -42 97 22 111 -28 271
-123 394 -95 123 -278 224 -405 224 -90 0 -110 -59 -93 -270 6 -80 10 -239 9
-355 -2 -115 0 -216 4 -222 12 -20 78 -15 183 12 53 14 113 25 133 25 51 0
147 26 204 55 58 29 57 29 57 10 0 -30 49 -112 86 -145 50 -43 93 -60 155 -60
64 0 108 21 154 72 62 68 79 135 64 258 -19 168 -44 214 -146 269 -26 14 -54
38 -62 53 -31 55 18 97 198 171 53 22 108 48 124 59 53 38 22 107 -57 127 -76
19 -118 14 -169 -20z m-620 -341 c130 -132 141 -149 158 -236 13 -65 -30 -93
-207 -132 -50 -11 -60 -11 -82 4 l-26 16 0 224 c0 213 3 256 19 256 4 0 66
-60 138 -132z"/>
<path d="M8575 2388 c-15 -17 -60 -97 -101 -177 -40 -80 -98 -188 -129 -240
-90 -155 -164 -360 -168 -464 -2 -58 16 -77 75 -77 46 0 49 4 114 202 56 171
38 155 218 184 102 16 110 16 140 0 42 -22 48 -33 112 -199 31 -78 65 -150 76
-159 27 -24 75 -23 116 2 25 16 32 26 32 51 0 49 -395 864 -431 890 l-27 19
-27 -32z m64 -330 c13 -46 26 -88 28 -95 4 -10 -15 -13 -77 -13 -45 0 -80 3
-78 8 28 60 94 182 98 182 3 0 16 -37 29 -82z"/>
<path d="M3016 2388 c-9 -13 -44 -88 -77 -168 -34 -80 -79 -180 -100 -222 -61
-121 -95 -214 -128 -350 -39 -156 -39 -180 -4 -208 59 -46 86 -12 133 169 32
122 51 166 79 180 31 17 171 42 194 35 47 -14 66 -46 112 -186 24 -77 54 -153
66 -170 19 -27 25 -29 58 -23 45 8 81 41 81 73 0 13 -16 60 -36 105 -20 45
-94 231 -165 412 -93 236 -137 336 -155 353 -31 28 -39 28 -58 0z m62 -371
c12 -33 22 -63 22 -68 0 -5 -27 -9 -59 -9 l-59 0 31 74 c18 41 35 72 38 68 3
-4 15 -33 27 -65z"/>
<path d="M5173 2353 c-62 -73 -141 -177 -172 -226 l-23 -37 -48 42 c-27 24
-105 94 -175 156 -99 87 -133 112 -156 112 -19 0 -32 -7 -40 -22 -17 -31 -8
-891 10 -911 16 -20 58 -27 92 -15 22 7 30 18 35 45 4 19 7 174 8 344 1 231 4
310 13 313 13 5 113 -111 179 -206 43 -63 57 -73 82 -59 9 5 60 61 112 125 52
63 102 115 111 115 12 1 17 -25 28 -146 37 -424 48 -503 72 -530 l24 -24 22
25 c44 52 41 252 -11 612 -14 93 -28 201 -31 239 -9 88 -18 105 -54 105 -23 0
-40 -12 -78 -57z"/>
<path d="M8155 2393 c-16 -3 -151 -17 -298 -32 -260 -27 -269 -29 -295 -55
-23 -22 -27 -35 -27 -85 0 -50 5 -64 25 -86 22 -24 30 -27 75 -22 28 3 85 16
128 30 56 18 79 22 85 13 4 -6 7 -160 7 -341 0 -302 2 -333 18 -358 10 -16 25
-31 33 -34 22 -8 59 31 86 90 22 51 23 61 26 378 l3 326 135 26 c158 30 184
43 184 91 0 49 -25 66 -96 65 -32 -1 -72 -4 -89 -6z"/>
<path d="M1675 2361 c-41 -17 -128 -91 -165 -140 -58 -77 -75 -137 -73 -256 3
-179 60 -348 155 -459 55 -64 94 -81 147 -62 94 32 210 145 266 261 88 179 88
336 -2 508 -41 77 -86 119 -152 142 -47 16 -143 19 -176 6z m94 -176 c38 -19
77 -66 91 -111 8 -24 11 -71 8 -133 -7 -120 -34 -196 -92 -257 -77 -80 -118
-53 -160 107 l-28 106 17 104 c9 57 21 119 26 136 19 59 78 80 138 48z"/>
<path d="M3515 2338 c-18 -31 -19 -54 -17 -448 2 -510 -13 -466 158 -462 66 2
157 7 204 12 73 7 87 11 107 35 25 28 31 84 14 128 -15 40 -52 45 -200 29
-102 -11 -135 -11 -141 -2 -4 6 -10 116 -14 243 -11 336 -20 434 -44 466 -27
37 -44 37 -67 -1z"/>
<path d="M7376 2338 c-14 -22 -28 -161 -44 -427 -4 -70 -11 -116 -18 -118 -6
-2 -79 103 -162 234 -108 170 -161 244 -183 257 -32 19 -32 19 -50 -5 -21 -28
-25 -68 -39 -347 -15 -299 -13 -437 5 -472 28 -53 94 -49 131 8 15 23 16 45 4
254 -7 125 -13 231 -13 235 0 5 6 9 14 11 9 1 33 -36 68 -105 37 -73 73 -127
110 -166 33 -35 72 -91 96 -139 47 -95 66 -112 94 -83 15 16 22 49 35 168 9
81 16 167 16 191 0 24 6 59 14 77 26 62 29 140 11 280 -17 132 -30 169 -61
169 -8 0 -20 -10 -28 -22z"/>
<path d="M9957 2338 c-34 -34 -47 -137 -47 -358 0 -155 -2 -180 -15 -180 -14
0 -137 179 -268 391 -75 120 -116 146 -144 89 -13 -29 -33 -422 -33 -662 0
-145 2 -160 20 -178 27 -27 73 -25 107 4 l28 24 -2 124 c-1 68 -7 160 -13 205
-9 64 -9 94 0 133 7 27 15 50 18 50 4 -1 27 -44 52 -98 32 -69 63 -116 108
-167 60 -66 122 -167 122 -198 0 -18 32 -47 52 -47 47 0 74 108 90 355 18 271
15 445 -8 491 -24 47 -37 52 -67 22z"/>
<path d="M2633 2323 c-16 -16 -66 -76 -111 -135 -46 -60 -86 -108 -90 -108 -4
1 -16 15 -27 32 -11 18 -62 69 -114 115 -87 77 -98 83 -138 83 -34 0 -43 -4
-43 -18 0 -45 25 -90 97 -173 170 -196 183 -230 192 -487 5 -166 8 -185 25
-198 27 -19 49 -18 77 5 22 18 23 23 18 132 -12 317 -8 336 90 473 33 45 73
104 90 132 35 59 51 135 31 159 -20 24 -65 18 -97 -12z"/>
<path d="M5652 2329 c-53 -27 -125 -112 -166 -199 -29 -61 -31 -71 -30 -180 1
-238 89 -452 211 -511 57 -27 93 -21 173 32 181 121 286 382 235 584 -55 217
-133 295 -300 295 -62 0 -90 -5 -123 -21z m204 -134 c56 -43 77 -95 82 -211 3
-64 0 -115 -8 -140 -14 -46 -104 -210 -133 -241 -43 -48 -125 -13 -167 72 -21
43 -25 67 -28 167 -10 296 110 462 254 353z"/>
<path d="M13025 2332 c-51 -24 -133 -103 -168 -162 -62 -106 -69 -216 -27
-421 42 -206 167 -358 269 -329 83 24 233 173 286 285 59 124 69 227 36 357
-49 190 -136 276 -291 285 -49 3 -75 -1 -105 -15z m195 -151 c42 -30 58 -71
69 -173 17 -150 -13 -239 -120 -360 -57 -66 -96 -77 -123 -35 -20 30 -64 186
-78 272 -9 62 -8 79 12 155 26 95 47 121 120 151 50 20 82 17 120 -10z"/>
<path d="M6183 2227 c-52 -76 -51 -250 3 -476 50 -212 130 -331 221 -331 34 0
105 32 151 67 18 14 35 23 36 22 2 -2 13 -23 25 -46 23 -46 49 -60 80 -43 34
17 42 45 53 178 9 96 8 171 -1 307 -17 248 -22 274 -57 302 -37 30 -40 29 -60
-8 -13 -26 -16 -70 -18 -233 -3 -221 -9 -254 -66 -326 -35 -44 -120 -91 -150
-83 -46 12 -89 104 -122 263 -17 78 -19 119 -15 234 l5 138 -31 34 -32 34 -22
-33z"/>
<path d="M12543 2250 c-56 -12 -122 -41 -177 -79 -66 -46 -155 -130 -173 -165
-19 -36 -40 -307 -29 -377 11 -71 62 -149 116 -176 68 -35 182 -48 282 -33
103 15 230 54 250 77 26 30 31 62 14 87 -21 32 -119 43 -191 22 -104 -32 -197
-9 -285 70 -52 47 -70 82 -70 134 0 75 50 153 151 235 l54 45 93 0 92 0 20 33
c26 41 26 89 0 112 -23 21 -88 27 -147 15z"/>
<path d="M11570 2197 c-14 -7 -33 -27 -42 -46 -15 -29 -16 -71 -14 -363 3
-390 -6 -363 121 -354 259 20 422 39 442 52 40 25 57 61 45 90 -21 45 -53 50
-139 23 -65 -20 -98 -24 -203 -24 l-125 0 0 71 c0 45 5 77 14 87 18 22 107 23
181 2 127 -36 165 -31 200 28 22 36 27 109 8 124 -25 20 -86 23 -164 8 -94
-18 -193 -19 -228 -4 -39 18 -55 82 -39 159 l6 33 111 -6 c78 -4 128 -12 169
-27 50 -19 64 -20 109 -10 29 6 60 18 70 27 24 21 23 65 -1 87 -45 41 -458 75
-521 43z"/>
<path d="M9150 2130 c-20 -20 -25 -34 -34 -107 -4 -26 -2 -43 4 -43 6 0 10
-85 10 -240 0 -185 3 -248 14 -275 28 -67 83 -67 154 1 l45 43 -7 78 c-4 43
-21 177 -38 298 -25 182 -34 224 -51 243 -26 27 -70 29 -97 2z"/>
</g>
</svg>
