<?xml version="1.0" encoding="UTF-8" standalone="no"?>
<svg
   xmlnsDc="http://purl.org/dc/elements/1.1/"
   xmlnsCc="http://creativecommons.org/ns#"
   xmlnsRdf="http://www.w3.org/1999/02/22-rdf-syntax-ns#"
   xmlnsSvg="http://www.w3.org/2000/svg"
   xmlns="http://www.w3.org/2000/svg"
   viewBox="0 0 548.5733 454.85333"
   height="454.85333"
   width="548.5733"
   xmlSpace="preserve"
   id="svg2"
   version="1.1"><metadata
     id="metadata8"><rdfRDF><ccWork
         rdfAbout=""><dcFormat>image/svg+xml</dcFormat><dcType
           rdfResource="http://purl.org/dc/dcmitype/StillImage" /></ccWork></rdfRDF></metadata><defs
     id="defs6" /><g
     transform="matrix(1.3333333,0,0,-1.3333333,0,454.85333)"
     id="g10"><g
       transform="scale(0.1)"
       id="g12"><path
         id="path14"
         style="fill:#000;fill-opacity:1;fill-rule:nonzero;stroke:none"
         d="m 1416.76,537.23 30.04,1034.39 207.39,101.99 -20.27,-1239.079 77,-339.1599 -219.85,157.2379 -74.31,284.621" /><path
         id="path16"
         style="fill:#000;fill-opacity:1;fill-rule:nonzero;stroke:none"
         d="m 2154.32,545.891 7.4,688.439 218.32,-124.91 -9.21,-652.561 76.91,-339.187 -219.79,157.258 -73.63,270.961" /><path
         id="path18"
         style="fill:#000;fill-opacity:1;fill-rule:nonzero;stroke:none"
         d="m 2527.92,553.48 10.25,628.88 207.4,101.91 -1.05,-819.79 76.89,-339.191 -219.77,157.242 -73.72,270.949" /><path
         id="path20"
         style="fill:#000;fill-opacity:1;fill-rule:nonzero;stroke:none"
         d="m 2881.04,568.121 5.7,724.299 219.15,-143.6 -8.26,-669.73 76.93,-339.18 -219.85,157.25 -73.67,270.961" /><path
         id="path22"
         style="fill:#000;fill-opacity:1;fill-rule:nonzero;stroke:none"
         d="m 1770.71,534.141 203.72,178.281 193.74,-34.543 -161.86,-207.328 78.04,-363.992 -219.8,157.261 -93.84,270.321" /><path
         id="path24"
         style="fill:#000;fill-opacity:1;fill-rule:nonzero;stroke:none"
         d="M 0,359.879 11.2617,127.77 192.805,0 l 10,0.359375 L 213.906,399.922 0,359.879" /><path
         id="path26"
         style="fill:#000;fill-opacity:1;fill-rule:nonzero;stroke:none"
         d="m 850.129,1165.12 -210.356,-39.88 27.512,400.08 181.563,-127.74 1.281,-232.46" /><path
         id="path28"
         style="fill:#000;fill-opacity:1;fill-rule:nonzero;stroke:none"
         d="m 1817.69,818.961 213.58,-26.82 -38.29,375.809 -165.91,-123.01 -9.38,-225.979" /><path
         id="path30"
         style="fill:#000;fill-opacity:1;fill-rule:nonzero;stroke:none"
         d="M 301.367,1433.15 529.258,1318.7 538.816,83.2891 310.488,207.879 301.367,1433.15" /><path
         id="path32"
         style="fill:#000;fill-opacity:1;fill-rule:nonzero;stroke:none"
         d="M 1254.79,1174.2 1060.37,1222.83 869.641,984.809 1082,303.441 792.207,346.219 828.262,163.68 1167.24,51.1797 1296.4,307.109 l -193.27,657.5 151.66,209.591" /><path
         id="path34"
         style="fill:#000;fill-opacity:1;fill-rule:nonzero;stroke:none"
         d="m 1727.05,106.93 -59.61,256.64 117.96,76.481 63.52,-184.59 -121.87,-148.531" /><path
         id="path36"
         style="fill:#000;fill-opacity:1;fill-rule:nonzero;stroke:none"
         d="m 1666.42,1189.92 115.35,340.87 -111.26,124.04 z" /><path
         id="path38"
         style="fill:#000;fill-opacity:1;fill-rule:nonzero;stroke:none"
         d="m 2034.92,962.781 -30.93,209.649 142.68,53.97 -7.01,-219.89 -104.74,-43.729" /><path
         id="path40"
         style="fill:#000;fill-opacity:1;fill-rule:nonzero;stroke:none"
         d="m 83.1133,1141.06 -31.9219,242.12 236.7856,54.37 -5.118,-260.72 -199.7457,-35.77" /><path
         id="path42"
         style="fill:#000;fill-opacity:1;fill-rule:nonzero;stroke:none"
         d="m 2092.78,116.512 -36.58,217.258 112.48,104.8 45.81,-172.379 -121.71,-149.679" /><path
         id="path44"
         style="fill:#000;fill-opacity:1;fill-rule:nonzero;stroke:none"
         d="m 1165.19,803.461 -41.37,158.5 135.54,193.129 37.81,-234.668 -131.98,-116.961" /><path
         id="path46"
         style="fill:#000;fill-opacity:1;fill-rule:nonzero;stroke:none"
         d="m 551.594,1227.79 -10.278,103.98 -226.617,108.97 339.371,82.13 -23.894,-284.1 -78.582,-10.98" /><path
         id="path48"
         style="fill:#000;fill-opacity:1;fill-rule:nonzero;stroke:none"
         d="m 2460.75,130.359 -51.13,213.102 125.26,130.019 51.35,-197.941 -125.48,-145.18" /><path
         id="path50"
         style="fill:#000;fill-opacity:1;fill-rule:nonzero;stroke:none"
         d="M 1200.41,71.7305 1317.3,306.148 1300.64,367.75 1422.4,464.199 1470.32,244.441 1200.41,71.7305" /><path
         id="path52"
         style="fill:#000;fill-opacity:1;fill-rule:nonzero;stroke:none"
         d="m 3185.74,152.109 -49.65,245.563 106.38,108.359 66.16,-209.859 -122.89,-144.063" /><path
         id="path54"
         style="fill:#000;fill-opacity:1;fill-rule:nonzero;stroke:none"
         d="M 802.176,538.18 712.078,688.672 899.668,840.918 949.52,651.172 802.176,538.18" /><path
         id="path56"
         style="fill:#000;fill-opacity:1;fill-rule:nonzero;stroke:none"
         d="M 553.586,79.3906 558.125,347.75 706.504,382.02 749.473,118.301 553.586,79.3906" /><path
         id="path58"
         style="fill:#000;fill-opacity:1;fill-rule:nonzero;stroke:none"
         d="m 215.188,5.07031 15.718,283.00769 56.965,6.934 2.766,-93.953 L 527.137,71.1094 215.188,5.07031" /><path
         id="path60"
         style="fill:#000;fill-opacity:1;fill-rule:nonzero;stroke:none"
         d="m 2764.93,941.191 -7.33,243.599 115.8,93.42 -5.43,-268.95 -103.04,-68.069" /><path
         id="path62"
         style="fill:#000;fill-opacity:1;fill-rule:nonzero;stroke:none"
         d="m 911.484,1621.29 13.243,258.98 190.453,67.07 142.7,-190.94 -346.396,-135.11" /><path
         id="path64"
         style="fill:#000;fill-opacity:1;fill-rule:nonzero;stroke:none"
         d="m 672.313,1767.81 0.011,-0.2 226.864,-150.45 7.785,543.18 -229.043,18.27 -5.617,-410.8" /><path
         id="path66"
         style="fill:#000;fill-opacity:1;fill-rule:nonzero;stroke:none"
         d="m 2773.11,1789.36 -56.18,251.84 117.69,122.26 72.48,-212.27 -133.99,-161.83" /><path
         id="path68"
         style="fill:#000;fill-opacity:1;fill-rule:nonzero;stroke:none"
         d="m 2708.2,2677.33 -7.42,231.96 119.62,42.98 -11.08,-228.15 -101.12,-46.79" /><path
         id="path70"
         style="fill:#000;fill-opacity:1;fill-rule:nonzero;stroke:none"
         d="m 2094.68,2661.2 -9.98,218.44 165.11,47.18 -85.12,-250.51 -70.01,-15.11" /><path
         id="path72"
         style="fill:#000;fill-opacity:1;fill-rule:nonzero;stroke:none"
         d="m 2157.29,1756.14 -43.62,241.54 326.37,149.88 76.95,-202.41 -359.7,-189.01" /><path
         id="path74"
         style="fill:#000;fill-opacity:1;fill-rule:nonzero;stroke:none"
         d="m 1756.08,1739.57 -56.71,285.81 130.42,100.33 71.49,-215.48 -145.2,-170.66" /><path
         id="path76"
         style="fill:#000;fill-opacity:1;fill-rule:nonzero;stroke:none"
         d="m 879.211,2801.73 -149.57,183.06 304.749,382.23 17.27,-381.2 -172.449,-184.09" /><path
         id="path78"
         style="fill:#000;fill-opacity:1;fill-rule:nonzero;stroke:none"
         d="m 1043.93,3384.32 240.47,-193.8 43.06,-657.94 -232.82,76.81 -50.71,774.93" /><path
         id="path80"
         style="fill:#000;fill-opacity:1;fill-rule:nonzero;stroke:none"
         d="m 731.688,2518.54 -8.004,454.34 678.646,-920.76 -130.7,-290.13 -539.942,756.55" /><path
         id="path82"
         style="fill:#000;fill-opacity:1;fill-rule:nonzero;stroke:none"
         d="m 1674.8,2809.77 -9.48,480.27 122.8,-136.77 -113.32,-343.5" /><path
         id="path84"
         style="fill:#000;fill-opacity:1;fill-rule:nonzero;stroke:none"
         d="m 3076.95,2902.23 -13.13,497.39 126.28,-140.95 -113.15,-356.44" /><path
         id="path86"
         style="fill:#000;fill-opacity:1;fill-rule:nonzero;stroke:none"
         d="m 1826.33,2204.56 40.03,383.21 208.88,288.82 -3.29,-777.61 76.99,-348.28 -238.57,164.53 -84.04,289.33" /><path
         id="path88"
         style="fill:#000;fill-opacity:1;fill-rule:nonzero;stroke:none"
         d="m 2471.3,2792.93 -204.29,136.86 -207.51,-640.73 216.26,10.4 195.54,493.47" /><path
         id="path90"
         style="fill:#000;fill-opacity:1;fill-rule:nonzero;stroke:none"
         d="m 2445.76,2190.37 35.09,456.41 210.85,259.46 -13.18,-792.72 86.86,-333.16 -238.59,164.52 -81.03,245.49" /><path
         id="path92"
         style="fill:#000;fill-opacity:1;fill-rule:nonzero;stroke:none"
         d="m 1425.21,2199.95 2.99,994.96 220.42,113.32 11.34,-1214.41 88.83,-362.37 -238.63,164.52 -84.95,303.98" /><path
         id="path94"
         style="fill:#000;fill-opacity:1;fill-rule:nonzero;stroke:none"
         d="m 2832.25,2250.7 -1.91,1047.47 220.41,113.24 15.42,-1252.08 88.72,-362.42 -238.6,164.53 -84.04,289.26" /><path
         id="path96"
         style="fill:#000;fill-opacity:1;fill-rule:nonzero;stroke:none"
         d="m 3164.84,1801.35 -44,233.76 176.63,146.8 17.98,-242.2 -150.61,-138.36" /><path
         id="path98"
         style="fill:#000;fill-opacity:1;fill-rule:nonzero;stroke:none"
         d="M 3574.7,157.699 3512.46,406.75 3630.03,525.738 3704.3,316.422 3574.7,157.699" /><path
         id="path100"
         style="fill:#000;fill-opacity:1;fill-rule:nonzero;stroke:none"
         d="m 3498.94,1044.84 -12.48,231.81 113.5,43.09 -0.68,-228.14 -100.34,-46.76" /><path
         id="path102"
         style="fill:#000;fill-opacity:1;fill-rule:nonzero;stroke:none"
         d="m 3865.39,1222.58 -21.83,497.24 125.01,-137.1 -103.18,-360.14" /><path
         id="path104"
         style="fill:#000;fill-opacity:1;fill-rule:nonzero;stroke:none"
         d="m 3240.6,551.238 27.11,457.112 206.22,263.18 0.66,-793.069 92.64,-331.699 -241.35,160.379 -85.28,244.097" /><path
         id="path106"
         style="fill:#000;fill-opacity:1;fill-rule:nonzero;stroke:none"
         d="m 3625.85,618.34 -17.56,997.62 218.32,117.1 34.66,-1202.021 94.99,-360.91 -241.36,160.383 -89.05,287.828" /><path
         id="path108"
         style="fill:#000;fill-opacity:1;fill-rule:nonzero;stroke:none"
         d="m 3966.16,174.738 -51.66,232.903 177.56,150.031 22.2,-241.934 -148.1,-141" /></g></g></svg>