<?xml version="1.0" standalone="no"?>
<!DOCTYPE svg PUBLIC "-//W3C//DTD SVG 20010904//EN"
 "http://www.w3.org/TR/2001/REC-SVG-20010904/DTD/svg10.dtd">
<svg version="1.0" xmlns="http://www.w3.org/2000/svg"
 width="460.000000pt" height="84.000000pt" viewBox="0 0 460.000000 84.000000"
 preserveAspectRatio="xMidYMid meet">

<g transform="translate(0.000000,84.000000) scale(0.100000,-0.100000)"
fill="#000000" stroke="none">
<path d="M270 830 c-14 -4 -46 -14 -72 -21 -26 -7 -44 -17 -39 -22 4 -4 21 -2
37 4 17 7 83 12 162 12 73 1 129 4 125 8 -10 8 -130 29 -164 28 -13 0 -35 -4
-49 -9z"/>
<path d="M255 780 c-22 -5 -55 -12 -74 -16 -41 -7 -141 -70 -141 -88 0 -15 30
-4 64 24 77 60 253 80 356 40 28 -11 61 -20 73 -20 21 1 21 1 -3 15 -14 8 -32
14 -42 15 -9 0 -18 5 -20 11 -2 6 -22 13 -43 14 -22 2 -60 6 -85 8 -25 3 -63
2 -85 -3z"/>
<path d="M230 728 c-14 -8 -46 -22 -72 -31 -25 -10 -54 -29 -62 -43 -21 -30
-6 -31 31 -1 52 43 112 62 182 59 87 -3 133 -17 169 -50 l30 -28 32 29 c37 33
35 41 -10 30 -26 -7 -43 -4 -84 17 -60 30 -175 39 -216 18z"/>
<path d="M865 727 c-3 -7 -4 -138 -3 -291 3 -295 8 -320 45 -258 l18 30 28
-24 c119 -103 291 13 275 186 -13 134 -128 214 -241 167 l-37 -16 0 110 0 109
-40 0 c-24 0 -43 -5 -45 -13z m228 -278 c76 -59 45 -219 -42 -219 -45 0 -60 9
-81 51 -24 45 -25 78 -6 123 26 63 82 83 129 45z"/>
<path d="M1380 445 l0 -295 45 0 45 0 0 295 0 295 -45 0 -45 0 0 -295z"/>
<path d="M3546 719 c-32 -47 32 -102 74 -64 22 20 26 55 8 73 -19 19 -65 14
-82 -9z"/>
<path d="M230 677 c-58 -20 -119 -56 -130 -76 -5 -11 -10 -35 -11 -53 l-1 -33
-8 30 c-10 40 -28 85 -34 85 -3 0 -10 -8 -15 -19 -8 -13 -6 -23 7 -37 10 -12
18 -37 18 -64 3 -132 142 -270 272 -270 61 0 132 35 160 79 9 14 33 49 53 76
51 69 103 185 89 199 -7 7 -10 7 -10 -1 0 -6 -6 -18 -12 -25 -7 -8 -31 -49
-53 -92 -22 -43 -61 -102 -87 -131 -81 -90 -145 -105 -233 -57 -61 34 -84 72
-92 155 -5 56 -3 70 17 105 31 55 77 77 158 75 39 -1 72 -7 88 -18 25 -16 60
-82 50 -93 -3 -3 -7 -3 -9 -1 -1 2 -10 17 -19 34 -34 61 -139 86 -191 45 -14
-11 -30 -20 -35 -20 -6 0 -19 -16 -31 -35 -36 -62 -5 -179 61 -228 14 -11 48
-22 75 -24 40 -4 55 -1 88 21 37 25 51 43 84 116 9 21 10 22 5 3 -3 -13 -3
-23 0 -23 9 0 86 157 86 175 0 8 9 24 20 35 25 25 25 26 -1 33 -13 4 -22 0
-26 -11 -3 -9 -11 -31 -19 -48 -7 -17 -18 -42 -23 -55 -9 -21 -10 -21 -10 -4
0 11 8 40 19 64 21 46 21 62 0 36 -17 -21 -37 -19 -63 6 -12 11 -35 28 -52 36
-38 20 -141 26 -185 10z m162 -27 c24 -10 51 -26 61 -34 24 -19 41 -90 27
-116 -5 -10 -10 -28 -10 -40 0 -46 -59 -128 -112 -156 -32 -17 -74 -18 -83 -3
-4 5 -18 14 -31 20 -31 11 -74 99 -74 150 0 71 119 141 183 108 53 -28 67 -50
67 -109 0 -47 -4 -60 -29 -87 -57 -63 -120 -51 -160 30 -28 57 -21 86 29 112
80 41 174 -55 108 -111 -13 -10 -17 -12 -10 -4 20 23 15 67 -10 84 -44 31
-118 10 -118 -32 0 -12 5 -10 23 6 53 50 125 1 87 -58 -7 -11 -8 -6 -4 17 5
25 2 33 -16 43 -17 9 -26 8 -46 -5 -32 -21 -29 -61 7 -87 21 -16 30 -17 55 -8
49 19 64 39 64 87 0 97 -100 137 -176 71 -34 -30 -35 -34 -29 -75 12 -82 58
-133 121 -133 31 0 86 34 109 67 18 26 45 112 45 142 0 66 -57 109 -152 115
-73 4 -115 -12 -159 -63 l-41 -46 5 -75 c5 -59 3 -71 -6 -55 -6 11 -11 47 -11
80 1 93 36 145 116 170 62 20 120 18 170 -5z m115 -172 c-3 -8 -6 -5 -6 6 -1
11 2 17 5 13 3 -3 4 -12 1 -19z m-188 -40 c-1 -19 -2 -19 -6 -5 -3 11 -11 16
-19 13 -8 -3 -14 -1 -14 4 0 6 9 10 20 10 14 0 20 -6 19 -22z"/>
<path d="M4387 683 c-4 -3 -7 -35 -7 -70 l0 -63 -35 0 c-35 0 -35 0 -35 -45 0
-44 0 -45 34 -45 l34 0 4 -102 c5 -118 23 -170 71 -194 65 -34 149 -9 140 40
-4 21 -9 25 -29 20 -70 -18 -94 22 -94 159 l0 77 65 0 65 0 0 45 0 45 -65 0
-65 0 0 70 0 70 -38 0 c-21 0 -42 -3 -45 -7z"/>
<path d="M1637 543 c-4 -3 -7 -62 -7 -130 0 -135 11 -177 58 -226 52 -55 147
-56 209 -3 l28 24 17 -29 c10 -16 25 -29 33 -29 13 0 15 28 15 200 l0 200 -44
0 -44 0 -4 -136 c-3 -135 -3 -136 -31 -160 -36 -31 -78 -31 -114 0 -28 24 -28
25 -31 160 l-4 136 -37 0 c-21 0 -41 -3 -44 -7z"/>
<path d="M2255 536 c-38 -17 -90 -72 -104 -109 -17 -43 -13 -127 8 -173 24
-52 60 -80 128 -100 62 -18 121 -9 181 28 37 23 39 34 12 66 l-19 23 -33 -21
c-51 -31 -118 -27 -157 9 -19 18 -31 39 -31 55 l0 26 140 0 140 0 0 40 c0 97
-79 170 -181 170 -30 -1 -67 -7 -84 -14z m143 -82 c12 -8 22 -22 22 -30 0 -11
-18 -14 -85 -14 -47 0 -85 4 -85 9 0 5 12 19 26 30 32 25 90 28 122 5z"/>
<path d="M2680 275 l0 -275 45 0 45 0 0 89 0 89 32 -15 c164 -82 315 138 210
306 -57 92 -171 110 -249 39 l-21 -20 -16 31 c-9 17 -23 31 -31 31 -13 0 -15
-39 -15 -275z m235 171 c31 -31 45 -85 35 -131 -29 -129 -180 -104 -180 29 0
103 84 163 145 102z"/>
<path d="M3200 349 l0 -200 43 3 42 3 5 130 c3 72 9 138 14 147 14 31 34 28
56 -8 37 -58 50 -46 50 47 l0 82 -46 -6 c-31 -3 -54 -13 -74 -32 l-28 -27 -16
31 c-9 17 -23 31 -31 31 -13 0 -15 -31 -15 -201z"/>
<path d="M3545 538 c-3 -8 -4 -97 -3 -198 l3 -185 45 0 45 0 0 195 0 195 -43
3 c-28 2 -44 -1 -47 -10z"/>
<path d="M3804 537 c-2 -7 -3 -96 -2 -197 l3 -185 43 -3 42 -3 0 114 c0 63 5
128 11 146 20 56 96 79 137 41 28 -27 32 -43 35 -180 l2 -115 43 -3 42 -3 0
136 c0 151 -8 182 -59 230 -29 27 -39 30 -99 30 -55 0 -73 -4 -101 -24 l-34
-24 -19 26 c-21 29 -36 34 -44 14z"/>
<path d="M10 475 c0 -8 23 -62 49 -113 21 -44 109 -127 153 -145 58 -24 169
-31 212 -13 42 17 124 98 145 142 7 16 20 42 28 57 25 48 7 41 -25 -10 -71
-111 -87 -128 -145 -157 -57 -29 -58 -29 -133 -16 -62 11 -85 20 -123 50 -69
56 -89 81 -114 145 -12 32 -28 60 -35 63 -7 2 -12 1 -12 -3z"/>
<path d="M5 400 c3 -5 11 -10 16 -10 6 0 7 5 4 10 -3 6 -11 10 -16 10 -6 0 -7
-4 -4 -10z"/>
<path d="M597 369 c-31 -59 -41 -74 -74 -109 -18 -19 -33 -38 -33 -41 0 -4
-21 -17 -47 -29 -44 -21 -53 -21 -130 -11 -45 5 -102 19 -127 30 -43 20 -100
77 -134 134 -21 36 -34 35 -21 -2 13 -36 111 -137 141 -146 13 -4 37 -13 55
-21 46 -21 144 -29 186 -15 51 17 112 65 144 112 57 85 64 99 61 115 -2 12 -8
7 -21 -17z"/>
<path d="M610 319 c-8 -12 -23 -32 -32 -44 -30 -39 -20 -41 30 -7 14 9 35 72
24 72 -4 0 -14 -10 -22 -21z"/>
<path d="M10 287 c0 -7 5 -18 11 -24 6 -6 16 -22 23 -34 20 -41 154 -136 216
-153 64 -18 120 -21 120 -6 0 6 -13 10 -30 10 -53 0 -158 41 -197 77 l-38 34
45 -29 c57 -37 138 -62 204 -62 48 0 126 34 174 75 9 9 33 29 52 45 21 19 29
30 19 30 -8 0 -26 -10 -39 -22 -29 -27 -88 -68 -98 -68 -4 0 -18 -9 -32 -20
-14 -11 -41 -20 -61 -20 -66 0 -177 31 -219 61 -22 16 -44 29 -49 29 -5 0 -27
20 -49 45 -41 47 -52 54 -52 32z"/>
<path d="M567 178 c-34 -42 -62 -60 -142 -94 -22 -9 -35 -18 -29 -21 19 -7
136 45 167 75 32 30 63 82 48 82 -5 0 -24 -19 -44 -42z"/>
<path d="M30 182 c0 -20 92 -94 155 -124 65 -30 77 -33 175 -33 86 0 111 3
134 18 15 10 26 20 24 22 -2 2 -28 -3 -58 -11 -71 -18 -134 -18 -201 2 -77 23
-139 57 -178 98 -34 35 -51 44 -51 28z"/>
<path d="M50 105 c41 -47 64 -64 85 -64 17 0 15 4 -12 27 -17 15 -46 36 -65
46 l-33 19 25 -28z"/>
</g>
</svg>
