<?xml version="1.0" encoding="UTF-8" standalone="no"?>
<svg
   xmlnsDc="http://purl.org/dc/elements/1.1/"
   xmlnsCc="http://creativecommons.org/ns#"
   xmlnsRdf="http://www.w3.org/1999/02/22-rdf-syntax-ns#"
   xmlnsSvg="http://www.w3.org/2000/svg"
   xmlns="http://www.w3.org/2000/svg"
   viewBox="0 0 816 1056"
   height="1056"
   width="816"
   xmlSpace="preserve"
   id="svg2"
   version="1.1"><metadata
     id="metadata8"><rdfRDF><ccWork
         rdfAbout=""><dcFormat>image/svg+xml</dcFormat><dcType
           rdfResource="http://purl.org/dc/dcmitype/StillImage" /></ccWork></rdfRDF></metadata><defs
     id="defs6"><clipPath
       id="clipPath20"
       clipPathUnits="userSpaceOnUse"><path
         id="path18"
         d="M 0,792 H 612 V 0 H 0 Z" /></clipPath></defs><g
     transform="matrix(1.3333333,0,0,-1.3333333,0,1056)"
     id="g10"><path
       id="path12"
       style="fill:none;fill-opacity:1;fill-rule:nonzero;stroke:#000"
       d="m 465.822,205.968 h -318.2 v 201.109 h 318.2 z" /><g
       id="g14"><g
         clip-path="url(#clipPath20)"
         id="g16"><g
           transform="translate(324.1123,264.417)"
           id="g22"><path
             id="path24"
             style="fill:#000;fill-opacity:1;fill-rule:nonzero;stroke:none"
             d="m 0,0 c 0,4.54 -2.167,8.599 -5.712,11.504 -3.579,2.958 -8.545,4.725 -14.039,4.725 -3.895,0 -8.386,-1.892 -11.903,-4.894 C -35.167,8.323 -37.677,4.272 -37.677,0 c 0.031,-5.231 2.47,-9.362 5.934,-12.258 3.473,-2.914 8.008,-4.45 12.156,-4.45 3.749,0 8.679,1.145 12.632,3.837 C -2.984,-10.215 0,-6.075 0,0 m 14.995,0 c 0,-9.362 -4.051,-16.699 -10.385,-21.683 -6.369,-4.939 -14.976,-7.595 -24.197,-7.595 -8.59,0 -16.948,2.656 -23.193,7.702 -6.2,4.974 -10.269,12.391 -10.269,21.736 0,8.616 3.362,15.777 9.235,20.734 5.884,4.956 14.225,7.79 24.227,7.79 C -7.968,28.701 0.648,25.166 6.405,19.81 12.144,14.462 14.995,7.275 14.995,0 m 77.361,11.272 c 0,2.204 -0.569,3.35 -1.599,4.114 -1.004,0.781 -2.718,1.136 -5.205,1.136 H 65.414 V 6.094 h 20.138 c 2.62,-0.072 4.361,0.275 5.33,1.004 0.924,0.728 1.474,1.91 1.474,4.174 m 15.536,-0.31 V 10.66 C 107.813,0.711 102.012,-6.058 92.81,-6.022 H 64.588 v -21.772 l -15.421,-0.027 h -0.471 v 56.033 h 44.548 c 3.713,0 7.347,-1.439 10.109,-4.344 2.753,-2.842 4.539,-7.185 4.539,-12.906 m -206.319,0.31 c 0,2.204 -0.573,3.35 -1.541,4.114 -1.093,0.781 -2.803,1.136 -5.286,1.136 h -20.119 V 6.094 h 20.119 c 2.639,-0.072 4.398,0.275 5.353,1.004 0.972,0.728 1.474,1.91 1.474,4.174 m 15.55,-0.31 V 10.66 C -83.006,0.711 -88.745,-6.058 -97.996,-6.022 h -28.217 v -21.772 l -15.394,-0.027 h -0.457 v 56.033 h 44.503 c 3.727,0 7.382,-1.439 10.135,-4.344 2.728,-2.842 4.549,-7.185 4.549,-12.906 M 93.155,91.681 c 1.698,0.906 2.648,2.159 2.709,3.775 v 0.151 c -0.061,2.087 -1.048,3.234 -2.779,3.962 -1.732,0.719 -4.158,0.924 -6.672,0.924 H 69.296 V 90.304 h 17.117 c 2.674,0 5.02,0.47 6.742,1.377 m 1.28,-15.403 c -1.688,1.137 -4.229,1.653 -7.151,1.653 H 69.296 V 65.219 h 17.988 c 2.531,0 5.054,0.427 6.875,1.412 1.874,0.986 2.985,2.381 2.985,4.486 0,2.443 -0.995,4.032 -2.709,5.161 m 27.919,-36.456 h -279.55 v -78.444 h 279.55 z M -95.855,71.179 c 0.062,-1.946 -1.644,-3.233 -4.54,-4.076 -2.851,-0.863 -6.786,-1.182 -10.868,-1.182 -7.457,0 -13.893,2.584 -17.655,6.715 l -0.186,0.16 -15.541,-2.194 0.031,-0.409 c 0.426,-5.64 5.414,-9.93 11.792,-12.827 6.383,-2.931 14.328,-4.441 20.96,-4.441 10.868,0 18.814,2.381 24.046,6.031 5.263,3.607 7.821,8.466 7.821,13.307 v 0.017 0.018 c 0.009,6.271 -2.856,10.269 -7.08,12.809 -6.284,3.838 -15.58,4.522 -23.348,5.411 -3.891,0.434 -7.418,0.905 -9.936,1.785 -2.585,0.906 -4.024,2.132 -4.144,4.033 v 0.275 c -0.026,1.972 1.559,3.251 3.953,4.113 2.39,0.871 5.463,1.129 8.008,1.129 6.382,0 12.147,-2.213 14.608,-6.619 l 0.169,-0.213 15.731,1.341 -0.133,0.506 c -2.181,7.205 -7.048,11.22 -12.578,13.397 -5.588,2.131 -11.943,2.54 -17.117,2.54 -8.826,0 -16.007,-1.715 -21.057,-4.895 -5.006,-3.153 -7.866,-7.807 -7.866,-13.404 0,-0.115 0,-0.214 0.013,-0.347 0.102,-5.613 3.06,-9.247 7.289,-11.548 6.364,-3.481 15.7,-4.255 23.535,-5.241 3.917,-0.453 7.413,-1.003 9.98,-1.927 2.554,-0.923 3.966,-2.141 4.113,-3.97 z m 21.114,21.932 9.168,-10.5 -8.785,-10.508 c -0.094,-0.098 -0.134,-0.276 -0.037,-0.435 0.063,-0.134 0.187,-0.24 0.37,-0.24 h 9.424 c 0.093,0 0.218,0.062 0.276,0.124 l 9.433,10.838 c 0.12,0.115 0.12,0.39 0,0.488 l -9.433,10.784 c -0.058,0.098 -0.183,0.159 -0.276,0.159 h -9.891 c -0.12,0 -0.249,-0.079 -0.342,-0.239 -0.04,-0.16 -0.04,-0.329 0.093,-0.471 M -48.634,74.03 c 0,-4.68 1.515,-9.993 6.12,-14.123 4.651,-4.095 12.326,-6.982 24.642,-6.982 12.507,0 20.502,2.806 25.36,6.955 4.904,4.193 6.591,9.665 6.591,14.896 v 36.99 H 13.662 -2.158 V 76.198 c 0,-4.255 -1.884,-6.672 -4.797,-8.252 -2.941,-1.493 -6.929,-1.981 -11.028,-1.981 -2.51,0 -6.187,0.507 -9.185,1.981 -3.069,1.465 -5.353,3.802 -5.353,7.515 v 36.305 h -16.113 z m 72.324,19.081 9.151,-10.5 -8.75,-10.508 c -0.115,-0.098 -0.125,-0.276 -0.063,-0.435 0.063,-0.134 0.223,-0.24 0.391,-0.24 h 9.372 c 0.142,0 0.222,0.062 0.347,0.124 l 9.38,10.838 c 0.133,0.115 0.133,0.39 0,0.488 l -9.38,10.784 c -0.125,0.098 -0.205,0.159 -0.347,0.159 h -9.825 c -0.213,0 -0.276,-0.079 -0.355,-0.239 -0.071,-0.16 -0.071,-0.329 0.079,-0.471 M 53.031,53.946 h 0.453 44.042 c 8.99,0.427 17.037,5.508 17.037,15.163 0,0.196 0,0.391 -0.017,0.578 -0.267,8.199 -5.197,12.64 -11.149,14.097 6.68,2.106 7.888,7.266 7.827,12.063 -0.028,9.718 -8.377,15.891 -14.586,15.919 H 53.031 Z m 74.475,-97.703 h -289.814 v 171.733 h 289.814 z m -86.511,53.83 c -0.089,0.16 -0.24,0.24 -0.382,0.24 h -9.86 c -0.107,0 -0.231,-0.044 -0.338,-0.16 L 21.017,-0.63 c -0.151,-0.116 -0.151,-0.355 0,-0.533 l 9.398,-10.784 c 0.107,-0.098 0.231,-0.152 0.338,-0.152 h 9.407 c 0.178,0 0.311,0.08 0.4,0.258 0.053,0.152 0.053,0.311 -0.045,0.427 L 31.739,-0.888 40.906,9.62 c 0.124,0.116 0.178,0.293 0.089,0.453 m -99.751,-0.453 -9.109,-10.508 8.719,-10.526 c 0.115,-0.116 0.155,-0.275 0.057,-0.427 -0.057,-0.178 -0.226,-0.258 -0.364,-0.258 h -9.416 c -0.129,0 -0.253,0.054 -0.324,0.152 l -9.448,10.784 c -0.11,0.178 -0.159,0.417 0,0.533 l 9.448,10.783 c 0.071,0.116 0.195,0.16 0.324,0.16 h 9.838 c 0.155,0 0.275,-0.08 0.355,-0.24 0.107,-0.16 0.04,-0.337 -0.08,-0.453" /></g></g></g></g></svg>