<?xml version="1.0" standalone="no"?>
<!DOCTYPE svg PUBLIC "-//W3C//DTD SVG 20010904//EN"
 "http://www.w3.org/TR/2001/REC-SVG-20010904/DTD/svg10.dtd">
<svg version="1.0" xmlns="http://www.w3.org/2000/svg"
 width="800.000000pt" height="800.000000pt" viewBox="0 0 800.000000 800.000000"
 preserveAspectRatio="xMidYMid meet">

<g transform="translate(0.000000,800.000000) scale(0.100000,-0.100000)"
fill="#000000" stroke="none">
<path d="M6238 6384 c-13 -21 -30 -52 -38 -68 -20 -40 -32 -41 -81 -11 l-42
27 7 -23 c12 -38 37 -151 43 -190 9 -65 -16 -57 -91 30 l-28 34 -20 -32 c-22
-34 -53 -40 -103 -21 -30 12 -51 4 -37 -13 13 -17 31 -97 26 -112 -3 -7 -14
-17 -26 -22 -26 -11 -25 -11 106 -113 89 -69 97 -77 93 -105 -2 -16 -7 -38
-12 -47 -7 -17 8 -18 225 -18 l232 0 -6 43 c-3 23 -3 47 2 52 4 6 51 46 105
88 53 43 97 81 97 83 0 3 -10 14 -22 24 l-22 17 19 62 c10 34 16 63 13 66 -3
3 -19 0 -36 -6 -42 -15 -83 -8 -96 16 -19 35 -30 35 -57 2 -64 -76 -69 -81
-81 -69 -8 8 -7 33 7 99 10 48 20 101 23 117 l5 29 -41 -23 c-46 -26 -52 -23
-86 42 -11 20 -27 46 -37 59 l-17 22 -24 -39z"/>
<path d="M1550 6337 c-48 -15 -113 -83 -128 -133 -15 -51 -16 -235 -1 -289 27
-98 106 -149 228 -148 81 1 139 19 179 56 32 29 64 93 60 120 -3 19 -10 22
-55 25 -51 3 -53 2 -66 -30 -21 -49 -51 -70 -104 -75 -59 -5 -92 11 -116 57
-15 29 -17 55 -15 153 l3 119 33 29 c27 24 41 29 86 29 61 0 84 -14 114 -70
17 -31 23 -35 65 -38 56 -4 66 10 49 66 -15 51 -73 107 -129 126 -53 18 -151
19 -203 3z"/>
<path d="M2134 6332 c-6 -4 -34 -70 -63 -147 -29 -77 -59 -156 -66 -175 -47
-123 -75 -204 -75 -221 0 -16 7 -19 43 -19 44 0 77 21 77 48 0 15 22 54 35 64
6 4 58 8 117 8 l107 0 16 -30 c8 -16 15 -35 15 -43 0 -26 35 -47 78 -47 22 0
43 4 46 9 3 4 -4 32 -15 62 -11 30 -24 65 -29 79 -31 97 -154 406 -164 412 -6
4 -33 8 -61 8 -27 0 -55 -4 -61 -8z m110 -232 c20 -52 36 -101 36 -107 0 -15
-155 -19 -164 -4 -5 8 16 73 63 195 7 17 15 25 20 20 5 -5 25 -52 45 -104z"/>
<path d="M2546 6325 c-3 -9 -6 -132 -6 -274 0 -187 3 -260 12 -269 16 -16 85
-15 95 1 4 6 10 84 13 172 l5 160 107 -161 c59 -89 114 -167 122 -173 8 -7 32
-11 53 -9 l38 3 0 280 0 280 -50 0 -50 0 -5 -175 -5 -175 -78 120 c-162 248
-146 230 -198 233 -36 2 -48 -1 -53 -13z"/>
<path d="M3268 6323 c-14 -16 -81 -189 -179 -457 -17 -46 -25 -84 -20 -89 4
-4 28 -7 52 -5 46 3 44 1 89 98 6 12 30 15 125 15 l117 0 17 -41 c25 -63 38
-74 87 -74 37 0 44 3 44 19 0 16 -33 109 -95 271 -8 19 -30 80 -50 135 -51
141 -54 145 -119 145 -38 0 -57 -5 -68 -17z m115 -230 c19 -56 33 -104 30
-107 -4 -3 -42 -6 -85 -6 -56 0 -78 4 -78 13 0 12 66 193 77 210 9 15 19 -5
56 -110z"/>
<path d="M3682 6059 l3 -284 150 0 c142 0 154 1 200 26 36 18 57 37 75 70 22
40 24 55 25 174 0 151 -4 172 -47 220 -54 63 -75 69 -251 73 l-157 4 2 -283z
m289 167 c14 -9 31 -28 37 -42 16 -33 15 -226 0 -259 -18 -40 -57 -55 -143
-55 l-75 0 0 183 c0 101 3 187 8 191 13 14 146 0 173 -18z"/>
<path d="M4235 6328 c-3 -7 -4 -135 -3 -283 l3 -270 46 -3 c30 -2 50 2 58 11
8 11 11 88 9 283 l-3 269 -53 3 c-36 2 -54 -1 -57 -10z"/>
<path d="M4643 6334 c-12 -5 -48 -91 -109 -264 -19 -52 -38 -104 -43 -115 -33
-72 -62 -168 -54 -176 6 -6 30 -9 54 -7 45 3 48 6 81 83 l13 30 100 3 c129 4
138 1 154 -45 20 -56 39 -73 82 -73 21 0 41 5 44 10 7 12 -9 61 -112 335 -41
110 -82 206 -91 213 -15 12 -94 16 -119 6z m101 -220 c51 -137 53 -134 -44
-134 -57 0 -80 4 -80 13 0 6 14 50 31 97 17 47 33 93 36 103 10 32 20 17 57
-79z"/>
<path d="M5047 6334 c-4 -4 -7 -128 -7 -274 0 -298 -1 -294 67 -288 l38 3 3
168 c1 100 6 167 12 167 6 0 57 -71 113 -157 57 -87 111 -164 120 -171 9 -7
32 -12 54 -10 l38 3 0 280 0 280 -50 0 -50 0 -3 -167 c-1 -100 -6 -168 -12
-168 -6 0 -27 27 -47 61 -21 33 -70 108 -108 167 l-70 107 -46 3 c-24 2 -48 0
-52 -4z"/>
<path d="M1290 4890 l0 -670 60 0 60 0 0 563 c0 553 0 564 20 585 19 21 30 22
155 22 108 0 137 -3 149 -16 14 -14 16 -70 16 -470 l0 -454 263 0 c211 0 267
-3 283 -14 16 -12 20 -31 24 -113 l5 -98 40 0 40 0 5 573 c4 494 7 574 20 582
20 13 280 13 300 0 13 -8 16 -87 20 -582 l5 -573 214 -3 c118 -1 219 2 224 7
5 5 -2 39 -16 82 -14 41 -44 135 -67 209 -24 74 -53 167 -65 205 -13 39 -37
117 -55 175 -18 58 -50 157 -70 220 -52 162 -70 221 -70 230 0 5 7 16 16 24
12 13 41 16 148 16 166 0 160 6 216 -190 12 -41 25 -86 30 -100 4 -14 15 -50
24 -80 9 -30 24 -82 35 -115 10 -33 28 -96 40 -140 13 -44 27 -87 31 -96 5 -9
12 -33 15 -53 7 -33 9 -35 21 -19 7 10 14 25 14 33 0 9 11 49 24 90 13 41 34
109 46 150 37 127 43 144 51 165 4 11 17 54 29 95 51 178 66 219 87 243 14 14
35 17 145 17 132 0 168 -8 168 -37 0 -9 -11 -48 -24 -87 -13 -39 -42 -132 -66
-206 -23 -74 -52 -166 -65 -205 -13 -38 -30 -92 -38 -120 -41 -135 -130 -414
-143 -448 -27 -71 -38 -67 211 -67 l225 0 0 568 c0 538 1 570 18 585 17 15 62
17 440 17 501 0 462 11 462 -125 0 -101 -11 -131 -52 -139 -17 -3 -145 -6
-284 -6 l-254 0 0 -105 0 -105 253 0 c203 0 257 -3 273 -14 17 -13 19 -27 19
-115 0 -88 -2 -102 -20 -115 -17 -13 -63 -15 -272 -16 l-253 0 0 -105 0 -105
270 0 c283 0 316 -5 325 -44 3 -12 6 -55 7 -96 l3 -75 900 0 900 0 3 668 2
667 -2770 0 -2770 0 0 -670z"/>
<path d="M1290 3335 l0 -675 60 0 60 0 0 554 c0 305 3 562 6 571 12 31 59 45
153 45 50 0 102 -5 116 -12 21 -9 85 -95 85 -113 0 -3 10 -22 23 -43 13 -20
44 -76 70 -124 26 -48 57 -105 70 -125 12 -21 31 -54 42 -75 10 -20 26 -46 35
-58 l16 -21 14 28 c8 15 24 44 36 63 12 20 35 61 53 93 75 137 91 167 140 251
28 49 51 93 51 98 0 41 246 53 289 14 21 -19 21 -23 21 -583 l0 -563 180 0
180 0 -47 43 c-61 55 -106 128 -126 203 -15 52 -17 119 -17 477 l0 416 30 16
c21 11 60 15 135 15 101 0 140 -8 157 -34 4 -6 8 -177 8 -381 1 -203 5 -390 9
-414 15 -77 67 -127 143 -137 110 -15 183 20 219 104 18 40 19 74 19 430 0
213 4 392 8 398 17 26 56 34 157 34 127 0 161 -13 170 -64 4 -19 5 -206 2
-417 -4 -406 -7 -431 -56 -531 -22 -45 -67 -98 -115 -136 l-29 -22 238 0 238
0 -46 35 c-55 42 -98 102 -120 169 -22 63 -21 72 3 96 18 18 33 20 151 20
l130 0 52 -51 c29 -28 70 -57 92 -65 82 -28 219 -9 261 37 10 11 18 35 18 56
0 60 -51 88 -234 128 -184 40 -286 82 -355 146 -87 81 -126 206 -94 308 32
102 72 158 150 210 100 67 171 85 334 85 108 0 152 -4 190 -17 140 -49 241
-129 288 -229 56 -118 35 -138 -140 -138 -67 0 -132 5 -145 10 -13 6 -33 26
-46 45 -27 43 -78 65 -149 65 -95 0 -143 -33 -143 -97 0 -33 13 -52 50 -74 32
-19 161 -55 270 -75 104 -19 225 -73 281 -126 66 -62 83 -109 83 -223 0 -89
-3 -106 -27 -151 -27 -53 -69 -103 -121 -142 l-29 -22 147 0 146 0 0 564 0
565 26 20 c24 18 41 21 141 21 83 0 122 -4 143 -15 l30 -16 0 -569 0 -570 177
0 176 0 -24 20 c-155 130 -195 253 -186 568 6 199 16 256 59 340 92 179 271
262 538 248 228 -12 376 -96 467 -265 11 -19 33 -123 33 -153 0 -5 -9 -17 -20
-28 -18 -18 -33 -20 -153 -20 -126 0 -135 1 -154 23 -11 12 -23 33 -26 47 -21
83 -93 130 -198 130 -82 0 -134 -28 -169 -90 -25 -44 -25 -49 -25 -270 0 -222
0 -226 25 -269 44 -78 147 -111 252 -79 48 14 105 77 114 125 11 56 31 63 186
63 166 0 173 -3 163 -89 -8 -63 -51 -161 -92 -207 -16 -17 -48 -45 -72 -62
l-44 -32 166 0 167 0 0 675 0 675 -2770 0 -2770 0 0 -675z"/>
<path d="M2271 3188 c-82 -155 -144 -260 -164 -278 -24 -23 -119 -28 -161 -9
-22 11 -103 146 -174 292 -12 26 -27 47 -33 47 -6 0 -8 -105 -7 -287 l3 -288
288 -3 287 -2 0 295 c0 162 -1 295 -3 295 -2 0 -18 -28 -36 -62z"/>
<path d="M2116 2445 c-78 -28 -124 -101 -110 -176 13 -70 52 -101 169 -134
127 -35 155 -52 155 -95 0 -38 -32 -62 -90 -68 -61 -6 -105 11 -127 49 -16 26
-23 29 -70 29 -51 0 -53 -1 -53 -28 0 -28 21 -66 50 -90 68 -58 223 -71 316
-28 64 30 94 75 94 140 0 54 -19 96 -53 119 -13 8 -64 27 -113 42 -123 37
-151 52 -159 82 -21 85 129 111 186 32 18 -25 27 -29 70 -29 46 0 49 2 49 26
0 105 -177 178 -314 129z"/>
<path d="M2646 2450 c-99 -30 -149 -125 -112 -214 22 -53 58 -73 229 -122 61
-18 87 -42 87 -81 0 -33 -53 -63 -110 -63 -52 1 -80 14 -110 53 -18 23 -29 27
-71 27 -47 0 -49 -1 -49 -27 0 -45 34 -88 91 -117 45 -22 66 -26 140 -26 75 0
94 4 139 28 82 42 111 122 76 205 -16 41 -45 60 -121 82 -33 10 -80 24 -105
32 -113 36 -122 121 -14 139 48 7 92 -12 118 -51 15 -23 23 -26 64 -23 43 3
47 5 50 31 5 38 -66 110 -123 126 -46 13 -137 13 -179 1z"/>
<path d="M3200 2451 c-120 -37 -168 -133 -157 -316 11 -185 76 -254 240 -255
117 0 180 33 218 115 15 32 19 65 19 171 0 119 -2 134 -25 180 -27 54 -74 91
-132 105 -45 10 -128 10 -163 0z m136 -97 c56 -26 69 -63 69 -184 0 -118 -14
-159 -65 -185 -49 -26 -94 -19 -134 19 l-36 33 0 129 c0 144 7 165 64 190 41
18 61 17 102 -2z"/>
<path d="M3760 2451 c-92 -30 -133 -80 -151 -185 -12 -72 -7 -183 11 -248 26
-92 101 -137 226 -138 67 0 89 4 133 26 61 31 101 85 101 139 l0 35 -53 0
c-52 0 -53 -1 -66 -36 -16 -45 -63 -74 -118 -74 -34 0 -48 6 -77 34 l-36 33 0
131 c0 125 1 132 25 161 54 63 165 48 201 -27 20 -44 30 -52 66 -52 45 0 58
10 58 45 0 42 -35 92 -88 128 -37 25 -55 30 -125 33 -45 2 -93 0 -107 -5z"/>
<path d="M5826 2446 c-100 -37 -137 -100 -144 -244 -11 -228 60 -322 243 -322
121 0 182 36 221 129 17 42 18 271 1 319 -15 39 -59 87 -101 109 -43 23 -170
28 -220 9z m151 -93 c51 -24 65 -66 65 -188 0 -117 -10 -148 -54 -175 -67 -41
-151 -10 -176 65 -17 52 -12 209 8 250 15 31 70 65 103 65 11 0 35 -8 54 -17z"/>
<path d="M1606 2428 c-9 -12 -16 -27 -16 -33 0 -5 -28 -82 -61 -170 -93 -243
-119 -317 -113 -327 3 -4 27 -8 53 -8 l47 0 25 53 24 52 100 3 c132 4 139 1
155 -50 18 -53 24 -58 83 -58 l49 0 -8 32 c-3 18 -13 49 -22 68 -22 52 -25 59
-97 255 -37 99 -71 186 -77 193 -6 7 -34 12 -69 12 -48 0 -60 -4 -73 -22z m92
-135 c6 -16 24 -65 40 -110 l30 -83 -89 0 -89 0 21 53 c12 28 31 78 42 110 12
31 24 57 28 57 4 0 12 -12 17 -27z"/>
<path d="M4180 2170 l0 -280 55 0 55 0 0 280 0 280 -55 0 -55 0 0 -280z"/>
<path d="M4596 2428 c-9 -12 -16 -28 -16 -35 0 -7 -4 -21 -9 -31 -15 -26 -171
-449 -171 -461 0 -7 21 -11 53 -11 l53 0 25 53 24 52 115 0 115 0 24 -52 24
-53 54 0 c29 0 53 4 53 10 0 9 -12 44 -45 130 -8 19 -44 116 -81 215 -37 99
-71 186 -77 193 -6 7 -33 12 -68 12 -48 0 -60 -4 -73 -22z m118 -204 c20 -53
36 -103 36 -110 0 -11 -18 -14 -80 -14 -57 0 -80 4 -80 12 0 11 21 70 62 181
6 15 14 27 18 27 4 0 24 -43 44 -96z"/>
<path d="M4910 2406 c0 -53 6 -56 101 -56 l69 0 2 -227 3 -228 55 0 55 0 3
227 2 227 78 3 77 3 3 48 3 47 -225 0 -226 0 0 -44z"/>
<path d="M5470 2170 l0 -280 55 0 55 0 0 280 0 280 -55 0 -55 0 0 -280z"/>
<path d="M6270 2170 l0 -280 50 0 c61 0 59 -6 63 194 l2 149 113 -172 113
-171 49 0 50 0 0 280 0 280 -50 0 c-27 0 -51 -1 -52 -2 -1 -2 -4 -82 -7 -178
l-6 -175 -65 100 c-36 55 -67 105 -70 110 -12 24 -86 131 -95 137 -5 4 -29 8
-52 8 l-43 0 0 -280z"/>
</g>
</svg>
