<?xml version="1.0" standalone="no"?>
<!DOCTYPE svg PUBLIC "-//W3C//DTD SVG 20010904//EN"
 "http://www.w3.org/TR/2001/REC-SVG-20010904/DTD/svg10.dtd">
<svg version="1.0" xmlns="http://www.w3.org/2000/svg"
 width="698.000000pt" height="904.000000pt" viewBox="0 0 698.000000 904.000000"
 preserveAspectRatio="xMidYMid meet">

<g transform="translate(0.000000,904.000000) scale(0.100000,-0.100000)"
fill="#000000" stroke="none">
<path d="M212 4973 l3 -3858 22 -66 c47 -137 135 -236 266 -298 90 -43 354
-134 567 -197 1547 -457 3293 -457 4840 0 213 63 477 154 567 197 131 62 219
161 266 298 l22 66 3 3858 2 3857 -3280 0 -3280 0 2 -3857z m1848 3377 l0
-170 965 0 965 0 0 -347 c0 -192 -5 -379 -10 -417 -21 -143 -101 -232 -237
-262 -68 -15 -113 -16 -358 -10 -319 7 -356 2 -414 -58 -25 -26 -35 -46 -39
-81 l-5 -48 66 37 c79 45 187 69 260 60 29 -4 104 -22 167 -41 133 -40 256
-53 316 -33 21 7 59 26 84 41 70 44 84 15 24 -51 l-36 -40 66 0 66 0 0 -380
c0 -209 2 -380 4 -380 3 0 102 58 221 130 l216 130 611 0 611 0 319 -167 c176
-91 331 -175 345 -186 56 -44 81 -172 51 -258 -6 -19 -61 -115 -121 -214 -60
-98 -114 -189 -119 -201 -9 -18 -2 -31 42 -85 189 -235 290 -522 290 -829 0
-221 -50 -427 -151 -620 -66 -126 -133 -215 -246 -327 l-94 -93 67 -30 c113
-51 231 -148 278 -228 5 -8 -17 -98 -50 -213 l-58 -199 -32 0 c-31 0 -31 1
-37 55 -17 161 -134 281 -328 335 -123 33 -247 39 -798 40 l-523 0 6 -32 c17
-93 25 -197 26 -328 0 -169 -4 -190 -34 -190 -21 0 -24 11 -49 137 -107 538
-367 890 -972 1314 l-130 91 -3 -171 -2 -171 -25 0 c-21 0 -31 12 -60 69 -119
237 -387 537 -684 765 -101 77 -378 276 -385 276 -3 0 -6 -81 -6 -180 l0 -180
-27 0 c-25 0 -31 8 -65 85 -102 236 -300 491 -589 761 -317 296 -401 378 -481
469 -231 260 -348 511 -367 788 -17 265 31 453 163 626 36 47 131 131 149 131
4 0 7 -30 7 -66 0 -57 -5 -74 -34 -124 -109 -186 -130 -406 -61 -646 49 -168
143 -311 329 -503 287 -294 619 -547 1436 -1091 927 -618 1227 -836 1435
-1046 170 -170 302 -381 371 -590 33 -99 39 -110 58 -107 11 2 293 46 627 96
l605 93 61 47 c67 51 208 198 235 244 l17 29 -237 18 c-130 9 -257 19 -282 22
l-45 4 -39 -80 c-32 -66 -43 -80 -62 -80 -28 0 -28 -1 -9 70 25 93 23 100 -32
100 -62 0 -93 9 -93 26 0 9 22 15 69 20 38 3 74 10 81 14 15 9 38 159 49 322
5 68 7 124 6 125 -1 3 -669 43 -702 43 -10 0 -13 -27 -13 -100 0 -99 0 -100
-24 -100 -25 0 -27 5 -52 167 l-6 42 -77 3 c-69 3 -76 5 -79 24 -3 18 4 22 35
27 21 4 55 7 77 7 l39 0 -7 48 c-4 26 -9 142 -12 257 l-5 210 -102 6 c-120 8
-297 11 -297 5 0 -2 11 -29 25 -60 66 -150 97 -385 77 -587 -7 -67 -15 -125
-18 -130 -3 -5 -16 -9 -30 -9 -19 0 -24 5 -24 24 0 13 -7 63 -15 112 -74 430
-269 689 -784 1043 -57 39 -108 71 -113 71 -4 0 -8 -76 -8 -170 l0 -170 -23 0
c-20 0 -28 12 -55 83 -65 171 -195 350 -355 488 -109 93 -329 239 -502 332
-321 172 -434 250 -530 367 -61 74 -121 193 -146 287 -20 78 -39 343 -25 343
4 0 39 -18 76 -41 61 -36 70 -45 76 -77 51 -298 231 -502 502 -567 101 -25
361 -16 552 19 418 75 435 78 560 77 80 0 144 -5 178 -14 l52 -15 0 114 0 114
-73 0 c-63 0 -81 -4 -137 -34 -86 -45 -156 -61 -265 -60 -307 1 -514 212 -492
500 9 126 70 219 176 274 83 42 153 51 459 59 269 7 295 9 320 27 54 40 63 76
69 284 l6 190 -511 0 -512 0 0 -201 c0 -157 -3 -200 -12 -197 -7 3 -95 36
-195 74 l-183 69 0 48 0 47 90 0 90 0 0 80 0 80 -340 0 -340 0 0 171 0 171
-152 -4 c-169 -4 -209 -15 -280 -77 -58 -51 -82 -111 -82 -211 -1 -71 4 -94
26 -141 37 -81 110 -129 194 -129 l34 0 0 -100 0 -101 -67 7 c-281 26 -473
236 -473 514 0 147 48 259 155 366 79 79 177 134 275 153 30 6 64 13 75 15 11
2 143 4 293 5 l272 1 0 -170z m-1298 -2634 c15 -11 15 -18 -3 -91 -23 -96 -27
-239 -9 -315 70 -296 313 -516 1180 -1065 395 -250 583 -384 787 -559 301
-259 475 -515 543 -799 25 -104 25 -107 -5 -107 -20 0 -30 11 -56 63 -124 244
-352 472 -694 692 -95 61 -372 225 -380 225 -3 0 -5 -81 -5 -180 l0 -180 -27
0 c-25 0 -33 10 -76 99 -98 200 -258 413 -445 592 -55 53 -188 165 -295 248
-302 235 -385 313 -499 468 -68 93 -114 180 -147 279 -72 217 -64 409 25 602
l33 73 28 -16 c15 -9 35 -22 45 -29z m5108 -3099 c76 -18 168 -51 195 -71 18
-13 17 -18 -21 -150 -21 -75 -43 -136 -49 -136 -5 1 -22 18 -37 40 -64 92
-196 149 -363 157 -183 9 -298 -30 -396 -134 -57 -60 -89 -124 -121 -239 -18
-67 -21 -106 -21 -254 0 -148 3 -187 21 -253 61 -223 209 -368 425 -414 52
-11 107 -14 197 -10 141 5 224 26 328 83 l62 34 0 -95 0 -95 -32 -20 c-37 -23
-156 -63 -238 -81 -96 -20 -382 -23 -489 -5 -355 62 -565 242 -647 556 -23 87
-33 249 -23 361 18 216 83 364 218 500 125 125 266 196 466 233 103 20 429 15
525 -7z m-3826 -20 c156 -37 254 -106 308 -215 31 -63 33 -72 33 -182 0 -110
-1 -118 -33 -182 -21 -44 -51 -84 -88 -117 -56 -52 -191 -125 -252 -137 -18
-4 -32 -11 -32 -16 0 -5 133 -178 295 -386 l295 -377 -227 -3 c-125 -1 -232
-1 -238 2 -6 2 -130 166 -275 365 l-265 360 -67 1 -68 0 0 -365 0 -365 -190 0
-190 0 0 678 c0 508 -4 692 -13 738 -19 88 -58 149 -117 182 -28 15 -50 31
-50 35 0 5 249 7 553 4 468 -3 563 -6 621 -20z m1744 12 c175 -19 293 -71 359
-157 42 -55 57 -108 56 -202 0 -146 -85 -266 -229 -325 -62 -25 -61 -29 9 -39
67 -10 198 -78 241 -126 111 -124 136 -325 59 -488 -38 -81 -122 -161 -213
-205 -158 -75 -259 -87 -762 -87 l-387 0 -3 708 c-3 659 -4 710 -22 757 -25
69 -56 107 -110 136 -25 13 -46 27 -46 31 0 12 938 9 1048 -3z"/>
<path d="M3156 6885 c-43 -17 -106 -61 -106 -75 0 -15 71 -30 141 -30 50 0 77
6 115 25 54 27 102 70 90 82 -15 15 -200 13 -240 -2z"/>
<path d="M3320 6146 c-125 -20 -414 -78 -422 -85 -6 -5 371 -257 403 -269 6
-3 472 268 488 284 6 6 -86 43 -149 59 -83 22 -221 26 -320 11z"/>
<path d="M4026 5890 c-236 -143 -433 -263 -438 -268 -5 -5 23 -33 69 -67 100
-74 190 -151 275 -234 37 -36 69 -63 71 -60 195 274 510 472 852 535 115 21
413 15 520 -11 39 -9 79 -19 90 -22 16 -3 29 7 53 41 l33 46 -51 66 c-49 65
-57 84 -43 97 5 6 184 -83 270 -135 l31 -19 -29 -86 c-16 -48 -29 -92 -29 -97
1 -10 140 -100 145 -94 23 26 183 304 177 309 -4 4 -115 64 -247 133 l-240
126 -540 -1 -540 0 -429 -259z"/>
<path d="M4985 5551 l-50 -6 -47 -135 c-52 -151 -92 -290 -85 -296 5 -5 385
13 454 22 l42 5 -34 99 c-42 120 -111 280 -130 299 -15 16 -81 21 -150 12z"/>
<path d="M5463 5467 c17 -45 67 -212 78 -260 l13 -59 65 6 c36 3 115 8 175 12
l108 6 -53 55 c-78 79 -171 146 -281 203 -103 53 -113 57 -105 37z"/>
<path d="M4537 5410 c-124 -72 -225 -161 -323 -284 l-39 -49 160 7 c88 4 179
10 203 13 48 6 43 -9 66 173 9 69 19 137 23 153 7 37 -8 35 -90 -13z"/>
<path d="M4766 4981 c-19 -30 -84 -476 -72 -488 3 -4 151 1 329 10 177 10 333
17 346 17 l24 0 -6 103 c-6 109 -34 306 -46 326 -5 8 -76 15 -212 21 -112 5
-239 12 -281 14 -43 3 -80 2 -82 -3z"/>
<path d="M5595 4899 c4 -30 8 -125 8 -211 1 -154 1 -157 21 -153 12 2 140 9
284 16 l264 12 -7 45 c-11 76 -45 192 -74 257 l-29 62 -133 7 c-74 3 -181 9
-238 12 l-103 7 7 -54z"/>
<path d="M5570 4304 c-18 -91 -59 -242 -86 -312 l-23 -63 32 6 c31 5 589 75
600 75 18 0 77 222 77 288 l0 29 -227 12 c-126 6 -258 14 -295 18 l-66 5 -12
-58z"/>
<path d="M1430 2161 l0 -301 144 0 c116 0 156 4 210 20 83 26 141 71 179 139
26 46 32 68 35 140 7 148 -25 217 -123 266 -59 30 -62 30 -252 34 l-193 3 0
-301z"/>
<path d="M3300 2209 l0 -251 153 4 c173 5 240 23 294 80 54 58 68 95 67 183 0
184 -80 235 -366 235 l-148 0 0 -251z"/>
<path d="M3300 1471 l0 -331 153 0 c173 0 262 15 338 57 100 54 143 139 144
283 0 113 -18 173 -69 225 -72 74 -126 88 -363 93 l-203 4 0 -331z"/>
</g>
</svg>
