<?xml version="1.0" standalone="no"?>
<!DOCTYPE svg PUBLIC "-//W3C//DTD SVG 20010904//EN"
 "http://www.w3.org/TR/2001/REC-SVG-20010904/DTD/svg10.dtd">
<svg version="1.0" xmlns="http://www.w3.org/2000/svg"
 width="500.000000pt" height="500.000000pt" viewBox="0 0 500.000000 500.000000"
 preserveAspectRatio="xMidYMid meet">

<g transform="translate(0.000000,500.000000) scale(0.100000,-0.100000)"
fill="#000000" stroke="none">
<path d="M1955 4364 c-222 -33 -401 -120 -537 -260 -87 -89 -111 -122 -159
-218 -56 -110 -96 -238 -108 -347 -6 -52 -13 -230 -17 -396 l-7 -303 116 0
117 0 0 -63 0 -63 93 -54 c137 -81 127 -81 255 -5 60 36 113 65 119 65 6 0 14
-7 17 -16 3 -9 54 -99 113 -200 84 -143 110 -181 119 -171 7 6 73 119 147 251
l136 239 -25 50 c-14 27 -89 163 -166 300 -83 149 -142 267 -147 291 -9 56 6
208 29 289 47 168 195 367 358 483 23 16 42 32 42 35 0 11 -121 58 -190 74
-67 15 -251 27 -305 19z m-107 -1106 l-3 -73 -187 -3 -188 -2 0 75 0 75 190 0
191 0 -3 -72z"/>
<path d="M2838 4360 c-99 -12 -278 -69 -278 -89 0 -4 14 -15 30 -25 55 -32
209 -187 256 -257 94 -142 144 -296 147 -454 l2 -90 -49 -90 c-27 -49 -76
-137 -110 -195 -104 -181 -136 -242 -136 -257 0 -8 26 -58 57 -111 32 -54 63
-107 69 -119 41 -74 200 -341 214 -358 16 -19 153 -248 216 -362 18 -33 36
-53 47 -53 15 0 17 11 17 84 l0 84 31 6 c17 3 52 6 78 6 96 0 91 -8 91 165 l0
152 -51 6 c-28 4 -74 17 -102 30 -54 25 -117 72 -117 88 0 13 63 99 72 99 5 0
32 -13 61 -29 28 -16 71 -32 95 -36 41 -7 42 -6 42 22 0 25 -11 34 -115 91
-63 35 -115 66 -115 69 0 3 52 97 115 208 l115 204 -2 288 -3 288 -95 54 c-52
29 -158 90 -236 135 l-141 82 42 74 c23 41 65 116 94 165 l52 90 -40 12 c-48
14 -202 33 -251 32 -19 -1 -65 -5 -102 -9z m580 -1103 l-3 -72 -190 0 -190 0
-3 69 c-2 38 1 72 7 75 5 3 93 5 195 3 l187 -3 -3 -72z"/>
<path d="M2454 4216 c-206 -139 -366 -385 -389 -596 l-7 -65 31 42 c17 23 44
49 60 58 68 35 172 9 283 -71 l49 -34 57 38 c87 59 131 76 202 79 82 5 130
-20 178 -92 l34 -50 -7 40 c-24 146 -82 308 -143 405 -60 95 -184 212 -288
273 -6 3 -33 -9 -60 -27z"/>
<path d="M2473 2548 c-17 -62 -41 -156 -53 -208 -12 -52 -41 -171 -65 -265
-23 -93 -42 -171 -40 -173 1 -1 88 -1 193 0 l190 3 -93 374 c-52 205 -96 375
-98 377 -2 2 -18 -47 -34 -108z"/>
<path d="M1555 1670 c-11 -5 -32 -9 -46 -9 -23 -1 -27 -6 -31 -36 l-4 -35 113
0 113 0 0 45 0 45 -62 -1 c-35 0 -72 -4 -83 -9z"/>
<path d="M1870 1633 l0 -48 140 3 140 3 0 45 0 44 -140 0 -140 0 0 -47z"/>
<path d="M2360 1630 l0 -50 150 0 150 0 0 50 0 50 -150 0 -150 0 0 -50z"/>
<path d="M2870 1630 l0 -50 70 0 70 0 25 50 25 50 -95 0 -95 0 0 -50z"/>
<path d="M3444 1655 c9 -14 23 -36 32 -50 14 -22 23 -25 75 -25 l59 0 0 50 0
50 -91 0 -91 0 16 -25z"/>
<path d="M647 1314 c-4 -4 -7 -83 -7 -176 l0 -168 35 0 35 0 0 80 0 80 35 0
c28 0 35 4 35 20 0 16 -7 20 -36 20 l-35 0 3 53 3 52 38 3 c30 3 37 7 35 20
-3 14 -17 18 -69 20 -35 2 -68 0 -72 -4z"/>
<path d="M900 1298 c-5 -13 -21 -84 -35 -158 -15 -74 -29 -143 -31 -152 -4
-15 1 -18 30 -18 34 0 36 2 36 35 0 33 2 35 34 35 31 0 34 -3 40 -35 6 -31 11
-35 36 -35 17 0 30 4 30 8 0 12 -59 303 -66 325 -8 26 -62 23 -74 -5z m54
-160 c7 -47 7 -48 -19 -48 -29 0 -28 -7 -9 92 8 39 19 22 28 -44z"/>
<path d="M1117 1313 c-4 -3 -7 -82 -7 -175 l0 -168 30 0 30 0 0 175 0 175 -23
0 c-13 0 -27 -3 -30 -7z"/>
<path d="M1260 1146 l0 -176 30 0 30 0 0 81 c0 71 2 80 18 77 12 -2 22 -24 37
-81 19 -76 20 -77 51 -77 l33 0 -19 64 c-10 35 -21 73 -24 83 -4 13 1 26 14
38 15 14 20 31 20 71 0 67 -18 81 -118 90 l-72 7 0 -177z m120 114 c26 -26 25
-55 -1 -81 -32 -32 -53 -21 -57 30 -2 24 -1 50 2 57 8 20 33 17 56 -6z"/>
<path d="M1520 1308 c0 -8 14 -54 30 -103 23 -67 30 -107 30 -162 l0 -73 30 0
30 0 0 63 c0 44 10 93 34 167 19 57 32 108 30 112 -3 4 -16 8 -29 8 -21 0 -26
-8 -41 -61 -9 -33 -20 -56 -25 -52 -4 4 -14 31 -22 58 -12 42 -18 50 -40 53
-18 2 -27 -1 -27 -10z"/>
<path d="M1887 1314 c-4 -4 -7 -16 -7 -26 0 -13 8 -18 30 -18 l30 0 0 -150 0
-150 35 0 35 0 0 150 0 150 26 0 c21 0 25 4 22 23 -3 20 -9 22 -83 25 -45 1
-84 0 -88 -4z"/>
<path d="M2165 1308 c-2 -7 -15 -76 -30 -153 -15 -77 -29 -150 -32 -162 -4
-20 -1 -23 25 -23 30 0 42 14 42 51 0 15 7 19 35 19 28 0 35 -4 35 -19 0 -37
12 -51 41 -51 25 0 29 3 24 23 -6 27 -65 319 -65 324 0 10 -71 1 -75 -9z m58
-165 c6 -51 5 -53 -18 -53 -21 0 -23 3 -18 43 2 23 7 53 9 67 8 35 20 9 27
-57z"/>
<path d="M2380 1145 l0 -175 70 0 c63 0 70 2 70 20 0 17 -7 20 -40 20 l-40 0
0 155 0 155 -30 0 -30 0 0 -175z"/>
<path d="M2597 1313 c-4 -3 -7 -82 -7 -175 l0 -168 75 0 c68 0 75 2 75 19 0
16 -8 20 -42 23 l-43 3 0 55 c0 55 0 55 33 58 23 2 32 8 32 22 0 14 -9 20 -32
22 -32 3 -33 5 -36 51 l-3 47 40 0 c37 0 41 2 41 25 0 24 -2 25 -63 25 -35 0
-67 -3 -70 -7z"/>
<path d="M2833 1308 c-28 -13 -47 -60 -39 -94 4 -15 32 -53 62 -84 45 -47 55
-64 52 -87 -5 -41 -40 -39 -52 4 -9 28 -13 32 -35 26 -35 -8 -35 -7 -21 -47
14 -44 35 -56 94 -56 60 0 91 35 83 95 -5 32 -17 50 -61 92 -43 41 -56 60 -56
82 0 16 6 31 14 34 15 6 36 -11 36 -29 0 -18 17 -26 40 -19 50 16 -3 96 -62
94 -18 0 -43 -5 -55 -11z"/>
<path d="M3225 1311 c-44 -19 -50 -38 -50 -165 0 -153 7 -168 88 -180 9 -1 32
-17 51 -35 29 -28 34 -30 40 -15 4 10 0 24 -10 35 -15 17 -15 20 5 45 19 24
21 40 21 149 0 146 -9 165 -80 171 -25 2 -54 0 -65 -5z m73 -43 c14 -14 17
-225 3 -246 -4 -8 -19 -12 -32 -10 -24 3 -24 5 -27 122 -3 117 4 146 32 146 7
0 17 -5 24 -12z"/>
<path d="M3454 1306 c-3 -8 -4 -78 -2 -155 3 -128 5 -142 24 -162 31 -30 117
-30 148 0 19 20 21 34 24 167 2 89 0 150 -7 157 -5 5 -21 7 -35 3 l-25 -6 -3
-147 c-3 -137 -4 -148 -22 -151 -38 -8 -46 23 -46 170 l0 138 -25 0 c-14 0
-28 -6 -31 -14z"/>
<path d="M3737 1314 c-4 -4 -7 -83 -7 -176 l0 -168 75 0 c68 0 75 2 75 20 0
17 -7 20 -40 20 l-40 0 0 60 0 60 30 0 c23 0 30 4 30 20 0 16 -7 20 -30 20
-29 0 -30 1 -30 49 l0 50 38 3 c29 2 37 7 37 23 0 18 -8 20 -65 23 -36 2 -69
0 -73 -4z"/>
<path d="M3947 1313 c-4 -3 -7 -82 -7 -175 l0 -168 75 0 c68 0 75 2 75 20 0
17 -7 20 -40 20 l-40 0 0 60 0 60 30 0 c23 0 30 4 30 20 0 16 -7 20 -30 20
-29 0 -30 1 -30 50 l0 50 40 0 c36 0 40 3 40 25 0 24 -2 25 -68 25 -38 0 -72
-3 -75 -7z"/>
<path d="M4168 1314 c-5 -4 -8 -83 -8 -176 l0 -168 30 0 29 0 3 77 c2 60 6 78
18 81 11 2 21 -18 35 -75 20 -76 21 -78 54 -81 25 -3 32 0 29 10 -3 7 -14 46
-24 86 -14 54 -16 75 -7 80 36 22 39 114 5 145 -18 17 -152 34 -164 21z m110
-50 c28 -19 28 -58 1 -85 -32 -32 -53 -21 -57 30 -5 72 10 87 56 55z"/>
<path d="M477 793 c-11 -10 -8 -273 3 -273 5 0 10 30 12 68 l3 67 50 6 50 5
-50 5 -50 4 0 50 0 50 53 3 c28 2 52 7 52 13 0 10 -113 13 -123 2z"/>
<path d="M815 790 c-3 -5 3 -10 14 -10 20 0 21 -5 21 -124 0 -121 -1 -125 -22
-129 -13 -2 2 -4 32 -4 30 -1 47 1 38 4 -16 4 -18 19 -18 129 0 104 2 124 15
124 8 0 15 5 15 10 0 6 -20 10 -44 10 -25 0 -48 -4 -51 -10z"/>
<path d="M1156 793 c-3 -3 -6 -66 -6 -140 l0 -133 73 2 c69 2 70 2 15 5 l-58
4 0 129 c0 117 -6 151 -24 133z"/>
<path d="M1476 778 c-10 -39 -7 -258 4 -258 6 0 10 30 11 68 0 37 4 90 8 117
6 47 7 48 14 21 5 -17 15 -46 24 -65 l15 -36 21 65 c23 71 23 70 32 -72 4 -54
11 -98 16 -98 10 0 12 129 3 219 -4 38 -11 60 -18 58 -6 -2 -21 -30 -32 -63
-24 -65 -20 -67 -58 29 -17 42 -31 47 -40 15z"/>
<path d="M2000 659 c0 -108 3 -140 13 -137 7 3 13 29 15 71 l3 66 47 4 47 3
-47 2 c-27 1 -48 5 -49 10 0 4 -2 18 -4 32 -2 14 -1 35 2 48 5 19 11 22 60 22
33 0 52 4 48 10 -3 6 -35 10 -71 10 l-64 0 0 -141z"/>
<path d="M2340 660 l0 -140 68 2 67 1 -55 6 -55 6 -3 63 -3 62 48 2 48 1 -45
6 -45 6 -3 53 -3 52 55 0 c31 0 56 5 56 10 0 6 -28 10 -65 10 l-65 0 0 -140z"/>
<path d="M2702 784 c-16 -11 -22 -25 -22 -54 0 -34 5 -42 51 -74 46 -34 50
-40 47 -73 -5 -62 -57 -71 -83 -15 -11 26 -25 29 -25 7 0 -17 43 -65 59 -65
28 0 63 23 72 47 16 42 3 70 -51 109 -39 28 -50 42 -50 63 0 49 49 71 70 31
11 -21 30 -27 30 -10 0 16 -39 50 -58 50 -10 0 -28 -7 -40 -16z"/>
<path d="M3010 791 c0 -5 12 -11 28 -13 l27 -3 3 -127 c4 -171 22 -169 22 2
l0 130 30 0 c17 0 30 5 30 10 0 6 -30 10 -70 10 -38 0 -70 -4 -70 -9z"/>
<path d="M3376 791 c-3 -5 3 -11 14 -14 19 -5 20 -14 20 -121 0 -112 -1 -117
-22 -126 -18 -7 -11 -9 32 -9 43 0 50 2 33 9 -22 9 -23 14 -23 130 0 114 1
120 21 120 11 0 17 5 14 10 -8 12 -82 13 -89 1z"/>
<path d="M3688 795 c-5 -5 66 -272 75 -281 4 -5 78 256 77 276 0 33 -19 -10
-46 -103 -16 -59 -30 -93 -35 -85 -4 7 -17 49 -29 93 -24 87 -33 109 -42 100z"/>
<path d="M4090 796 c0 -3 -13 -58 -30 -123 -16 -65 -32 -126 -34 -135 -2 -10
0 -20 5 -23 5 -3 14 15 20 40 11 45 12 45 55 45 44 0 44 0 55 -46 7 -25 15
-42 19 -37 8 8 -48 247 -63 271 -8 11 -27 17 -27 8z m36 -101 c8 -31 13 -59
11 -62 -3 -2 -18 -3 -34 -1 l-30 3 15 63 c7 35 16 61 19 59 2 -3 11 -31 19
-62z"/>
<path d="M4400 660 l0 -140 68 2 67 2 -57 3 -58 4 0 134 c0 83 -4 135 -10 135
-6 0 -10 -53 -10 -140z"/>
</g>
</svg>
