<?xml version="1.0" standalone="no"?>
<!DOCTYPE svg PUBLIC "-//W3C//DTD SVG 20010904//EN"
 "http://www.w3.org/TR/2001/REC-SVG-20010904/DTD/svg10.dtd">
<svg version="1.0" xmlns="http://www.w3.org/2000/svg"
 width="1600.000000pt" height="737.000000pt" viewBox="0 0 1600.000000 737.000000"
 preserveAspectRatio="xMidYMid meet">

<g transform="translate(0.000000,737.000000) scale(0.100000,-0.100000)"
fill="#000000" stroke="none">
<path d="M5440 5180 l665 -5 -3 -27 c-1 -16 2 -28 8 -28 5 0 10 11 10 25 0 14
5 25 10 25 11 0 15 -1274 4 -1329 -4 -17 -11 -31 -16 -31 -6 0 -7 11 -4 25 4
14 2 25 -4 25 -11 0 -13 -24 -3 -58 4 -18 8 -21 15 -10 7 9 8 7 5 -9 -3 -13
-2 -23 2 -23 3 0 5 -18 3 -40 -2 -22 -8 -40 -13 -40 -5 0 -9 -11 -9 -25 0 -15
-7 -39 -15 -56 -9 -16 -13 -34 -10 -39 7 -12 -8 -42 -21 -40 -5 1 -10 -4 -13
-11 -2 -8 2 -10 13 -6 23 9 20 -3 -11 -35 -19 -20 -23 -31 -15 -40 12 -15 -7
-48 -28 -48 -7 0 -10 -8 -7 -19 2 -11 -3 -33 -14 -49 -14 -23 -23 -29 -40 -25
-18 5 -20 3 -14 -17 5 -15 4 -20 -4 -16 -6 4 -11 2 -11 -4 0 -7 7 -10 15 -6
22 8 18 -12 -5 -24 -11 -6 -18 -15 -15 -21 4 -5 1 -9 -4 -9 -6 0 -10 -5 -9
-12 2 -7 -3 -13 -9 -14 -26 -3 -28 -5 -15 -13 11 -7 11 -9 -1 -14 -20 -7 -16
16 6 41 21 23 21 27 0 29 -10 0 -29 -13 -43 -31 -17 -21 -19 -26 -5 -16 17 13
18 13 13 -1 -4 -9 -2 -21 4 -27 17 -17 -10 -44 -36 -37 -12 3 -16 2 -10 -1 16
-7 5 -46 -11 -41 -9 4 -36 -24 -39 -42 -3 -14 -53 -56 -61 -52 -20 10 -32 9
-32 -5 0 -11 3 -11 16 -1 14 11 14 10 3 -5 -12 -16 -16 -16 -37 -2 -20 13 -24
13 -35 -1 -9 -11 -10 -19 -3 -26 8 -8 13 -7 17 0 4 6 2 11 -4 11 -6 0 -8 5 -5
10 5 8 11 7 21 -1 22 -18 -24 -56 -64 -54 -17 1 -36 -2 -43 -6 -13 -8 -3 -29
14 -29 8 0 8 3 -2 9 -9 6 -10 11 -2 15 6 4 11 2 11 -5 0 -10 3 -10 12 -1 7 7
16 12 21 12 5 0 -1 -8 -14 -19 -17 -13 -34 -17 -64 -14 -38 4 -39 3 -16 -10
22 -13 22 -14 5 -22 -11 -5 -26 -10 -34 -10 -8 -1 -21 -3 -28 -4 -7 0 -11 -5
-7 -10 7 -12 -34 -36 -43 -26 -4 3 0 10 8 15 8 6 11 10 5 10 -16 0 -37 -16
-33 -26 1 -5 -10 -11 -26 -14 -16 -3 -31 -11 -34 -19 -3 -10 2 -11 19 -7 51
15 119 50 119 63 0 7 5 13 11 13 5 0 7 -5 4 -11 -13 -19 79 32 165 94 95 68
171 137 164 149 -3 4 1 8 8 8 18 1 66 53 125 135 60 84 118 185 106 185 -4 0
-3 4 4 8 15 9 46 82 36 82 -5 0 -3 4 3 8 15 9 66 172 60 189 -3 7 -2 13 3 13
24 0 31 205 31 853 l0 677 -692 -2 -693 -3 665 -5z m525 -1909 c3 -5 1 -12 -4
-15 -5 -3 -11 1 -15 9 -6 16 9 21 19 6z m-85 -75 c0 -2 -8 -10 -17 -17 -16
-13 -17 -12 -4 4 13 16 21 21 21 13z"/>
<path d="M4670 5170 c-28 -6 -18 -8 48 -9 47 0 82 -5 82 -11 0 -6 31 -9 78 -8
l77 2 -70 3 c-38 2 -74 8 -81 13 -16 14 -93 20 -134 10z"/>
<path d="M6763 4199 c4 -1093 1 -1047 72 -1194 66 -138 200 -236 367 -270 134
-26 331 -18 466 21 l52 15 -5 82 c-3 45 -8 130 -11 189 l-6 106 -41 -14 c-61
-22 -194 -29 -257 -14 -75 18 -115 57 -140 137 -19 62 -20 92 -20 567 l0 501
242 0 243 0 3 193 2 192 -245 0 -245 0 0 44 c0 171 -82 312 -225 382 -64 32
-86 37 -165 42 l-91 5 4 -984z"/>
<path d="M4848 5163 c6 -2 18 -2 25 0 6 3 1 5 -13 5 -14 0 -19 -2 -12 -5z"/>
<path d="M11420 3965 l0 -1205 240 0 240 0 2 1205 3 1205 -242 0 -243 0 0
-1205z"/>
<path d="M12310 3965 l0 -1205 240 0 240 0 0 1205 0 1205 -240 0 -240 0 0
-1205z"/>
<path d="M4546 5144 c-34 -11 -46 -18 -38 -26 8 -8 23 -4 52 11 22 11 48 21
58 20 14 0 14 -2 -3 -9 -13 -6 -15 -9 -5 -9 8 0 21 3 28 8 11 7 10 10 -3 15
-22 8 -32 7 -89 -10z"/>
<path d="M4683 5143 c9 -2 23 -2 30 0 6 3 -1 5 -18 5 -16 0 -22 -2 -12 -5z"/>
<path d="M4406 5095 c-102 -43 -226 -117 -226 -136 0 -9 -7 -20 -16 -23 -12
-5 -15 -2 -10 9 9 25 -108 -72 -177 -145 -99 -104 -130 -147 -112 -153 8 -4
17 -2 20 4 4 5 10 7 15 4 5 -3 7 3 5 14 -4 22 38 74 51 63 5 -4 2 1 -6 11 -11
16 -11 18 1 15 8 -2 13 3 11 12 -2 11 2 9 13 -4 8 -10 12 -23 8 -29 -3 -6 -2
-7 4 -4 11 7 11 36 0 54 -11 18 46 46 62 30 8 -8 14 -8 23 2 11 10 10 11 -3 6
-9 -3 -21 1 -28 9 -10 12 -8 16 10 21 12 4 36 22 54 41 29 29 35 32 47 20 12
-12 16 -9 27 16 7 16 27 35 45 44 17 8 22 12 11 9 -20 -5 -20 -5 -1 10 25 19
36 18 61 -2 20 -15 20 -15 -2 -10 -13 3 -23 1 -23 -4 0 -5 13 -8 29 -7 21 2
27 6 21 14 -6 6 -7 14 -3 18 4 4 -1 4 -12 0 -18 -7 -18 -6 -6 9 7 9 10 17 5
17 -5 0 4 7 19 15 15 8 34 12 41 9 8 -3 17 -1 20 4 3 6 16 8 29 6 19 -4 20 -3
3 4 -15 6 -16 11 -7 16 8 5 22 -1 37 -15 13 -12 26 -20 28 -18 7 7 -6 24 -29
38 -19 11 -19 12 4 5 17 -4 21 -3 16 6 -5 9 -4 11 3 6 7 -4 12 -2 12 3 0 15
-7 14 -74 -14z m-21 -25 c-3 -5 -12 -10 -18 -10 -7 0 -6 4 3 10 19 12 23 12
15 0z m-85 -44 c0 -3 -4 -8 -10 -11 -5 -3 -10 -1 -10 4 0 6 5 11 10 11 6 0 10
-2 10 -4z m-400 -350 c0 -2 -8 -10 -17 -17 -16 -13 -17 -12 -4 4 13 16 21 21
21 13z"/>
<path d="M4477 5094 c-9 -10 2 -24 19 -24 8 0 14 7 14 15 0 15 -21 21 -33 9z"/>
<path d="M4380 5001 c0 -10 47 -21 54 -13 3 3 3 9 0 13 -7 12 -54 12 -54 0z"/>
<path d="M4456 4982 c-3 -5 1 -9 9 -9 8 0 12 4 9 9 -3 4 -7 8 -9 8 -2 0 -6 -4
-9 -8z"/>
<path d="M4220 4945 c-7 -9 -8 -15 -2 -15 5 0 12 7 16 15 3 8 4 15 2 15 -2 0
-9 -7 -16 -15z"/>
<path d="M3245 4913 c-78 -14 -311 -12 -392 3 l-33 6 0 -2141 0 -2141 260 0
260 0 0 2145 c0 1180 -3 2144 -7 2144 -5 -1 -44 -8 -88 -16z"/>
<path d="M4100 4846 c0 -9 7 -16 16 -16 17 0 14 22 -4 28 -7 2 -12 -3 -12 -12z"/>
<path d="M5680 4795 c0 -9 6 -12 15 -9 8 4 15 7 15 9 0 2 -7 5 -15 9 -9 3 -15
0 -15 -9z"/>
<path d="M4641 4758 c-1 -20 24 -24 35 -6 5 7 2 9 -9 5 -9 -3 -18 -1 -21 6 -2
7 -5 4 -5 -5z"/>
<path d="M4800 4761 c0 -3 177 -6 394 -6 217 0 392 2 390 4 -7 8 -784 9 -784
2z"/>
<path d="M8952 4755 c-167 -37 -311 -148 -406 -315 l-31 -55 -3 163 -2 162
-233 0 -232 0 3 -970 2 -970 240 0 240 0 0 553 c0 519 1 559 20 631 26 102 63
168 130 237 68 68 126 103 208 124 70 18 193 23 265 12 l47 -8 0 219 0 220
-31 6 c-50 10 -149 6 -217 -9z"/>
<path d="M10073 4759 c-293 -38 -558 -199 -711 -433 -236 -362 -225 -906 26
-1237 211 -278 592 -423 995 -380 260 28 446 115 615 289 80 82 82 86 65 103
-10 10 -83 70 -163 134 -132 106 -146 114 -158 98 -62 -87 -180 -172 -281
-204 -94 -30 -274 -37 -361 -14 -223 57 -390 226 -417 421 l-6 44 748 0 748 0
-6 163 c-7 193 -25 302 -71 432 -81 227 -217 387 -416 489 -172 89 -392 123
-607 95z m232 -359 c207 -29 357 -189 372 -397 l6 -73 -502 0 -501 0 0 23 c0
12 6 45 14 72 52 197 229 347 441 375 85 11 92 11 170 0z"/>
<path d="M14717 4759 c-164 -24 -328 -90 -428 -172 -67 -55 -141 -160 -170
-242 -29 -85 -36 -238 -15 -329 52 -219 215 -337 596 -431 297 -73 385 -122
410 -227 25 -103 -21 -191 -129 -242 -64 -30 -71 -31 -196 -31 -118 1 -137 3
-200 28 -89 35 -176 92 -239 156 l-50 51 -60 -58 c-34 -31 -105 -99 -159 -149
l-99 -92 39 -36 c214 -201 557 -309 880 -277 296 30 479 118 594 287 68 99 91
175 97 315 7 187 -32 293 -148 404 -106 101 -230 157 -499 226 -341 86 -401
125 -401 256 0 129 119 207 315 207 146 -1 279 -57 385 -163 48 -48 26 -60
219 110 l142 125 -70 66 c-117 111 -282 182 -493 213 -113 17 -227 19 -321 5z"/>
<path d="M4595 4720 c3 -5 11 -10 16 -10 6 0 7 5 4 10 -3 6 -11 10 -16 10 -6
0 -7 -4 -4 -10z"/>
<path d="M4655 4720 c3 -5 10 -10 16 -10 5 0 9 5 9 10 0 6 -7 10 -16 10 -8 0
-12 -4 -9 -10z"/>
<path d="M4800 4714 c-25 -8 -58 -12 -75 -9 -19 3 -25 2 -17 -4 9 -5 0 -10
-28 -15 -24 -4 -51 -11 -62 -17 -37 -20 -12 -18 52 4 63 21 83 22 535 25 l470
3 -6 -468 c-4 -339 -9 -479 -18 -507 -9 -27 -10 -41 -2 -49 6 -6 11 -9 12 -7
5 39 10 89 10 104 0 10 3 16 6 12 9 -9 32 26 32 49 l0 20 -9 -20 c-6 -12 -9
158 -9 422 1 468 1 463 -45 471 -11 2 -15 -1 -11 -7 9 -15 -8 -14 -24 2 -11
10 -13 10 -7 0 6 -10 -72 -13 -373 -13 -208 0 -381 4 -383 9 -1 5 -23 2 -48
-5z"/>
<path d="M3940 4700 c0 -5 7 -10 15 -10 8 0 15 5 15 10 0 6 -7 10 -15 10 -8 0
-15 -4 -15 -10z"/>
<path d="M4568 4703 c7 -3 16 -2 19 1 4 3 -2 6 -13 5 -11 0 -14 -3 -6 -6z"/>
<path d="M5743 4695 c0 -8 4 -12 9 -9 5 3 6 10 3 15 -9 13 -12 11 -12 -6z"/>
<path d="M4628 4693 c6 -2 18 -2 25 0 6 3 1 5 -13 5 -14 0 -19 -2 -12 -5z"/>
<path d="M4560 4682 c0 -7 6 -12 13 -12 7 0 8 -3 2 -8 -17 -12 -16 -32 1 -25
8 3 12 8 9 11 -3 3 3 15 12 26 13 15 14 17 2 9 -12 -10 -18 -10 -27 -1 -9 9
-12 9 -12 0z"/>
<path d="M11 3968 c0 -387 4 -723 8 -748 7 -36 9 -39 10 -15 1 24 3 27 12 15
14 -20 1 48 -14 71 -7 11 -7 30 1 62 9 32 12 232 12 672 0 497 3 626 13 622 9
-3 12 -140 12 -643 0 -351 3 -612 8 -579 4 33 6 324 5 648 l-3 587 659 0 c362
0 661 2 664 5 3 3 -301 5 -676 5 -375 0 -683 -1 -684 -2 -2 -2 -5 -277 -8
-613 l-6 -610 1 613 c0 336 -3 612 -7 612 -5 0 -8 -316 -7 -702z"/>
<path d="M3980 4660 c0 -5 5 -10 10 -10 6 0 10 5 10 10 0 6 -4 10 -10 10 -5 0
-10 -4 -10 -10z"/>
<path d="M1420 4651 c8 -6 32 -11 52 -11 20 0 40 -5 43 -10 4 -6 16 -8 28 -5
20 5 19 4 -3 -10 -18 -12 -19 -14 -5 -10 50 18 58 18 50 5 -6 -10 1 -11 31 -6
29 5 35 4 24 -4 -11 -8 -8 -9 14 -4 19 5 27 3 22 -4 -6 -11 71 -29 81 -19 8 9
-196 70 -212 63 -7 -2 -15 -1 -17 4 -2 5 -30 12 -63 15 -44 5 -56 4 -45 -4z"/>
<path d="M4406 4641 c-4 -5 3 -7 14 -4 23 6 26 13 6 13 -8 0 -17 -4 -20 -9z"/>
<path d="M4475 4640 l-30 -8 30 -1 c21 -1 26 -4 17 -10 -22 -14 10 -21 34 -7
26 15 31 41 5 26 -25 -13 -34 -13 -26 0 3 6 5 9 3 9 -2 -1 -16 -5 -33 -9z"/>
<path d="M3834 4614 c3 -8 0 -13 -6 -11 -22 4 -143 -247 -150 -313 -2 -14 -6
-27 -9 -30 -9 -7 -39 -143 -39 -174 0 -14 5 -28 11 -32 7 -4 10 5 9 27 -4 67
0 100 10 94 6 -4 8 -16 5 -28 -5 -20 -5 -20 5 -4 8 13 9 22 1 31 -12 14 -4 73
10 82 5 3 9 18 9 34 0 31 22 50 52 45 14 -3 16 0 8 15 -6 10 -7 25 -4 33 3 8
1 18 -5 22 -6 3 -11 11 -11 16 0 6 4 7 10 4 5 -3 15 15 21 39 7 28 16 43 22
39 6 -4 8 0 4 10 -4 10 9 29 38 55 56 53 60 60 29 60 -17 0 -24 -5 -20 -14z
m-98 -247 c1 -18 -1 -26 -3 -19 -4 10 -8 10 -21 0 -14 -11 -14 -9 1 15 10 15
15 33 11 40 -4 7 -3 8 2 4 5 -5 9 -23 10 -40z"/>
<path d="M3904 4600 c1 -39 16 -39 16 0 0 17 -4 30 -9 30 -4 0 -8 -13 -7 -30z"/>
<path d="M4412 4618 c-16 -16 -15 -37 3 -44 21 -8 9 -23 -14 -17 -17 4 -35
-11 -36 -29 0 -5 -3 -8 -7 -8 -5 0 -13 0 -20 0 -6 0 -3 9 7 20 18 20 18 21 0
14 -14 -6 -16 -4 -10 6 5 8 4 11 -2 7 -14 -9 -9 -47 8 -58 8 -5 11 -9 7 -10
-12 -2 -27 -6 -35 -9 -5 -2 -14 -4 -22 -4 -7 -1 -21 -12 -30 -26 -9 -13 -11
-21 -5 -17 7 4 15 0 18 -9 3 -8 2 -12 -4 -9 -6 3 -10 -1 -10 -10 0 -9 -4 -14
-9 -10 -5 3 -13 0 -17 -6 -4 -8 -3 -9 4 -5 17 11 15 -9 -3 -24 -11 -9 -15 -9
-15 -1 0 7 -4 9 -10 6 -5 -3 -10 2 -10 11 0 14 -3 15 -11 7 -9 -9 -8 -16 3
-27 9 -8 18 -12 22 -9 3 4 6 1 6 -6 0 -6 -7 -14 -15 -17 -9 -4 -15 -11 -14
-18 3 -24 -2 -36 -13 -34 -7 2 -13 -5 -13 -14 0 -10 -4 -17 -9 -17 -9 1 -26
-21 -26 -34 0 -5 5 -5 10 -2 6 3 10 1 10 -4 0 -6 -9 -16 -20 -23 -23 -15 -27
-30 -6 -22 11 4 13 0 9 -15 -4 -18 -32 -20 -34 -2 -5 42 -4 51 8 51 8 0 11 5
8 10 -3 6 -12 10 -19 10 -10 0 -13 -19 -12 -69 1 -38 5 -67 9 -64 4 2 5 13 2
24 -4 11 -2 19 5 19 13 0 6 -77 -13 -143 -8 -28 -7 -41 1 -49 18 -18 17 -724
0 -731 -10 -4 -9 -8 2 -16 10 -7 11 -11 3 -11 -7 0 -12 -11 -11 -24 1 -14 5
-23 9 -20 4 2 9 -1 11 -7 2 -7 148 -11 476 -12 389 -2 473 0 477 12 3 9 14 11
31 7 19 -5 24 -4 18 5 -5 9 -2 10 9 6 8 -3 21 1 27 9 15 17 30 18 26 2 -1 -7
-1 -10 1 -5 3 4 10 7 17 7 7 0 21 9 31 20 10 11 24 20 32 20 7 0 13 5 13 10 0
15 -27 12 -44 -5 -8 -9 -18 -15 -21 -15 -19 2 -57 -15 -65 -29 -5 -9 -10 -11
-10 -4 0 12 -6 12 -45 -2 -33 -12 -51 -13 -518 -14 l-448 -2 1 443 c0 416 1
448 21 528 12 47 36 115 55 151 38 76 122 190 171 233 18 15 30 32 28 36 -3 5
0 12 6 16 8 4 9 3 5 -4 -12 -19 3 -14 42 15 55 40 60 46 32 38 -22 -7 -23 -6
-11 9 9 10 10 16 2 16 -6 0 -12 -4 -12 -10 -1 -5 -3 -14 -4 -20 -1 -5 -3 -13
-4 -16 0 -4 -8 -1 -16 6 -14 12 -14 15 1 31 19 21 6 27 -14 7z m-82 -132 c0
-2 -8 -10 -17 -17 -16 -13 -17 -12 -4 4 13 16 21 21 21 13z m-44 -21 c-3 -8 0
-15 6 -15 6 0 9 -3 5 -6 -10 -11 -26 6 -20 21 3 8 7 15 10 15 3 0 3 -7 -1 -15z
m911 -1291 c-3 -3 -12 -4 -19 -1 -8 3 -5 6 6 6 11 1 17 -2 13 -5z"/>
<path d="M1445 4601 c-3 -5 -1 -12 5 -16 5 -3 10 1 10 9 0 18 -6 21 -15 7z"/>
<path d="M1765 4561 c-7 -12 19 -38 45 -46 11 -3 20 -10 20 -14 0 -10 56 -9
65 1 4 4 -21 20 -55 37 -70 35 -67 34 -75 22z m30 -12 c8 -12 56 -33 68 -30 5
1 6 -3 2 -9 -4 -6 -17 -4 -38 6 -35 19 -63 44 -48 44 5 0 13 -5 16 -11z"/>
<path d="M1565 4540 c-4 -6 5 -10 24 -8 16 1 27 6 25 10 -7 11 -42 10 -49 -2z"/>
<path d="M3825 4523 c-7 -26 -8 -27 -16 -8 l-9 20 3 -20 c2 -11 8 -19 14 -18
7 2 9 -12 6 -40 -3 -23 -2 -39 1 -35 8 6 18 128 12 128 -2 0 -7 -12 -11 -27z"/>
<path d="M1765 4511 c-3 -5 -1 -12 5 -16 5 -3 10 1 10 9 0 18 -6 21 -15 7z"/>
<path d="M1660 4500 c0 -5 14 -10 31 -10 17 0 28 4 24 10 -3 6 -17 10 -31 10
-13 0 -24 -4 -24 -10z"/>
<path d="M1910 4491 c0 -6 8 -11 18 -11 12 0 14 -3 4 -8 -13 -9 -12 -46 3 -59
4 -5 5 -2 1 5 -12 21 34 32 56 13 18 -15 18 -16 1 -29 -16 -13 -16 -13 7 -7
22 7 23 6 11 -9 -9 -11 -10 -16 -2 -16 7 0 11 -8 9 -17 -2 -14 4 -18 27 -18
23 0 29 4 27 18 -4 25 2 22 48 -23 22 -22 36 -40 31 -40 -5 0 -17 7 -25 16 -9
8 -16 12 -16 7 0 -5 6 -15 13 -22 10 -10 8 -15 -7 -26 -18 -13 -18 -14 3 -12
11 1 21 6 21 12 0 16 53 12 58 -4 3 -8 0 -11 -6 -7 -6 3 -14 1 -18 -5 -4 -8
-3 -9 4 -5 7 4 12 0 13 -11 0 -10 3 -13 6 -5 8 21 25 13 19 -10 -3 -13 -3 -17
0 -10 3 6 10 12 15 12 6 0 7 -5 3 -12 -5 -7 -3 -8 6 -3 10 6 12 4 7 -8 -4 -10
-2 -16 6 -14 7 1 11 -4 9 -10 -1 -7 3 -13 9 -13 6 0 9 -7 5 -15 -3 -8 -2 -14
2 -14 19 3 26 -2 13 -10 -9 -6 -10 -11 -2 -15 6 -4 11 -2 11 4 0 6 5 8 10 5 6
-4 7 -11 4 -17 -4 -6 -2 -8 4 -4 6 3 12 -2 14 -11 2 -11 6 -14 10 -7 4 6 -8
29 -27 52 -19 22 -35 44 -35 49 0 22 -243 253 -266 253 -4 0 -12 6 -18 13 -18
22 -86 60 -86 48z m60 -36 c0 -2 -9 -3 -19 -2 -11 0 -18 5 -15 9 4 6 34 0 34
-7z m77 -68 c-6 -20 -26 -19 -24 1 1 12 6 18 14 15 8 -3 12 -10 10 -16z m14
-21 c-9 -11 -9 -15 1 -19 7 -2 0 -4 -15 -4 -27 0 -27 0 -11 18 20 22 42 26 25
5z"/>
<path d="M1940 4359 c0 -5 5 -7 10 -4 6 3 10 8 10 11 0 2 -4 4 -10 4 -5 0 -10
-5 -10 -11z"/>
<path d="M4171 4348 c0 -9 -4 -25 -7 -35 -5 -17 -5 -17 6 0 6 10 9 25 7 35 -4
15 -5 15 -6 0z"/>
<path d="M13230 3540 l0 -780 240 0 240 0 0 780 0 780 -240 0 -240 0 0 -780z"/>
<path d="M2085 4280 c-3 -5 1 -10 9 -10 9 0 16 5 16 10 0 6 -4 10 -9 10 -6 0
-13 -4 -16 -10z"/>
<path d="M1298 4263 c7 -3 16 -2 19 1 4 3 -2 6 -13 5 -11 0 -14 -3 -6 -6z"/>
<path d="M481 4234 c0 -11 3 -14 6 -6 3 7 2 16 -1 19 -3 4 -6 -2 -5 -13z"/>
<path d="M504 4230 c1 -9 12 -16 26 -17 21 -1 21 -1 3 3 -12 3 -24 11 -26 17
-2 7 -3 5 -3 -3z"/>
<path d="M525 4240 c-3 -5 -1 -10 4 -10 6 0 11 5 11 10 0 6 -2 10 -4 10 -3 0
-8 -4 -11 -10z"/>
<path d="M630 4243 c207 -7 730 -7 730 0 0 4 -183 6 -407 5 -225 -1 -370 -3
-323 -5z"/>
<path d="M1370 4240 c0 -5 9 -10 21 -10 11 0 17 5 14 10 -3 6 -13 10 -21 10
-8 0 -14 -4 -14 -10z"/>
<path d="M738 4223 c101 -2 263 -2 360 0 97 1 15 2 -183 2 -198 0 -278 -1
-177 -2z"/>
<path d="M1325 4210 c-47 -10 -820 -14 -835 -5 -6 4 -7 -1 -3 -11 3 -10 2 -15
-3 -12 -8 6 -9 -486 -1 -737 2 -49 4 96 5 323 l2 412 438 1 c240 1 442 0 447
-1 78 -20 132 -27 139 -20 6 6 -8 12 -32 16 -23 4 -42 9 -42 13 0 3 -28 5 -62
5 -48 -1 -56 0 -35 6 16 5 36 6 44 3 11 -4 14 -2 9 5 -8 13 -13 13 -71 2z"/>
<path d="M2165 4200 c-3 -5 -2 -10 4 -10 5 0 18 -3 28 -7 16 -6 16 -5 4 10
-15 19 -27 22 -36 7z"/>
<path d="M1587 4153 c3 -7 9 -13 15 -13 5 0 6 5 2 12 -7 11 6 9 51 -7 18 -7
18 -6 -2 9 -25 19 -73 18 -66 -1z"/>
<path d="M1530 4150 c-18 -12 -2 -12 25 0 13 6 15 9 5 9 -8 0 -22 -4 -30 -9z"/>
<path d="M2240 4120 c0 -25 4 -30 23 -29 19 1 19 2 3 6 -13 3 -15 7 -7 12 6 4
9 15 5 24 -10 27 -24 20 -24 -13z"/>
<path d="M1620 4103 c41 -21 78 -36 83 -35 4 1 7 -2 7 -7 0 -5 31 -32 69 -60
37 -28 80 -69 95 -91 14 -22 31 -40 36 -40 6 0 9 -3 8 -7 -4 -15 37 -70 50
-66 13 5 17 -13 4 -19 -5 -1 3 -29 19 -61 16 -34 30 -53 34 -47 4 7 2 17 -4
23 -6 6 -11 19 -11 30 0 11 -4 15 -12 11 -7 -5 -9 -2 -5 8 3 9 1 20 -5 26 -6
6 -5 14 4 23 11 10 12 18 4 36 -12 25 -41 31 -49 11 -3 -9 -7 -7 -11 5 -3 9
-9 25 -13 35 -3 9 -5 20 -5 25 1 4 -4 6 -10 5 -8 -2 -12 5 -10 17 2 15 0 16
-6 7 -7 -11 -10 -10 -16 3 -8 23 -8 23 11 27 15 3 15 4 0 17 -15 12 -17 11
-17 -3 0 -22 -16 -20 -40 4 -11 11 -24 20 -30 20 -5 0 -10 4 -10 9 0 5 -9 13
-20 16 -11 4 -18 11 -15 16 3 5 -2 6 -11 2 -13 -5 -15 -3 -9 7 5 9 4 11 -3 6
-11 -7 -17 6 -13 28 1 5 -5 4 -13 -3 -13 -11 -17 -10 -22 3 -3 9 -10 14 -14
11 -5 -3 -11 -1 -15 5 -3 5 -1 10 6 10 7 0 4 7 -7 15 -10 8 -23 14 -29 14 -5
0 -1 -6 9 -14 25 -19 18 -19 -27 0 -70 29 -61 14 13 -22z m350 -278 c-7 -9
-15 -13 -17 -11 -7 7 7 26 19 26 6 0 6 -6 -2 -15z"/>
<path d="M1697 4123 c-13 -13 -7 -21 13 -16 11 3 20 9 20 14 0 10 -24 12 -33
2z"/>
<path d="M3660 4098 c0 -9 5 -20 10 -23 13 -8 13 5 0 25 -8 13 -10 13 -10 -2z"/>
<path d="M2272 4068 c2 -6 10 -14 16 -16 7 -2 10 2 6 12 -7 18 -28 22 -22 4z"/>
<path d="M2346 4061 c-9 -13 12 -53 24 -46 9 5 34 -52 31 -72 -1 -7 3 -13 8
-13 6 0 8 -8 5 -17 -5 -15 -4 -16 5 -3 9 13 11 12 12 -5 3 -40 4 -46 15 -53
17 -11 36 -77 37 -130 0 -30 3 -39 7 -27 6 15 8 11 12 -20 3 -22 5 -58 4 -80
-2 -49 5 -65 16 -39 6 13 7 10 3 -11 -3 -16 -8 -41 -10 -55 l-5 -25 8 25 c17
53 22 -102 22 -681 0 -373 -4 -589 -10 -589 -6 0 -10 -9 -10 -20 0 -11 -8 -29
-17 -39 -16 -19 -34 -20 -672 -21 -412 0 -667 4 -686 10 -30 10 -30 10 -2 6
15 -2 30 1 33 6 4 6 -11 9 -37 7 -70 -5 -187 12 -193 27 -4 10 4 14 29 14 19
0 35 5 35 10 0 16 -30 24 -43 11 -6 -6 -16 -11 -22 -11 -5 0 -4 4 3 9 11 7 10
9 -3 14 -9 4 -13 3 -10 -3 3 -6 -1 -10 -9 -10 -9 0 -16 5 -16 10 0 6 -4 10
-10 10 -21 0 -9 -19 18 -28 15 -6 21 -11 14 -11 -7 -1 -10 -5 -7 -11 7 -12 -2
-12 -30 0 -12 5 -14 9 -6 9 11 1 10 6 -4 21 -19 21 -55 27 -55 9 0 -6 9 -8 20
-4 16 5 20 2 20 -18 0 -22 7 -27 53 -38 28 -7 59 -13 67 -14 9 0 20 -4 25 -7
36 -22 217 -28 831 -28 557 0 664 2 664 14 0 7 7 19 15 26 17 15 19 7 5 -21
-8 -15 -7 -19 5 -19 13 0 15 74 15 663 0 401 -4 696 -10 747 -21 165 -74 336
-145 465 -34 62 -41 70 -49 56z m24 -36 c0 -5 -5 -3 -10 5 -5 8 -10 20 -10 25
0 6 5 3 10 -5 5 -8 10 -19 10 -25z"/>
<path d="M3622 3353 l-2 -703 706 0 c467 0 703 3 699 10 -3 6 -14 10 -24 10
-9 0 -22 5 -29 12 -9 9 -12 9 -12 0 0 -10 -149 -12 -660 -12 -363 0 -661 2
-662 3 -1 1 -5 313 -8 692 l-6 690 -2 -702z"/>
<path d="M2320 4020 c0 -5 5 -10 11 -10 5 0 7 5 4 10 -3 6 -8 10 -11 10 -2 0
-4 -4 -4 -10z"/>
<path d="M3667 3984 c3 -27 7 -51 9 -53 8 -9 3 75 -5 88 -5 8 -7 -5 -4 -35z"/>
<path d="M1835 4001 c-3 -5 -1 -12 5 -16 5 -3 10 1 10 9 0 18 -6 21 -15 7z"/>
<path d="M3642 3985 c0 -16 2 -22 5 -12 2 9 2 23 0 30 -3 6 -5 -1 -5 -18z"/>
<path d="M3655 3335 c0 -330 1 -464 2 -297 2 167 2 437 0 600 -1 163 -2 27 -2
-303z"/>
<path d="M2427 3820 c3 -11 7 -20 9 -20 2 0 4 9 4 20 0 11 -4 20 -9 20 -5 0
-7 -9 -4 -20z"/>
<path d="M2072 3795 c0 -16 2 -22 5 -12 2 9 2 23 0 30 -3 6 -5 -1 -5 -18z"/>
<path d="M2445 3787 c-8 -32 -3 -43 12 -25 6 7 7 22 3 33 -7 18 -8 17 -15 -8z"/>
<path d="M6080 3785 c0 -5 5 -17 10 -25 5 -8 10 -10 10 -5 0 6 -5 17 -10 25
-5 8 -10 11 -10 5z"/>
<path d="M2402 3714 c-1 -15 2 -22 8 -19 12 7 13 32 2 39 -4 2 -9 -7 -10 -20z"/>
<path d="M6082 3710 c0 -14 2 -19 5 -12 2 6 2 18 0 25 -3 6 -5 1 -5 -13z"/>
<path d="M2060 3657 c0 -8 -3 -22 -6 -30 -3 -8 1 -17 8 -19 14 -6 19 44 6 58
-5 4 -8 0 -8 -9z"/>
<path d="M5630 3660 c0 -5 5 -10 10 -10 6 0 10 5 10 10 0 6 -4 10 -10 10 -5 0
-10 -4 -10 -10z"/>
<path d="M6082 3638 c-1 -26 1 -30 9 -15 6 10 6 23 1 33 -7 12 -9 8 -10 -18z"/>
<path d="M5656 3645 c-9 -26 -7 -32 5 -12 6 10 9 21 6 23 -2 3 -7 -2 -11 -11z"/>
<path d="M2027 3630 c3 -14 11 -41 16 -60 6 -20 13 -230 16 -493 l6 -458 -475
1 c-316 1 -479 5 -488 12 -7 6 -15 8 -19 5 -13 -14 68 -37 109 -32 31 4 37 3
23 -4 -12 -5 138 -8 395 -6 492 3 460 2 460 18 4 133 -2 912 -7 920 -7 11 -14
56 -14 96 -1 16 -4 20 -9 11 -6 -10 -9 -9 -14 1 -3 8 -3 3 1 -11z"/>
<path d="M5617 3626 c-6 -15 1 -26 15 -26 4 0 8 9 8 20 0 23 -15 27 -23 6z"/>
<path d="M2481 3594 c0 -11 3 -14 6 -6 3 7 2 16 -1 19 -3 4 -6 -2 -5 -13z"/>
<path d="M5670 3601 c0 -6 4 -13 10 -16 6 -3 7 1 4 9 -7 18 -14 21 -14 7z"/>
<path d="M5582 3554 c-49 -101 -169 -232 -270 -294 -35 -21 -49 -36 -45 -46 5
-13 8 -13 23 1 20 18 34 20 24 3 -4 -7 -3 -8 5 -4 6 4 9 12 6 17 -4 5 1 9 10
9 9 0 14 -4 10 -9 -3 -5 -1 -12 3 -15 5 -3 8 7 7 22 -1 35 34 74 54 58 8 -6
12 -6 9 -1 -9 15 59 88 73 79 8 -4 9 -3 5 4 -4 7 -2 12 4 12 7 0 10 6 7 14 -4
9 2 16 15 19 13 4 19 11 15 21 -6 15 16 30 27 18 4 -3 13 -7 22 -8 11 -2 12 1
5 10 -6 7 -6 18 -1 25 4 8 6 20 3 28 -3 7 0 13 7 13 7 0 10 8 7 20 -3 11 -1
23 4 26 11 7 12 24 1 24 -4 0 -18 -21 -30 -46z m9 -17 c-10 -9 -11 -8 -5 6 3
10 9 15 12 12 3 -3 0 -11 -7 -18z m-11 -46 c-5 -10 -6 -22 -2 -27 4 -5 0 -4
-7 3 -11 9 -11 15 -3 26 7 8 8 18 4 22 -4 5 -1 5 6 1 8 -5 9 -13 2 -25z m-270
-245 c0 -2 -8 -10 -17 -17 -16 -13 -17 -12 -4 4 13 16 21 21 21 13z"/>
<path d="M5660 3571 c0 -5 6 -12 13 -14 9 -4 8 -8 -3 -17 -13 -9 -12 -11 4 -8
27 4 31 25 7 38 -12 6 -21 7 -21 1z"/>
<path d="M2482 3504 c0 -21 0 -329 -1 -683 -1 -354 1 -646 4 -649 3 -3 5 286
5 642 0 377 4 645 9 642 8 -6 -5 74 -14 83 -3 2 -4 -13 -3 -35z"/>
<path d="M5989 3525 c-6 -27 18 -112 28 -101 3 3 -2 19 -10 36 -15 30 -15 31
4 25 20 -7 27 9 9 20 -6 4 -8 11 -5 16 4 5 -1 9 -9 9 -9 0 -16 -2 -17 -5z"/>
<path d="M5580 3389 c0 -5 5 -7 10 -4 6 3 10 8 10 11 0 2 -4 4 -10 4 -5 0 -10
-5 -10 -11z"/>
<path d="M5920 3359 c0 -5 5 -7 10 -4 6 3 10 8 10 11 0 2 -4 4 -10 4 -5 0 -10
-5 -10 -11z"/>
<path d="M486 3313 c-8 -54 -7 -85 3 -79 5 4 4 -8 -2 -24 -9 -24 -9 -33 1 -39
7 -4 14 -18 15 -30 1 -14 6 -20 15 -16 7 3 15 5 17 5 2 0 -6 33 -17 73 -11 39
-19 89 -18 110 0 20 -1 37 -3 37 -3 0 -7 -17 -11 -37z m29 -134 c10 -42 2 -45
-11 -3 -6 19 -8 34 -3 34 4 0 10 -14 14 -31z"/>
<path d="M41 3320 c0 -8 2 -26 6 -39 6 -23 7 -24 15 -5 5 13 7 4 5 -28 -1 -25
1 -44 6 -41 10 6 8 73 -3 98 l-9 20 -1 -20 c-2 -17 -3 -16 -10 5 -4 14 -8 18
-9 10z"/>
<path d="M5383 3243 c-7 -3 -13 -11 -13 -19 0 -18 36 -18 43 0 6 16 -11 26
-30 19z"/>
<path d="M4000 3195 c0 -8 7 -15 15 -15 9 0 12 6 9 15 -4 8 -10 15 -15 15 -5
0 -9 -7 -9 -15z"/>
<path d="M5765 3200 c-4 -6 5 -10 19 -10 14 0 26 5 26 10 0 6 -9 10 -19 10
-11 0 -23 -4 -26 -10z"/>
<path d="M105 3170 c-3 -5 -1 -10 4 -10 6 0 11 5 11 10 0 6 -2 10 -4 10 -3 0
-8 -4 -11 -10z"/>
<path d="M5230 3169 c0 -5 5 -7 10 -4 6 3 10 8 10 11 0 2 -4 4 -10 4 -5 0 -10
-5 -10 -11z"/>
<path d="M32 3150 c0 -14 2 -19 5 -12 2 6 2 18 0 25 -3 6 -5 1 -5 -13z"/>
<path d="M5260 3160 c0 -5 -7 -10 -15 -10 -20 0 -19 -26 1 -34 18 -7 34 0 34
16 0 5 -8 7 -17 4 -15 -6 -15 -4 2 14 10 11 13 20 7 20 -7 0 -12 -4 -12 -10z"/>
<path d="M47 3127 c-3 -19 5 -60 19 -102 13 -38 21 -54 18 -35 -3 19 -6 47 -7
63 -1 15 -6 27 -11 27 -6 0 -5 5 1 11 11 11 6 56 -7 64 -4 3 -10 -10 -13 -28z"/>
<path d="M5760 3118 c0 -16 23 -19 37 -5 14 13 13 15 -11 14 -14 -1 -26 -5
-26 -9z"/>
<path d="M522 3108 c-18 -18 -14 -32 4 -17 15 12 16 11 10 -9 -6 -17 -4 -21 8
-16 16 6 20 -4 16 -40 -1 -10 3 -15 8 -12 12 7 38 -22 28 -31 -4 -4 -11 -2
-15 5 -5 8 -8 0 -9 -21 -1 -19 5 -43 13 -53 14 -18 14 -18 15 -1 0 11 5 15 11
11 8 -4 9 1 4 17 -7 21 -5 20 18 -6 18 -22 22 -33 15 -42 -7 -9 -7 -13 0 -13
6 0 12 3 15 8 2 4 2 1 1 -6 -2 -7 3 -15 11 -18 22 -9 18 -20 -7 -21 -16 -2
-19 0 -9 6 8 6 9 11 3 15 -23 14 -22 -17 1 -40 16 -16 28 -21 32 -14 5 8 11 8
20 0 8 -7 18 -9 23 -6 5 3 17 -3 27 -14 20 -22 7 -28 -14 -7 -10 8 -12 8 -7 0
3 -6 2 -14 -4 -18 -21 -13 14 -31 59 -29 34 1 50 -3 63 -18 9 -11 21 -17 25
-15 5 3 15 1 23 -5 12 -8 12 -9 -2 -4 -10 3 -20 0 -24 -6 -5 -7 -2 -8 6 -3 10
6 12 4 7 -8 -7 -18 19 -32 29 -15 4 7 3 8 -4 4 -7 -4 -12 -2 -12 5 0 7 9 9 23
5 12 -3 28 -6 35 -6 7 0 10 -4 7 -10 -3 -6 1 -7 9 -4 9 3 16 2 16 -4 0 -5 11
-13 25 -16 18 -5 23 -11 18 -24 -6 -15 -5 -15 10 -3 21 17 23 45 2 37 -8 -3
-15 -1 -15 4 0 6 -7 10 -15 10 -43 0 -240 118 -278 167 -10 13 -23 23 -29 23
-6 0 -3 -9 7 -20 10 -11 13 -20 7 -20 -6 0 -14 5 -17 10 -5 8 -11 7 -21 -1
-18 -15 -18 0 1 24 12 17 8 25 -35 79 -27 33 -65 92 -85 129 -20 38 -37 69
-39 69 -1 0 -7 -5 -14 -12z m81 -156 c-3 -12 -9 -22 -14 -22 -14 0 -11 38 4
43 16 6 17 5 10 -21z m220 -202 c10 -10 8 -10 -10 -1 -13 7 -23 8 -23 2 0 -5
-9 -7 -20 -4 -11 3 -20 9 -20 13 0 12 60 4 73 -10z"/>
<path d="M5760 3082 c0 -5 7 -9 15 -9 8 0 12 4 9 9 -3 4 -9 8 -15 8 -5 0 -9
-4 -9 -8z"/>
<path d="M510 3062 c0 -7 -7 -12 -15 -12 -8 0 -15 -4 -15 -10 0 -5 4 -10 9
-10 13 0 35 29 27 37 -3 3 -6 1 -6 -5z"/>
<path d="M4978 3053 c6 -2 18 -2 25 0 6 3 1 5 -13 5 -14 0 -19 -2 -12 -5z"/>
<path d="M146 3041 c-4 -5 -2 -20 3 -33 9 -21 10 -21 10 10 1 32 -3 39 -13 23z"/>
<path d="M5687 3029 c4 -13 9 -17 15 -11 11 11 3 32 -12 32 -4 0 -6 -9 -3 -21z"/>
<path d="M532 2989 c2 -7 10 -15 17 -17 8 -3 12 1 9 9 -2 7 -10 15 -17 17 -8
3 -12 -1 -9 -9z"/>
<path d="M145 2957 c3 -7 -4 -22 -16 -33 -22 -19 -22 -19 -10 3 6 12 11 24 11
26 0 9 -34 0 -37 -9 -6 -17 103 -219 116 -216 7 1 10 -2 6 -7 -8 -14 17 -51
33 -51 8 0 12 -6 9 -14 -3 -7 20 -42 50 -77 69 -80 103 -114 103 -105 0 4 11
-6 25 -23 42 -49 218 -163 240 -156 15 5 17 4 6 -3 -11 -8 -10 -12 8 -21 11
-7 21 -8 21 -4 0 4 4 3 8 -2 6 -9 125 -65 138 -65 2 0 4 6 4 13 0 6 -11 13
-25 13 -54 4 -162 75 -148 98 4 6 -1 5 -10 -3 -14 -11 -20 -11 -32 -1 -8 7
-15 19 -15 26 0 8 -5 14 -11 14 -6 0 -9 -7 -5 -15 7 -20 0 -19 -23 4 -11 11
-16 23 -13 27 4 4 -1 4 -10 1 -17 -6 -46 17 -31 25 4 3 3 4 -2 2 -6 -1 -26 7
-45 17 -19 10 -30 18 -23 19 6 0 11 9 10 19 -1 13 -7 18 -21 15 -22 -4 -59 23
-50 37 3 5 -2 9 -10 9 -9 0 -16 7 -16 16 0 8 4 13 8 10 5 -3 9 2 9 11 0 13 -4
12 -17 -5 -10 -12 -20 -18 -24 -15 -3 3 0 13 7 21 9 12 9 14 0 9 -7 -4 -21 -2
-31 4 -15 10 -18 21 -14 58 4 48 -4 56 -10 9 -2 -15 -8 -31 -13 -35 -4 -4 -5
-2 -1 5 4 6 2 12 -3 12 -6 0 -11 5 -11 11 0 5 6 7 13 4 6 -4 -5 9 -25 29 -21
20 -38 43 -38 51 0 7 -4 17 -10 20 -5 3 -10 15 -10 27 0 11 -11 29 -25 40 -14
11 -25 26 -25 34 0 8 -4 12 -10 9 -5 -3 -10 -1 -10 4 0 6 5 11 10 11 6 0 10 5
10 11 0 8 -5 8 -15 -1 -21 -17 -19 -1 3 24 17 21 17 21 -5 2 -28 -24 -31 -6
-3 19 22 20 26 40 10 50 -5 3 -7 0 -5 -8z m55 -192 c0 -12 -20 6 -31 28 l-11
22 21 -22 c11 -12 21 -25 21 -28z m264 -316 c-3 -5 -10 -7 -15 -3 -5 3 -7 10
-3 15 3 5 10 7 15 3 5 -3 7 -10 3 -15z"/>
<path d="M510 2900 c0 -5 7 -10 15 -10 8 0 15 5 15 10 0 6 -7 10 -15 10 -8 0
-15 -4 -15 -10z"/>
<path d="M175 2880 c-3 -5 3 -10 15 -10 12 0 18 5 15 10 -3 6 -10 10 -15 10
-5 0 -12 -4 -15 -10z"/>
<path d="M5330 2880 c0 -5 3 -10 8 -11 4 0 15 -2 24 -4 9 -2 22 3 29 11 9 12
5 14 -25 14 -20 0 -36 -4 -36 -10z"/>
<path d="M5287 2813 c-4 -3 -7 -13 -7 -21 0 -12 3 -12 15 -2 8 7 15 16 15 21
0 11 -14 12 -23 2z"/>
<path d="M710 2780 c0 -5 5 -10 10 -10 6 0 10 5 10 10 0 6 -4 10 -10 10 -5 0
-10 -4 -10 -10z"/>
<path d="M665 2740 c3 -5 10 -10 16 -10 5 0 9 5 9 10 0 6 -7 10 -16 10 -8 0
-12 -4 -9 -10z"/>
<path d="M4960 2719 c0 -5 5 -7 10 -4 6 3 10 8 10 11 0 2 -4 4 -10 4 -5 0 -10
-5 -10 -11z"/>
<path d="M5010 2720 c-11 -8 -7 -9 14 -4 21 5 27 4 22 -5 -8 -13 3 -14 22 -2
10 6 8 10 -10 14 -30 9 -30 9 -48 -3z"/>
<path d="M5195 2720 c4 -6 -8 -13 -25 -17 -27 -5 -29 -7 -15 -16 18 -10 101 8
111 25 3 4 11 5 17 2 7 -4 9 -3 5 1 -5 5 -20 10 -35 11 -21 2 -24 1 -13 -6 12
-8 10 -10 -7 -10 -13 0 -23 5 -23 10 0 6 -5 10 -11 10 -5 0 -7 -5 -4 -10z"/>
<path d="M300 2710 c0 -5 -8 -10 -17 -10 -13 0 -14 -3 -6 -11 9 -9 16 -8 27 4
18 18 20 27 6 27 -5 0 -10 -4 -10 -10z"/>
<path d="M5095 2704 c-20 -15 -12 -17 19 -5 11 4 15 10 10 13 -5 4 -18 0 -29
-8z"/>
<path d="M5020 2679 c0 -14 40 -20 85 -13 25 3 44 9 41 11 -8 8 -126 9 -126 2z"/>
<path d="M1070 2600 c-8 -5 -10 -10 -5 -10 6 0 17 5 25 10 8 5 11 10 5 10 -5
0 -17 -5 -25 -10z"/>
<path d="M960 2580 c0 -5 5 -10 10 -10 6 0 10 5 10 10 0 6 -4 10 -10 10 -5 0
-10 -4 -10 -10z"/>
<path d="M1095 2580 c3 -5 16 -10 28 -9 21 0 21 1 2 9 -28 12 -37 12 -30 0z"/>
<path d="M1188 2573 c7 -3 16 -2 19 1 4 3 -2 6 -13 5 -11 0 -14 -3 -6 -6z"/>
<path d="M1918 2573 c6 -2 18 -2 25 0 6 3 1 5 -13 5 -14 0 -19 -2 -12 -5z"/>
<path d="M420 2539 c0 -5 5 -7 10 -4 6 3 10 8 10 11 0 2 -4 4 -10 4 -5 0 -10
-5 -10 -11z"/>
<path d="M564 2395 c-18 -14 -18 -14 4 -8 12 3 22 9 22 14 0 12 -3 11 -26 -6z"/>
<path d="M4577 2389 c-211 -20 -397 -94 -567 -224 -170 -131 -290 -325 -346
-565 -35 -149 -44 -271 -44 -617 l0 -343 259 0 259 0 4 358 c5 345 6 360 31
455 80 302 253 417 627 417 l140 0 0 265 0 265 -137 -1 c-76 -1 -177 -6 -226
-10z"/>
<path d="M705 2321 c-3 -5 -2 -12 3 -15 5 -3 9 1 9 9 0 17 -3 19 -12 6z"/>
<path d="M1160 2199 c52 -9 1250 -11 1250 -2 0 5 -289 8 -643 8 -353 0 -626
-3 -607 -6z"/>
<path d="M1258 2153 c7 -3 16 -2 19 1 4 3 -2 6 -13 5 -11 0 -14 -3 -6 -6z"/>
<path d="M7195 2145 c-5 -2 -36 -11 -67 -20 -54 -14 -78 -35 -42 -35 8 0 12 5
9 10 -3 6 -1 10 4 10 6 0 11 -4 11 -10 0 -5 5 -10 11 -10 5 0 7 5 4 10 -4 7 9
9 37 6 32 -4 36 -3 13 2 -27 7 -23 9 30 15 33 4 83 11 110 16 48 8 47 8 -30 9
-44 0 -84 -1 -90 -3z m38 -12 c-7 -2 -19 -2 -25 0 -7 3 -2 5 12 5 14 0 19 -2
13 -5z"/>
<path d="M7425 2142 c35 -4 37 -6 15 -12 -23 -6 -22 -7 12 -11 20 -3 34 -1 31
4 -3 5 3 7 13 4 11 -3 36 -9 57 -13 20 -3 40 -10 43 -15 3 -5 17 -9 32 -9 15
0 37 -3 50 -6 22 -6 23 -9 20 -123 -3 -104 -5 -116 -22 -119 -14 -3 -17 0 -12
13 5 14 4 15 -7 7 -10 -8 -23 -8 -50 0 -35 11 -36 12 -20 30 15 17 15 18 -1
18 -9 0 -14 -4 -11 -10 3 -5 2 -10 -4 -10 -5 0 -18 -3 -28 -7 -15 -6 -16 -4
-6 8 10 12 -5 14 -110 14 -98 -1 -124 2 -134 15 -11 13 -12 13 -13 -2 0 -12
-5 -15 -17 -11 -11 4 -14 3 -9 -5 4 -7 1 -13 -6 -13 -7 -1 -24 -3 -38 -4 -29
-3 -44 14 -28 32 7 9 7 13 0 13 -17 0 -24 -18 -14 -37 10 -20 5 -43 -9 -43 -6
0 -7 5 -4 10 3 6 1 10 -4 10 -13 0 -14 -10 -2 -29 6 -9 11 -10 15 -2 20 32 81
45 211 45 124 0 135 -1 233 -35 l102 -36 0 137 0 137 -37 11 c-20 6 -41 9 -46
5 -5 -3 -12 -1 -16 5 -8 13 -149 43 -193 40 -31 -1 -30 -2 7 -6z m78 -249 c-7
-2 -19 -2 -25 0 -7 3 -2 5 12 5 14 0 19 -2 13 -5z"/>
<path d="M8565 2135 c-33 -7 -71 -18 -85 -23 l-25 -11 25 -2 c68 -5 82 -4 87
5 4 5 0 6 -8 1 -9 -5 -11 -5 -4 2 6 5 29 16 53 23 35 11 52 11 88 2 49 -13 84
-15 44 -2 -16 5 2 7 50 5 105 -4 109 -5 85 -15 -13 -6 -2 -7 33 -3 35 4 52 2
52 -5 0 -6 -8 -9 -17 -6 -14 4 -14 3 1 -7 15 -9 21 -9 24 -1 2 7 8 12 13 12 6
0 7 -5 3 -12 -5 -8 -2 -9 10 -5 18 7 51 -17 51 -36 0 -6 7 -12 15 -14 12 -4
12 -3 2 5 -11 7 -11 10 2 15 10 4 17 -1 22 -15 5 -16 8 -18 15 -7 8 12 10 12
18 -1 7 -10 6 -17 -2 -22 -7 -5 -1 -7 15 -4 17 3 28 -1 32 -10 3 -9 10 -13 15
-9 12 7 26 -14 26 -40 0 -16 7 -20 30 -20 39 0 52 -12 47 -46 -2 -14 1 -29 6
-33 6 -3 8 2 5 13 -3 10 1 22 9 26 7 5 10 4 5 0 -4 -5 5 -21 20 -37 14 -15 24
-31 20 -34 -3 -4 1 -13 9 -21 8 -8 12 -18 9 -23 -3 -5 0 -12 6 -16 6 -3 15 -1
19 6 11 18 -52 109 -119 175 -28 27 -51 46 -51 43 0 -4 -14 6 -30 21 -39 35
-128 83 -140 76 -6 -4 -10 -2 -10 4 0 11 -73 36 -150 50 -76 14 -253 12 -325
-4z m695 -191 c0 -1 -11 -1 -24 0 -20 1 -25 9 -17 33 1 3 41 -30 41 -33z m125
-153 c3 -5 2 -12 -3 -15 -5 -3 -9 1 -9 9 0 17 3 19 12 6z"/>
<path d="M10322 2143 c-19 -3 -30 -9 -26 -15 4 -6 -1 -8 -15 -3 -16 5 -20 3
-15 -9 5 -14 9 -14 33 -1 16 8 38 11 51 8 16 -4 21 -3 16 5 -5 9 16 11 78 9
48 -1 86 1 86 6 0 7 -147 7 -208 0z"/>
<path d="M10550 2140 c-11 -7 -6 -8 19 -3 23 4 32 3 28 -4 -5 -8 7 -10 33 -7
26 2 39 0 35 -7 -4 -6 3 -7 19 -3 16 4 26 2 26 -5 0 -6 16 -11 35 -11 19 0 35
-4 35 -9 0 -13 69 -43 86 -37 9 3 12 1 9 -4 -3 -6 -3 -10 2 -10 12 0 6 -134
-6 -138 -7 -2 -6 -9 1 -22 9 -14 9 -22 -1 -34 -11 -14 -11 -16 5 -17 18 0 18
-1 -1 -9 -28 -12 -37 -12 -30 0 3 6 0 10 -7 10 -10 0 -9 3 2 11 13 9 12 10 -2
5 -10 -3 -25 -9 -33 -12 -8 -3 -15 -2 -15 4 0 5 -28 15 -63 22 -79 15 -108 30
-46 25 37 -4 39 -3 14 4 -45 13 -77 13 -69 0 4 -8 0 -9 -15 -4 -11 3 -29 2
-38 -4 -15 -9 -12 -10 18 -11 19 0 71 -10 115 -22 43 -12 89 -21 101 -21 13 1
21 -2 18 -6 -3 -7 56 -41 70 -41 3 0 5 62 5 138 l0 138 -53 22 c-120 50 -269
81 -297 62z m275 -68 c-3 -3 -11 0 -18 7 -9 10 -8 11 6 5 10 -3 15 -9 12 -12z"/>
<path d="M7338 2123 c7 -3 16 -2 19 1 4 3 -2 6 -13 5 -11 0 -14 -3 -6 -6z"/>
<path d="M10461 2121 c-23 -15 4 -21 55 -14 42 6 45 8 24 14 -35 10 -63 10
-79 0z"/>
<path d="M11190 1400 l0 -730 150 0 c143 0 150 1 150 20 0 11 -4 20 -10 20 -5
0 -9 -5 -7 -12 1 -6 -7 -13 -18 -15 -12 -3 -16 -1 -8 4 6 4 -46 7 -116 5 -111
-3 -128 -1 -128 12 0 14 16 16 99 16 54 0 98 3 98 8 0 4 -43 6 -95 4 l-95 -3
0 696 0 696 130 -2 130 -2 5 -31 c3 -17 4 -330 3 -696 l-3 -665 -3 682 c-1
375 -5 684 -9 686 -5 3 -7 -301 -6 -676 2 -525 0 -684 -10 -696 -10 -12 -9
-14 6 -8 10 4 23 7 28 7 5 0 9 284 9 705 l0 705 -150 0 -150 0 0 -730z"/>
<path d="M11790 1400 l0 -730 480 0 480 0 0 23 c0 15 -3 18 -9 9 -6 -11 -98
-14 -458 -15 -442 -2 -449 -2 -451 18 -1 20 4 20 430 17 238 -1 430 0 427 3
-3 2 -198 5 -435 5 -425 1 -429 1 -432 -20 -2 -11 -8 -20 -14 -20 -6 0 -8 10
-4 23 3 12 6 327 6 699 0 602 2 678 16 692 14 14 68 16 445 16 l429 0 0 -114
0 -113 -31 -7 c-54 -11 -509 -7 -509 4 0 11 -42 4 -70 -11 -8 -4 130 -8 308
-9 l322 0 0 130 0 130 -465 0 -465 0 0 -730z"/>
<path d="M12970 2000 l0 -130 208 0 207 0 -3 -585 c-1 -322 1 -585 5 -585 5 0
7 264 6 587 -2 461 -5 588 -15 595 -9 5 -5 8 12 8 37 0 57 15 33 25 -36 15
-62 11 -74 -12 -13 -25 -29 -31 -29 -11 0 9 -3 9 -12 0 -8 -8 -55 -12 -146
-12 -115 0 -133 2 -128 15 3 8 1 15 -4 15 -5 0 -10 -7 -12 -16 -3 -13 -5 -13
-23 1 -16 13 -17 16 -3 11 10 -3 20 -1 23 4 4 6 25 11 48 12 l42 1 -38 4 -38
4 2 95 1 94 519 0 519 0 0 -95 0 -94 -152 -4 -153 -3 157 -2 c152 -2 156 -3
151 -23 -5 -20 -11 -20 -187 -18 -204 2 -240 -3 -233 -33 4 -14 1 -18 -8 -14
-19 7 -36 -16 -25 -34 8 -13 11 -12 23 4 11 14 15 16 18 5 2 -8 3 -254 1 -546
l-2 -533 -28 -1 c-24 -1 -23 -2 8 -9 l35 -7 -30 -3 c-30 -2 -30 -2 -5 -10 l25
-8 -25 -2 c-39 -3 -172 0 -205 5 -25 4 -27 3 -10 -5 16 -9 14 -10 -12 -5 -18
2 -33 0 -33 -5 0 -6 59 -10 150 -10 l150 0 0 600 0 600 205 0 205 0 0 130 0
130 -560 0 -560 0 0 -130z m37 102 c-9 -2 -15 -8 -11 -13 3 -5 10 -7 15 -3 6
3 9 -25 7 -75 -2 -45 -7 -81 -13 -81 -5 0 -13 39 -16 87 -5 86 1 110 26 95 6
-4 3 -8 -8 -10z m396 -199 c-7 -2 -21 -2 -30 0 -10 3 -4 5 12 5 17 0 24 -2 18
-5z"/>
<path d="M14248 2121 c7 -4 14 -14 15 -22 5 -31 182 -318 189 -306 12 19 9 34
-3 17 -9 -12 -10 -12 -5 3 3 10 6 21 6 24 0 3 8 -1 18 -8 15 -13 16 -12 3 3
-10 14 -17 15 -33 7 -11 -6 -18 -7 -15 -2 4 6 -3 20 -14 32 -11 12 -18 25 -15
30 3 5 0 14 -8 20 -17 14 -19 78 -2 84 6 2 1 2 -11 0 -32 -5 -61 16 -57 41 3
12 2 15 -2 8 -3 -6 -10 -10 -15 -6 -5 3 -5 12 1 23 5 10 7 21 4 23 -2 3 19 3
48 0 29 -2 50 -1 46 3 -4 4 -32 8 -63 9 -30 0 -55 4 -55 9 0 4 64 6 143 5 128
-3 142 -5 141 -20 -1 -10 1 -16 5 -14 4 3 13 1 21 -4 11 -7 12 -11 0 -25 -10
-12 -10 -19 -2 -27 7 -7 12 -9 12 -4 0 4 7 0 16 -8 30 -31 34 -15 9 34 -14 28
-30 48 -34 45 -5 -2 -8 3 -7 13 1 15 -15 17 -174 19 -99 2 -169 -1 -162 -6z
m367 -71 c3 -5 1 -10 -4 -10 -6 0 -11 5 -11 10 0 6 2 10 4 10 3 0 8 -4 11 -10z
m-255 -85 c0 -12 -20 6 -31 28 l-11 22 21 -22 c11 -12 21 -25 21 -28z"/>
<path d="M15190 2009 c-36 -67 -64 -128 -62 -136 2 -8 -1 -12 -6 -9 -9 5 -177
-282 -184 -315 -2 -7 -7 -17 -13 -21 -6 -5 -5 -8 3 -8 6 0 12 -9 12 -20 0 -11
4 -20 9 -20 5 0 8 20 7 44 -2 31 1 47 10 50 8 3 14 -1 14 -10 0 -8 5 -12 11
-9 6 4 8 10 5 13 -3 3 -1 11 5 18 8 9 5 11 -13 8 -13 -2 -17 -2 -10 2 6 3 10
10 6 15 -3 5 0 9 5 9 6 0 10 4 9 8 -2 4 6 24 16 44 17 31 23 35 42 28 19 -8
21 -6 16 13 -5 21 -4 21 17 -2 26 -29 27 -22 3 19 -10 16 -22 27 -25 23 -4 -3
-7 -1 -7 5 0 20 17 13 39 -14 12 -15 21 -22 21 -15 0 6 -8 19 -18 29 -14 14
-16 25 -10 50 5 17 13 34 18 37 6 4 7 -1 3 -11 -4 -12 -3 -15 5 -10 7 4 12 13
12 19 0 7 5 19 10 27 8 13 11 12 25 -5 13 -17 14 -17 9 -2 -4 11 -2 17 6 15 7
-2 15 3 17 10 3 7 -1 11 -7 10 -7 -2 -15 3 -17 10 -3 6 0 12 7 12 6 0 9 4 6 9
-9 13 20 73 43 93 12 10 21 27 21 39 0 12 8 28 18 35 16 13 16 14 -3 8 -16 -5
-17 -4 -5 5 9 6 66 11 136 11 l122 0 6 -31 c4 -19 10 -28 17 -23 7 4 10 1 7
-7 -3 -8 -11 -13 -17 -11 -7 1 -10 -2 -6 -8 7 -11 -7 -42 -18 -41 -25 3 -29 0
-18 -13 7 -9 8 -17 2 -20 -5 -3 -12 0 -14 6 -3 7 -6 4 -6 -8 -1 -11 -4 -24 -8
-28 -8 -8 -15 -46 -8 -46 7 0 119 193 122 209 1 8 8 18 15 22 7 5 -65 9 -162
9 l-175 0 -65 -121z m370 101 c0 -5 -7 -7 -15 -4 -8 4 -15 8 -15 10 0 2 7 4
15 4 8 0 15 -4 15 -10z m-6 -16 c9 -3 14 -10 11 -15 -7 -10 -35 0 -35 12 0 11
3 11 24 3z m-334 -66 c-13 -13 -19 -16 -15 -8 14 25 28 41 32 36 3 -3 -5 -15
-17 -28z m-53 -119 c0 -24 -2 -27 -10 -14 -5 9 -6 23 -3 31 8 22 13 17 13 -17z
m-111 -196 c-10 -10 -19 5 -10 18 6 11 8 11 12 0 2 -7 1 -15 -2 -18z"/>
<path d="M8710 2111 c12 -10 7 -11 -22 -9 -20 1 -40 -1 -44 -5 -11 -11 79 -8
96 3 9 6 10 10 3 10 -6 0 -20 3 -30 6 -15 5 -16 4 -3 -5z"/>
<path d="M10165 2095 c-33 -14 -61 -25 -63 -25 -2 0 0 -5 4 -12 4 -7 3 -8 -4
-4 -14 8 -79 -31 -150 -91 -42 -36 -51 -50 -47 -67 5 -16 4 -18 -4 -6 -8 12
-14 9 -33 -15 -40 -50 -101 -168 -126 -245 -18 -55 -26 -106 -29 -191 -8 -172
21 -297 104 -439 31 -55 142 -185 150 -177 2 3 16 -7 32 -22 15 -14 41 -33 57
-41 16 -8 36 -19 44 -25 19 -15 112 -51 168 -65 31 -8 47 -8 60 0 14 9 13 11
-11 7 -15 -2 -30 0 -33 4 -3 5 -20 9 -37 9 -24 0 -28 3 -17 10 13 8 12 10 -5
11 -11 1 -28 1 -38 1 -10 -1 -20 5 -24 14 -5 13 -7 13 -14 2 -6 -9 -9 -7 -9
10 0 12 -5 22 -11 22 -6 0 -9 -7 -5 -15 7 -20 -1 -19 -26 5 -12 10 -25 17 -29
14 -4 -2 -10 0 -13 5 -4 5 8 7 26 5 32 -4 32 -4 10 9 -12 7 -19 17 -15 22 4 5
0 4 -9 -4 -30 -22 -88 28 -74 64 3 8 0 17 -6 21 -6 4 -8 3 -5 -3 4 -6 -3 -19
-15 -29 -18 -16 -21 -17 -15 -2 6 17 -15 43 -26 31 -4 -3 -7 3 -7 15 0 12 -5
22 -11 22 -6 0 -7 5 -2 13 11 18 13 38 2 31 -5 -3 -7 -9 -4 -14 3 -4 -3 -14
-12 -21 -15 -12 -16 -12 -10 3 4 11 2 17 -6 15 -7 -1 -11 4 -10 11 2 6 -4 12
-12 12 -8 0 -15 9 -15 19 0 10 -7 21 -15 25 -8 3 -15 10 -15 15 0 6 7 8 15 5
8 -4 15 -1 15 4 0 6 -9 9 -21 7 -18 -4 -20 -1 -15 18 3 12 6 26 6 31 0 5 6 3
14 -3 11 -9 14 -7 18 12 3 17 0 23 -14 24 -10 1 -18 -4 -18 -10 0 -8 -3 -8 -8
-2 -4 6 -16 15 -27 22 -11 6 -19 16 -18 22 2 6 -2 23 -8 38 -13 32 -18 61 -25
159 -5 65 -1 98 21 159 6 16 5 17 -4 5 -19 -27 -12 29 13 105 18 54 28 70 42
69 16 0 19 6 15 39 -2 27 0 38 8 33 11 -7 15 5 12 32 -1 6 2 12 6 12 5 0 14
14 22 30 11 27 15 29 30 18 14 -12 15 -11 2 5 -14 17 -13 18 5 15 14 -2 19 3
18 20 0 16 5 22 20 22 29 0 52 15 37 25 -7 4 -20 1 -29 -7 -15 -12 -16 -11 -3
5 8 10 20 16 27 13 7 -3 26 11 43 29 21 24 36 33 48 29 13 -4 15 -3 5 4 -18
12 23 24 58 16 18 -4 21 -3 11 4 -10 7 -10 11 -1 17 7 4 16 1 21 -6 6 -9 9
-10 9 -2 0 6 -5 15 -11 19 -7 4 1 12 21 20 18 8 36 11 41 8 5 -3 9 0 9 6 0 7
9 9 23 5 17 -5 19 -4 7 4 -19 14 -15 14 -85 -14z m-366 -1001 c3 -16 1 -17
-13 -5 -19 16 -21 34 -3 29 6 -3 14 -13 16 -24z m185 -252 c3 -5 -1 -9 -9 -9
-8 0 -12 4 -9 9 3 4 7 8 9 8 2 0 6 -4 9 -8z"/>
<path d="M10408 2113 c6 -2 18 -2 25 0 6 3 1 5 -13 5 -14 0 -19 -2 -12 -5z"/>
<path d="M10600 2110 l-25 -8 28 -1 c15 -1 27 4 27 9 0 6 -1 10 -2 9 -2 -1
-14 -5 -28 -9z"/>
<path d="M7271 2106 c10 -8 89 -13 89 -5 0 5 -21 9 -47 9 -25 0 -44 -2 -42 -4z"/>
<path d="M10315 2102 c2 -2 27 -5 57 -7 40 -2 47 0 29 7 -23 8 -95 8 -86 0z"/>
<path d="M10640 2100 c0 -5 5 -10 11 -10 5 0 7 5 4 10 -3 6 -8 10 -11 10 -2 0
-4 -4 -4 -10z"/>
<path d="M11380 2100 c-24 -8 -23 -8 8 -9 20 -1 31 3 27 9 -3 6 -7 10 -8 9 -1
-1 -13 -5 -27 -9z"/>
<path d="M7010 2079 c-38 -24 -91 -65 -91 -73 0 -3 -13 -19 -30 -37 -16 -17
-27 -34 -25 -37 3 -2 -1 -11 -9 -19 -8 -8 -21 -37 -30 -65 -23 -77 -15 -260
10 -249 6 3 11 -4 13 -15 3 -16 1 -16 -7 -4 -18 26 -12 1 10 -42 25 -49 108
-140 120 -132 5 3 9 1 9 -3 0 -12 108 -76 130 -78 10 -1 24 -6 32 -12 14 -10
195 -82 213 -84 6 0 17 -6 25 -13 31 -27 39 -27 34 -1 -2 14 0 25 6 25 5 0 10
-5 10 -12 0 -6 2 -9 5 -6 3 3 1 16 -4 29 -5 13 -10 18 -10 12 -1 -7 -8 -13
-17 -13 -11 0 -14 -6 -8 -22 6 -21 6 -21 -10 -5 -10 9 -23 17 -29 17 -7 0 -39
14 -71 30 -32 17 -71 30 -85 30 -18 0 -22 3 -13 9 11 7 10 9 -3 14 -9 4 -13 3
-10 -3 3 -6 -1 -10 -9 -10 -20 0 -20 14 0 31 13 10 17 10 24 -2 7 -10 9 -9 8
6 -1 13 -10 20 -25 21 -13 1 -21 -1 -19 -5 9 -14 -11 -32 -28 -25 -13 5 -14 9
-4 23 10 13 10 14 -2 4 -8 -7 -18 -13 -23 -13 -4 0 -5 6 -1 13 6 9 3 8 -8 -1
-24 -19 -65 2 -47 24 10 13 10 17 -2 25 -8 4 -21 6 -30 3 -23 -7 -71 17 -65
32 3 8 1 16 -4 19 -6 4 -10 11 -10 17 0 7 6 6 15 -2 9 -8 15 -9 15 -2 0 6 -4
14 -10 17 -15 9 -12 27 3 19 6 -4 9 -3 4 1 -4 5 -16 9 -28 10 -13 1 -16 -2 -9
-9 16 -16 12 -30 -5 -16 -8 7 -15 8 -15 2 0 -5 7 -15 15 -22 8 -7 15 -18 15
-24 0 -6 -9 0 -20 14 -11 14 -18 33 -16 43 2 9 1 15 -4 12 -11 -7 -20 22 -13
43 5 14 3 13 -11 -3 -17 -20 -17 -20 -11 3 7 26 -3 65 -15 57 -24 -15 -12 232
13 249 8 6 18 26 22 45 5 25 10 30 16 20 6 -10 9 -11 9 -1 0 6 6 11 13 10 11
-3 13 2 16 45 0 10 6 15 11 12 6 -4 9 -1 8 6 -2 6 3 14 11 17 8 2 11 0 8 -5
-3 -5 0 -10 9 -10 9 0 12 7 9 18 -6 18 9 21 32 6 12 -8 29 10 19 20 -3 4 1 15
11 25 22 24 6 23 -37 -3z m17 -14 c0 -17 -13 -20 -21 -6 -4 5 0 12 6 14 7 3
13 6 14 6 0 1 1 -6 1 -14z m-107 -104 c0 -4 -7 -8 -15 -8 -16 0 -20 9 -9 20 8
8 24 -1 24 -12z m115 -560 c7 -12 -12 -24 -25 -16 -11 7 -4 25 10 25 5 0 11
-4 15 -9z"/>
<path d="M7218 2093 c7 -3 16 -2 19 1 4 3 -2 6 -13 5 -11 0 -14 -3 -6 -6z"/>
<path d="M8416 2084 c-9 -8 -16 -13 -16 -9 0 3 -14 -2 -30 -10 -17 -9 -28 -20
-24 -26 3 -6 0 -9 -7 -8 -8 2 -24 -3 -37 -10 -18 -9 -21 -16 -12 -26 13 -16
-15 -49 -32 -39 -7 5 -4 12 7 21 22 15 12 17 -16 3 -11 -6 -26 -25 -34 -43 -9
-19 -12 -22 -9 -9 5 19 -2 15 -34 -20 -83 -91 -176 -269 -151 -292 9 -8 10 -7
6 6 -4 10 -2 17 5 15 6 -1 13 4 16 12 3 8 0 11 -7 7 -6 -4 -11 -3 -11 3 0 6 8
15 19 20 13 8 17 18 13 37 -3 19 -1 25 6 20 8 -5 10 -2 6 8 -3 9 -1 16 5 16 6
0 11 7 11 16 0 8 5 12 10 9 19 -12 60 -16 60 -6 0 5 -4 13 -10 16 -15 9 -12
27 3 19 6 -4 4 1 -5 12 -23 26 -6 49 24 33 22 -12 43 1 59 35 6 13 2 11 -11
-6 -12 -16 -26 -28 -32 -28 -5 0 4 17 20 38 16 20 30 40 31 45 1 10 11 10 19
1 4 -4 1 -4 -7 1 -9 5 -12 4 -7 -3 4 -7 14 -12 22 -12 8 0 12 5 9 10 -8 13 8
13 22 -1 8 -8 13 -7 19 2 4 7 3 14 -4 17 -7 2 -12 8 -12 13 0 6 6 7 13 3 9 -6
9 -5 -1 8 -10 12 -9 18 3 28 8 7 24 10 35 7 17 -4 18 -3 8 16 -10 20 -10 21 6
8 15 -12 20 -11 44 12 16 15 34 27 41 27 7 0 9 5 6 10 -9 14 -21 12 -39 -6z
m-216 -183 c0 -5 -7 -12 -16 -15 -14 -5 -15 -4 -4 9 14 17 20 19 20 6z m-66
-100 c12 -14 14 -19 4 -17 -22 3 -39 17 -33 27 8 12 9 12 29 -10z"/>
<path d="M8783 2093 c9 -2 23 -2 30 0 6 3 -1 5 -18 5 -16 0 -22 -2 -12 -5z"/>
<path d="M10523 2093 c9 -2 25 -2 35 0 9 3 1 5 -18 5 -19 0 -27 -2 -17 -5z"/>
<path d="M15455 2081 c-3 -5 0 -13 7 -17 6 -4 14 -2 16 4 2 7 9 9 14 6 7 -4 8
-2 4 4 -9 14 -33 16 -41 3z"/>
<path d="M12663 2010 c0 -41 2 -58 4 -37 2 20 2 54 0 75 -2 20 -4 3 -4 -38z"/>
<path d="M8437 2063 c-4 -3 -7 -11 -7 -17 0 -6 5 -5 12 2 6 6 9 14 7 17 -3 3
-9 2 -12 -2z"/>
<path d="M8460 2040 c0 -5 -7 -10 -15 -10 -8 0 -15 -4 -15 -10 0 -16 15 -12
35 10 10 11 13 20 7 20 -7 0 -12 -4 -12 -10z"/>
<path d="M10808 2043 c7 -3 16 -2 19 1 4 3 -2 6 -13 5 -11 0 -14 -3 -6 -6z"/>
<path d="M9050 2026 c0 -2 7 -6 15 -10 8 -3 15 -1 15 4 0 6 -7 10 -15 10 -8 0
-15 -2 -15 -4z"/>
<path d="M10796 2015 c-17 -13 -18 -17 -6 -28 8 -6 11 -8 8 -3 -4 5 2 17 14
27 25 22 12 25 -16 4z"/>
<path d="M9025 1992 c-2 -3 -2 -8 1 -13 5 -9 34 -1 34 10 0 8 -27 10 -35 3z"/>
<path d="M10817 1993 c-10 -9 -9 -23 1 -23 5 0 9 7 9 15 0 17 -1 18 -10 8z"/>
<path d="M9070 1980 c0 -5 5 -10 11 -10 5 0 7 5 4 10 -3 6 -8 10 -11 10 -2 0
-4 -4 -4 -10z"/>
<path d="M10113 1983 c-13 -2 -23 -8 -23 -13 0 -5 14 -5 31 0 55 16 50 24 -8
13z"/>
<path d="M14650 1982 c0 -4 6 -14 13 -21 10 -10 9 -11 -5 -6 -11 4 -18 2 -18
-4 0 -6 5 -11 11 -11 5 0 7 -5 3 -12 -4 -6 -3 -8 3 -5 15 10 47 -33 34 -46
-17 -17 -13 -26 9 -22 12 2 20 -2 20 -9 0 -7 9 -21 20 -31 11 -10 18 -27 16
-39 -2 -12 -1 -15 1 -8 3 7 10 9 16 5 6 -4 -1 13 -15 38 -14 24 -42 74 -63
112 -35 64 -45 77 -45 59z"/>
<path d="M8378 1953 c7 -3 16 -2 19 1 4 3 -2 6 -13 5 -11 0 -14 -3 -6 -6z"/>
<path d="M6955 1940 c-3 -5 -1 -10 4 -10 6 0 11 5 11 10 0 6 -2 10 -4 10 -3 0
-8 -4 -11 -10z"/>
<path d="M10060 1940 c0 -5 5 -10 10 -10 6 0 10 5 10 10 0 6 -4 10 -10 10 -5
0 -10 -4 -10 -10z"/>
<path d="M15236 1938 c3 -5 10 -6 15 -3 13 9 11 12 -6 12 -8 0 -12 -4 -9 -9z"/>
<path d="M7200 1913 c-13 -15 -12 -16 4 -10 10 4 20 7 22 7 2 0 4 5 4 10 0 15
-13 12 -30 -7z"/>
<path d="M7345 1919 c26 -10 63 -11 68 -1 3 4 -16 7 -41 8 -32 1 -41 -1 -27
-7z"/>
<path d="M7440 1920 c0 -5 4 -10 9 -10 6 0 13 5 16 10 3 6 -1 10 -9 10 -9 0
-16 -4 -16 -10z"/>
<path d="M7498 1923 c7 -3 16 -2 19 1 4 3 -2 6 -13 5 -11 0 -14 -3 -6 -6z"/>
<path d="M8580 1914 c-24 -13 -23 -14 20 -8 53 8 50 -1 -6 -16 l-39 -10 42 4
c22 2 46 -1 51 -6 13 -13 134 8 172 29 15 9 17 11 5 8 -45 -16 -55 -17 -55 -7
0 6 8 12 18 15 9 2 2 4 -16 4 -22 0 -29 -3 -20 -8 10 -7 8 -9 -5 -9 -11 0 -15
-4 -11 -12 5 -8 -4 -9 -32 -5 -28 5 -35 4 -24 -4 12 -8 10 -9 -10 -7 -14 2
-25 8 -25 13 0 17 -15 35 -28 34 -7 -1 -23 -7 -37 -15z"/>
<path d="M8670 1920 c0 -13 11 -13 30 0 12 8 11 10 -7 10 -13 0 -23 -4 -23
-10z"/>
<path d="M10328 1923 c7 -3 16 -2 19 1 4 3 -2 6 -13 5 -11 0 -14 -3 -6 -6z"/>
<path d="M10357 1916 c-16 -12 -16 -14 -2 -20 9 -3 14 -2 11 3 -3 5 1 12 10
15 22 8 23 8 20 -11 -2 -10 -13 -19 -24 -21 -12 -2 -22 -8 -22 -13 0 -10 23
-12 33 -3 4 4 24 8 44 10 21 1 50 4 66 7 15 2 39 5 55 6 24 2 25 3 7 11 -28
12 -57 12 -50 0 3 -5 -6 -8 -22 -7 -15 0 -41 -2 -56 -6 -19 -5 -27 -4 -22 3 3
5 14 10 23 10 9 1 31 7 47 15 28 13 29 14 5 12 -14 -1 -28 -6 -32 -11 -4 -6
-17 -5 -33 2 -32 15 -36 15 -58 -2z"/>
<path d="M10555 1920 c4 -6 11 -8 16 -5 14 9 11 15 -7 15 -8 0 -12 -5 -9 -10z"/>
<path d="M10605 1920 c27 -12 43 -12 25 0 -8 5 -22 9 -30 9 -10 0 -8 -3 5 -9z"/>
<path d="M10660 1922 c0 -13 26 -22 58 -21 26 1 26 1 -4 8 -17 4 -36 11 -42
15 -7 4 -12 3 -12 -2z"/>
<path d="M12045 1920 c-3 -5 -2 -10 4 -10 5 0 13 5 16 10 3 6 2 10 -4 10 -5 0
-13 -4 -16 -10z"/>
<path d="M12086 1915 c-3 -9 0 -15 9 -15 9 0 12 6 9 15 -4 8 -7 15 -9 15 -2 0
-5 -7 -9 -15z"/>
<path d="M12136 1923 c5 -5 119 -6 254 -3 l245 6 -254 2 c-140 1 -251 -1 -245
-5z"/>
<path d="M13158 1923 c23 -2 59 -2 80 0 20 2 1 4 -43 4 -44 0 -61 -2 -37 -4z"/>
<path d="M13600 1916 c0 -8 5 -18 10 -21 6 -3 10 1 10 9 0 8 -4 18 -10 21 -5
3 -10 -1 -10 -9z"/>
<path d="M13680 1918 c0 -9 5 -20 11 -23 17 -11 18 -2 3 19 -12 17 -14 17 -14
4z"/>
<path d="M13718 1923 c7 -3 16 -2 19 1 4 3 -2 6 -13 5 -11 0 -14 -3 -6 -6z"/>
<path d="M8806 1886 l-29 -13 45 -5 c37 -4 81 -20 162 -59 5 -2 16 7 25 21 13
20 13 23 1 15 -8 -5 -26 -11 -40 -12 -20 -3 -22 -1 -10 7 13 9 12 10 -5 8 -11
-1 -24 0 -30 3 -5 3 -30 12 -54 19 -35 11 -40 15 -25 21 13 5 14 8 4 7 -8 0
-28 -5 -44 -12z"/>
<path d="M10216 1891 c-4 -5 -2 -12 3 -15 5 -4 12 -2 15 3 4 5 2 12 -3 15 -5
4 -12 2 -15 -3z"/>
<path d="M7080 1880 c0 -5 6 -10 14 -10 8 0 18 5 21 10 3 6 -3 10 -14 10 -12
0 -21 -4 -21 -10z"/>
<path d="M10126 1881 c-3 -5 1 -14 8 -20 16 -13 32 2 21 19 -8 12 -22 13 -29
1z m24 -11 c0 -5 -2 -10 -4 -10 -3 0 -8 5 -11 10 -3 6 -1 10 4 10 6 0 11 -4
11 -10z"/>
<path d="M8480 1872 c0 -14 11 -21 26 -15 8 3 11 9 8 14 -7 11 -34 12 -34 1z"/>
<path d="M15400 1863 c0 -11 -8 -27 -17 -34 -16 -13 -17 -12 -4 4 12 15 12 17
-1 12 -9 -4 -15 -17 -14 -30 0 -13 4 -21 9 -18 13 8 7 -14 -7 -27 -8 -6 -13
-17 -10 -24 3 -8 -2 -16 -12 -20 -13 -5 -15 -2 -11 14 3 11 1 18 -3 15 -5 -3
-10 1 -13 7 -2 8 -8 9 -13 4 -5 -5 -4 -10 2 -13 6 -2 9 -15 6 -29 -3 -16 1
-30 9 -35 10 -6 10 -9 2 -9 -7 0 -16 0 -20 -1 -5 -1 -6 13 -5 31 3 22 0 30 -8
25 -6 -4 -8 -16 -4 -27 5 -16 3 -20 -9 -15 -9 3 -18 -1 -21 -9 -9 -24 -8 -25
19 -20 27 5 44 -9 21 -17 -7 -3 -16 -19 -19 -37 -4 -18 -11 -29 -17 -25 -6 4
-8 10 -6 14 3 4 -4 8 -15 8 -10 1 -19 -4 -19 -12 0 -7 -3 -22 -6 -32 -5 -15
-4 -16 6 -3 9 11 13 12 17 3 2 -7 8 -13 12 -13 8 0 91 134 91 146 0 4 6 15 14
23 8 9 23 32 34 51 10 19 30 53 43 75 14 24 17 35 8 28 -12 -10 -18 -10 -27
-1 -9 9 -12 7 -12 -9z m4 -48 c-4 -8 -11 -15 -16 -15 -6 0 -5 6 2 15 7 8 14
15 16 15 2 0 1 -7 -2 -15z m-153 -237 c11 -21 11 -22 -4 -9 -10 7 -17 17 -17
22 0 15 9 10 21 -13z"/>
<path d="M8575 1860 c-3 -5 -13 -6 -21 -3 -9 3 -21 -3 -30 -16 -15 -20 -51
-31 -39 -11 4 6 -1 7 -11 3 -10 -4 -15 -2 -11 3 3 5 -3 10 -13 10 -10 0 -16
-4 -14 -8 7 -11 -10 -10 -24 2 -9 7 -9 7 -2 -2 12 -15 13 -31 1 -24 -5 4 -7
-3 -4 -14 4 -16 11 -19 27 -14 19 6 19 5 -4 -14 -13 -11 -35 -19 -47 -17 -12
1 -20 -2 -17 -6 3 -5 -3 -21 -13 -36 -10 -15 -12 -24 -5 -20 16 11 15 -1 -2
-18 -7 -8 -17 -11 -20 -7 -4 3 -4 -2 0 -11 4 -11 -1 -25 -11 -37 -14 -15 -15
-20 -4 -20 8 0 22 17 31 38 10 21 39 62 66 92 27 30 47 61 45 68 -3 6 0 12 6
12 6 0 11 -5 11 -11 0 -6 14 0 31 12 17 12 56 30 87 40 49 15 52 18 25 18 -17
1 -34 -3 -38 -9z m-125 -45 c-7 -8 -17 -15 -22 -15 -6 0 -5 7 2 15 7 8 17 15
22 15 6 0 5 -7 -2 -15z m-69 -98 c-13 -12 -20 -15 -15 -7 12 22 28 39 33 34 3
-3 -6 -15 -18 -27z"/>
<path d="M10297 1855 c-14 -7 -28 -11 -31 -7 -3 3 -6 1 -6 -5 0 -6 -11 -9 -25
-8 -14 2 -23 -1 -19 -6 3 -5 10 -6 16 -3 7 4 8 2 4 -5 -4 -6 -12 -9 -17 -5 -6
3 -20 7 -33 8 -17 2 -22 -2 -21 -18 2 -23 -13 -48 -25 -41 -4 3 -7 -3 -6 -11
0 -9 -7 -18 -18 -20 -10 -1 -24 -8 -30 -15 -8 -9 -8 -10 1 -5 6 3 14 3 16 -1
7 -11 -15 -28 -33 -28 -8 0 -21 -11 -27 -25 -10 -20 -12 -21 -7 -3 2 12 0 24
-5 27 -16 10 -23 -12 -11 -34 9 -16 8 -25 -1 -36 -10 -12 -10 -15 1 -12 7 2
15 -4 18 -12 2 -8 1 -12 -3 -8 -11 11 -35 -11 -35 -31 1 -11 5 -8 15 9 8 14
14 20 15 14 0 -5 -7 -19 -15 -30 -17 -23 -19 -60 -4 -70 6 -4 10 1 8 12 -2 18
1 31 22 83 5 13 8 26 5 28 -3 3 2 12 10 20 8 9 12 23 9 31 -3 9 -3 13 1 10 4
-4 24 14 45 41 54 67 123 117 203 147 17 6 25 13 20 17 -6 3 -22 0 -37 -8z
m-104 -50 c-3 -9 -8 -14 -10 -11 -3 3 -2 9 2 15 9 16 15 13 8 -4z"/>
<path d="M13415 1860 c3 -5 8 -10 11 -10 2 0 4 5 4 10 0 6 -5 10 -11 10 -5 0
-7 -4 -4 -10z"/>
<path d="M14637 1855 c-8 -8 -18 -11 -22 -7 -5 4 -5 1 -1 -5 5 -10 11 -10 26
0 11 6 20 15 20 19 0 12 -7 10 -23 -7z"/>
<path d="M6860 1850 c-9 -6 -10 -10 -3 -10 6 0 15 5 18 10 8 12 4 12 -15 0z"/>
<path d="M12046 1845 c-10 -28 -8 -41 6 -27 7 7 15 12 20 12 4 0 9 -53 11
-117 l3 -118 2 133 c1 83 -2 132 -8 132 -5 0 -10 -6 -10 -12 0 -10 -2 -10 -9
0 -7 11 -10 10 -15 -3z"/>
<path d="M7120 1841 c13 -10 13 -11 0 -11 -12 0 -12 -2 -2 -9 10 -6 7 -12 -12
-24 -17 -11 -23 -23 -20 -35 4 -13 1 -12 -14 5 -11 12 -22 19 -26 16 -3 -3 8
-19 25 -34 25 -22 30 -33 25 -53 -4 -18 -1 -29 12 -38 13 -9 18 -23 16 -46 -1
-19 2 -30 7 -26 6 3 8 12 5 20 -3 7 -1 16 5 20 6 4 3 16 -7 32 -27 41 -34 114
-13 136 20 20 19 48 -2 54 -11 3 -11 1 1 -7z"/>
<path d="M9029 1823 c-1 -5 -1 -11 0 -15 0 -4 -6 -5 -14 -2 -25 10 -17 -14 11
-33 36 -23 121 -138 129 -174 4 -16 10 -27 14 -25 9 6 15 -59 15 -179 0 -113
-6 -175 -16 -175 -4 0 -10 -9 -13 -21 -4 -11 -27 -49 -51 -85 -24 -35 -44 -68
-44 -73 0 -5 -12 -12 -26 -15 -18 -5 -24 -12 -20 -22 3 -8 1 -12 -4 -9 -5 3
-31 -6 -57 -20 -39 -21 -42 -25 -18 -20 16 4 32 10 35 15 3 5 19 11 35 14 30
5 75 50 72 70 -1 6 7 11 17 11 11 0 20 8 22 18 1 11 10 27 18 36 9 10 13 21 9
24 -3 4 -1 7 6 7 7 0 9 6 6 13 -3 6 2 2 11 -10 20 -27 34 -30 34 -5 0 13 -2
14 -9 4 -16 -26 -21 17 -7 61 15 48 20 96 20 182 -1 107 -10 183 -23 199 -7 9
-11 22 -8 30 4 9 1 13 -6 10 -9 -3 -13 5 -12 23 0 21 -5 28 -17 27 -16 -2 -22
8 -19 29 0 4 -5 7 -13 7 -8 0 -18 5 -21 11 -4 6 0 9 10 7 10 -2 19 4 20 14 2
13 -3 15 -25 13 -31 -4 -50 12 -53 44 -1 21 -6 28 -8 14z m75 -71 c2 -4 -4 -8
-14 -8 -10 0 -16 4 -14 8 3 4 9 8 14 8 5 0 11 -4 14 -8z m43 -94 c-3 -8 -6 -5
-6 6 -1 11 2 17 5 13 3 -3 4 -12 1 -19z m-40 -573 c0 -8 -4 -12 -9 -9 -5 3 -6
10 -3 15 9 13 12 11 12 -6z"/>
<path d="M13420 1810 c0 -11 5 -20 10 -20 6 0 10 9 10 20 0 11 -4 20 -10 20
-5 0 -10 -9 -10 -20z"/>
<path d="M14726 1797 c3 -10 9 -15 12 -12 3 3 0 11 -7 18 -10 9 -11 8 -5 -6z"/>
<path d="M15140 1800 c0 -5 5 -10 10 -10 6 0 10 5 10 10 0 6 -4 10 -10 10 -5
0 -10 -4 -10 -10z"/>
<path d="M6841 1784 c0 -11 3 -14 6 -6 3 7 2 16 -1 19 -3 4 -6 -2 -5 -13z"/>
<path d="M9900 1774 c0 -8 5 -12 10 -9 6 3 10 10 10 16 0 5 -4 9 -10 9 -5 0
-10 -7 -10 -16z"/>
<path d="M6860 1699 c0 -46 4 -89 8 -96 4 -6 6 29 5 79 -2 115 -13 129 -13 17z"/>
<path d="M14459 1775 c-4 -3 19 -50 51 -103 215 -363 256 -429 265 -424 5 3 4
7 -2 9 -7 3 -9 11 -6 20 4 9 2 14 -3 10 -5 -3 -17 8 -26 24 -10 16 -12 29 -7
29 6 0 13 -9 16 -20 3 -11 10 -20 15 -20 6 0 3 11 -6 25 -9 14 -14 30 -10 36
4 8 1 8 -13 0 -20 -10 -33 -6 -33 11 0 5 4 7 8 4 4 -2 8 6 7 20 0 22 -13 31
-25 17 -3 -4 1 -3 8 1 14 8 16 -3 3 -23 -14 -21 -25 24 -12 48 13 24 14 41 2
41 -5 0 -12 -10 -15 -22 l-6 -23 -21 24 c-11 13 -16 27 -12 30 17 13 12 30 -7
26 -24 -5 -26 4 -4 20 14 10 15 15 5 31 -11 17 -11 16 -5 -6 l6 -25 -23 22
c-18 18 -20 25 -10 37 11 13 9 14 -13 10 -21 -4 -26 0 -26 16 0 12 -4 18 -10
15 -5 -3 -10 1 -10 9 0 9 3 16 8 16 4 0 7 16 8 36 1 31 -1 33 -10 18 -14 -24
-36 -29 -36 -9 0 8 -4 15 -10 15 -5 0 -10 7 -10 16 0 8 4 12 10 9 6 -3 7 1 4
10 -5 11 -10 13 -19 5 -10 -8 -14 -7 -17 5 -1 9 -6 14 -9 10z m91 -89 c0 -2
-8 -10 -17 -17 -16 -13 -17 -12 -4 4 13 16 21 21 21 13z m50 -136 c6 -11 8
-20 6 -20 -3 0 -10 9 -16 20 -6 11 -8 20 -6 20 3 0 10 -9 16 -20z"/>
<path d="M8331 1753 c7 -12 15 -20 18 -17 3 2 -3 12 -13 22 -17 16 -18 16 -5
-5z"/>
<path d="M9397 1750 c-4 -17 0 -31 13 -45 10 -11 28 -40 40 -65 17 -35 20 -38
15 -15 -3 17 -19 57 -34 90 -25 54 -28 58 -34 35z"/>
<path d="M10067 1758 c-24 -15 2 -19 30 -4 26 13 26 15 5 13 -12 -1 -28 -5
-35 -9z"/>
<path d="M13420 1289 c0 -317 3 -478 10 -474 6 4 10 175 10 481 0 309 -3 474
-10 474 -7 0 -10 -167 -10 -481z"/>
<path d="M14727 1763 c-4 -3 -7 -13 -7 -22 1 -13 3 -13 11 2 11 19 8 33 -4 20z"/>
<path d="M14530 1745 c-7 -9 -11 -18 -8 -20 3 -3 11 1 18 10 7 9 11 18 8 20
-3 3 -11 -1 -18 -10z"/>
<path d="M14776 1752 c-3 -6 -2 -13 4 -17 5 -3 10 -11 10 -17 0 -7 -6 -6 -15
2 -12 10 -15 10 -15 -4 0 -9 3 -15 8 -15 20 3 30 -3 41 -27 9 -21 9 -30 -1
-43 -12 -14 -11 -15 5 -2 14 11 17 11 17 -1 0 -7 9 -14 20 -15 17 -2 18 1 10
18 -6 11 -16 16 -22 13 -8 -5 -9 -1 -5 10 5 11 3 15 -5 10 -7 -5 -9 -2 -6 8 8
19 -36 95 -46 80z"/>
<path d="M7040 1731 c0 -5 5 -13 10 -16 6 -3 10 -2 10 4 0 5 -4 13 -10 16 -5
3 -10 2 -10 -4z"/>
<path d="M8320 1731 c0 -6 4 -13 10 -16 6 -3 7 1 4 9 -7 18 -14 21 -14 7z"/>
<path d="M9342 1713 c-26 -29 -30 -53 -4 -31 9 8 27 14 40 13 21 -2 21 -1 5
19 -10 12 -18 22 -18 23 0 1 -10 -10 -23 -24z"/>
<path d="M14731 1704 c0 -11 3 -14 6 -6 3 7 2 16 -1 19 -3 4 -6 -2 -5 -13z"/>
<path d="M8110 1693 c0 -4 5 -15 10 -23 8 -13 10 -13 10 2 0 9 -4 20 -10 23
-5 3 -10 3 -10 -2z"/>
<path d="M9213 1683 c0 -7 4 -13 8 -13 4 0 9 6 12 13 3 8 0 14 -7 14 -7 0 -13
-6 -13 -14z"/>
<path d="M9990 1691 c0 -7 -4 -9 -10 -6 -5 3 -10 1 -10 -4 0 -6 4 -11 9 -11
13 0 25 20 17 27 -3 4 -6 1 -6 -6z"/>
<path d="M15027 1663 c-4 -3 -7 -11 -7 -17 0 -6 5 -5 12 2 6 6 9 14 7 17 -3 3
-9 2 -12 -2z"/>
<path d="M9225 1650 c3 -5 8 -10 11 -10 2 0 4 5 4 10 0 6 -5 10 -11 10 -5 0
-7 -4 -4 -10z"/>
<path d="M9389 1649 c-7 -35 -6 -39 12 -39 10 0 19 4 19 9 0 8 -29 37 -31 30z"/>
<path d="M7040 1626 c0 -9 7 -16 16 -16 17 0 14 22 -4 28 -7 2 -12 -3 -12 -12z"/>
<path d="M7156 1621 c-3 -5 1 -14 9 -21 12 -10 15 -10 15 3 0 19 -16 31 -24
18z"/>
<path d="M14765 1620 c-3 -5 -1 -10 4 -10 6 0 11 5 11 10 0 6 -2 10 -4 10 -3
0 -8 -4 -11 -10z"/>
<path d="M15010 1618 c0 -4 4 -8 9 -8 6 0 12 4 15 8 3 5 -1 9 -9 9 -8 0 -15
-4 -15 -9z"/>
<path d="M8244 1584 c-1 -13 2 -22 6 -19 5 3 11 -7 13 -22 2 -18 4 -12 4 14 0
44 -21 68 -23 27z"/>
<path d="M14645 1600 c-3 -5 -1 -10 4 -10 6 0 11 5 11 10 0 6 -2 10 -4 10 -3
0 -8 -4 -11 -10z"/>
<path d="M7196 1592 c-12 -12 -5 -21 11 -15 11 4 14 3 9 -6 -5 -8 -3 -11 5
-10 8 2 24 -2 37 -9 12 -7 22 -9 22 -5 0 11 -78 52 -84 45z"/>
<path d="M7996 1573 c-10 -46 -19 -269 -10 -260 4 4 9 47 9 95 2 97 8 137 24
156 8 10 8 16 -3 25 -11 9 -15 6 -20 -16z"/>
<path d="M9251 1584 c0 -11 3 -14 6 -6 3 7 2 16 -1 19 -3 4 -6 -2 -5 -13z"/>
<path d="M9444 1567 c-1 -30 -1 -30 9 -9 6 14 7 26 1 32 -5 5 -9 -4 -10 -23z"/>
<path d="M8065 1580 c3 -5 8 -10 11 -10 2 0 4 5 4 10 0 6 -5 10 -11 10 -5 0
-7 -4 -4 -10z"/>
<path d="M8295 1572 c3 -9 0 -19 -6 -23 -6 -3 -11 -25 -11 -48 0 -22 -3 -43
-9 -46 -5 -3 -6 1 -3 9 3 8 1 23 -5 33 -10 15 -10 14 -5 -8 3 -15 1 -30 -5
-33 -6 -4 -11 -15 -11 -24 0 -13 2 -14 9 -3 5 8 11 -15 16 -63 4 -42 10 -76
14 -76 5 0 6 -12 3 -26 -4 -20 -2 -25 8 -19 10 6 12 2 7 -14 -3 -13 -3 -20 1
-17 9 9 31 -51 27 -73 -3 -14 1 -18 15 -14 18 5 18 6 0 36 -37 65 -52 142 -49
260 2 71 8 119 16 132 17 25 16 32 -2 32 -10 0 -14 -6 -10 -15z m-18 -184 c-2
-13 -4 -5 -4 17 -1 22 1 32 4 23 2 -10 2 -28 0 -40z"/>
<path d="M12079 1567 c-12 -55 -2 -57 270 -57 l247 0 -2 -87 c-1 -74 0 -79 5
-28 3 35 9 55 14 48 9 -14 3 -121 -7 -131 -4 -4 -100 -6 -214 -4 -114 1 -232
-2 -262 -7 -39 -6 25 -9 223 -10 l277 -1 0 120 0 120 -269 0 -270 0 -3 33 -3
32 -6 -28z"/>
<path d="M14800 1574 c0 -14 3 -15 18 -3 9 7 19 15 21 16 2 2 -5 3 -17 3 -14
0 -22 -6 -22 -16z"/>
<path d="M14865 1579 c-8 -12 24 -51 36 -43 4 2 6 11 3 19 -4 8 -10 12 -15 9
-5 -3 -6 2 -3 10 7 18 -11 22 -21 5z"/>
<path d="M7150 1570 c0 -5 5 -10 10 -10 6 0 10 5 10 10 0 6 -4 10 -10 10 -5 0
-10 -4 -10 -10z"/>
<path d="M7120 1549 c0 -5 5 -7 10 -4 6 3 10 8 10 11 0 2 -4 4 -10 4 -5 0 -10
-5 -10 -11z"/>
<path d="M9473 1548 c4 -13 1 -18 -11 -19 -10 0 -12 -3 -4 -6 6 -2 12 -18 12
-33 0 -16 5 -32 10 -35 6 -3 9 -33 9 -66 -1 -33 2 -63 6 -67 4 -4 5 44 2 107
-4 69 -10 118 -18 125 -9 8 -10 7 -6 -6z"/>
<path d="M7190 1543 c0 -21 21 -26 38 -9 15 15 15 16 -1 16 -9 0 -17 -6 -17
-12 0 -9 -4 -8 -10 2 -6 9 -10 10 -10 3z"/>
<path d="M7296 1535 c6 -14 18 -19 38 -16 4 1 14 -3 20 -9 7 -5 17 -6 22 -2 4
4 2 -1 -6 -11 -12 -16 -12 -18 1 -17 7 1 30 1 49 0 32 -2 33 -3 10 -9 -20 -5
-22 -8 -9 -13 9 -4 21 -2 26 3 6 6 20 4 39 -6 16 -8 34 -15 40 -15 6 0 11 -7
11 -15 0 -8 -5 -15 -10 -15 -5 0 -4 -6 2 -13 6 -8 8 -17 4 -20 -3 -4 -1 -7 6
-7 8 0 11 8 8 19 -3 11 0 22 7 24 12 5 38 -18 29 -26 -2 -3 3 -4 14 -3 25 5
38 -5 22 -16 -11 -8 -10 -9 3 -5 9 3 19 -1 22 -9 3 -8 13 -14 23 -14 16 -1 16
-2 -2 -16 -20 -16 -20 -16 0 -12 31 4 61 -31 57 -69 -3 -27 0 -32 17 -28 26 5
28 -5 25 -110 -2 -59 0 -85 6 -75 5 8 7 40 4 70 -4 42 -3 51 6 40 8 -12 9 -6
4 25 -10 59 -56 135 -119 192 -58 53 -211 136 -251 136 -13 0 -21 3 -18 8 3 5
4 9 2 9 -2 0 -26 9 -55 20 -43 16 -51 17 -47 5z m454 -310 c0 -5 -5 -3 -10 5
-5 8 -10 20 -10 25 0 6 5 3 10 -5 5 -8 10 -19 10 -25z"/>
<path d="M14808 1533 c7 -3 16 -2 19 1 4 3 -2 6 -13 5 -11 0 -14 -3 -6 -6z"/>
<path d="M15222 1528 c-7 -7 -12 -18 -12 -25 0 -20 -43 -64 -56 -59 -7 3 -18
-1 -24 -9 -10 -11 -7 -13 14 -9 14 2 26 0 26 -6 0 -5 -4 -11 -10 -11 -5 -1
-14 -2 -19 -3 -5 0 -13 -5 -18 -9 -4 -5 -3 -8 2 -7 25 5 28 -1 7 -16 -12 -8
-22 -24 -22 -35 0 -11 -4 -17 -10 -14 -6 3 -7 -1 -4 -9 3 -9 1 -16 -6 -16 -6
0 -8 -4 -5 -10 3 -5 1 -10 -5 -10 -6 0 -8 -5 -4 -12 5 -7 3 -8 -5 -4 -7 5 -10
11 -7 14 3 3 1 11 -5 18 -13 16 -4 48 11 39 15 -10 12 11 -4 25 -24 19 -34
-56 -13 -92 9 -15 12 -30 7 -33 -4 -3 -10 -1 -12 5 -1 6 -2 -52 -1 -127 2 -76
4 -202 5 -280 l3 -142 -90 -3 c-49 -2 -109 0 -132 3 -27 4 -44 2 -47 -5 -2 -6
-5 6 -5 26 -1 20 4 40 9 43 8 5 8 11 1 19 -13 16 -13 456 0 456 5 0 9 10 9 23
-1 22 -1 22 -15 -3 -11 -20 -14 -81 -15 -302 l0 -278 150 0 151 0 -1 281 -1
282 48 81 c26 44 59 101 73 126 14 25 34 57 44 73 18 27 10 37 -12 15z"/>
<path d="M9229 1498 c-6 -21 -5 -39 2 -44 5 -3 8 6 7 20 -2 22 -6 33 -9 24z"/>
<path d="M9966 1475 c-3 -8 -1 -15 4 -15 6 0 10 7 10 15 0 8 -2 15 -4 15 -2 0
-6 -7 -10 -15z"/>
<path d="M12050 1481 c0 -6 5 -13 12 -17 7 -5 8 -3 3 6 -6 10 -4 12 9 7 10 -4
15 -3 11 3 -8 13 -35 13 -35 1z"/>
<path d="M12160 1468 c0 -5 73 -7 163 -6 163 2 144 5 -56 10 -59 2 -107 0
-107 -4z"/>
<path d="M12500 1471 c0 -11 21 -19 38 -14 21 8 13 23 -13 23 -14 0 -25 -4
-25 -9z"/>
<path d="M14900 1460 c0 -5 7 -10 15 -10 8 0 15 5 15 10 0 6 -7 10 -15 10 -8
0 -15 -4 -15 -10z"/>
<path d="M9992 1448 c-13 -17 -9 -73 10 -121 6 -15 8 -30 5 -34 -4 -3 -2 -14
3 -24 6 -10 11 -29 12 -43 1 -15 6 -26 11 -26 5 0 5 -10 2 -21 -6 -19 -5 -20
7 -9 12 12 12 20 -1 59 -9 25 -19 48 -24 49 -4 2 -5 7 -3 10 2 4 1 45 -3 91
-5 70 -8 82 -19 69z"/>
<path d="M15060 1441 c0 -6 5 -13 10 -16 6 -3 10 1 10 9 0 9 -4 16 -10 16 -5
0 -10 -4 -10 -9z"/>
<path d="M7185 1420 c-3 -5 -1 -10 4 -10 6 0 11 5 11 10 0 6 -2 10 -4 10 -3 0
-8 -4 -11 -10z"/>
<path d="M9451 1395 c-1 -11 -4 -37 -6 -57 -4 -42 -1 -47 14 -20 5 9 5 35 1
57 -4 22 -8 31 -9 20z"/>
<path d="M9731 1384 c0 -11 3 -14 6 -6 3 7 2 16 -1 19 -3 4 -6 -2 -5 -13z"/>
<path d="M9273 1355 c0 -22 2 -30 4 -17 2 12 2 30 0 40 -3 9 -5 -1 -4 -23z"/>
<path d="M14787 1348 c4 -22 4 -23 -11 -4 -9 11 -16 15 -16 9 0 -7 5 -15 10
-18 6 -3 10 -15 10 -25 0 -36 15 -28 18 10 1 21 -2 41 -7 44 -5 3 -7 -4 -4
-16z"/>
<path d="M9743 1325 c0 -22 2 -30 4 -17 2 12 2 30 0 40 -3 9 -5 -1 -4 -23z"/>
<path d="M12520 1350 c0 -5 5 -10 10 -10 6 0 10 5 10 10 0 6 -4 10 -10 10 -5
0 -10 -4 -10 -10z"/>
<path d="M7620 1339 c0 -5 -4 -7 -10 -4 -5 3 -10 2 -10 -4 0 -17 22 -24 31
-10 12 19 11 29 -1 29 -5 0 -10 -5 -10 -11z"/>
<path d="M9470 1283 c0 -18 0 -36 1 -39 0 -4 -4 -10 -9 -13 -14 -9 -27 -55
-13 -47 6 4 11 3 11 -3 0 -5 -5 -13 -11 -16 -6 -4 -8 -13 -6 -19 3 -7 -4 -18
-15 -25 -10 -6 -18 -20 -17 -29 3 -30 -1 -37 -11 -22 -8 12 -9 9 -6 -10 3 -20
0 -26 -14 -26 -10 0 -17 3 -15 7 3 3 -2 15 -10 25 -12 16 -14 17 -15 3 0 -9 6
-29 14 -43 20 -38 11 -63 -22 -62 -22 1 -27 -3 -25 -22 2 -12 -1 -22 -6 -22
-5 0 -11 -10 -13 -22 -2 -12 -9 -23 -17 -26 -8 -3 -11 -1 -8 4 3 5 -9 10 -27
10 -20 0 -33 -5 -33 -13 0 -9 4 -10 13 -2 12 10 54 -3 54 -17 0 -2 -9 0 -20 6
-11 6 -21 8 -21 5 -1 -3 -2 -11 -3 -17 -1 -7 -8 -12 -16 -10 -11 3 -11 0 -1
-12 12 -14 18 -12 52 14 21 17 41 40 44 50 4 11 10 20 15 20 13 0 66 81 105
158 42 87 71 203 56 228 -9 16 -10 15 -11 -13z m-37 -178 c-3 -9 -8 -14 -10
-11 -3 3 -2 9 2 15 9 16 15 13 8 -4z m-95 -153 c15 12 16 11 3 -4 -14 -19 -32
-15 -30 5 0 8 2 8 6 -1 4 -10 8 -10 21 0z m-88 -106 c0 -2 -8 -10 -17 -17 -16
-13 -17 -12 -4 4 13 16 21 21 21 13z"/>
<path d="M7356 1276 c6 -16 3 -17 -17 -12 -21 6 -22 6 -6 -5 25 -15 48 4 28
24 -10 10 -11 8 -5 -7z"/>
<path d="M7990 1274 c0 -32 35 -145 43 -138 4 4 7 23 7 42 0 26 -3 33 -15 28
-11 -4 -15 2 -16 24 -2 42 -3 47 -11 56 -5 4 -8 -1 -8 -12z"/>
<path d="M8030 1281 c0 -6 5 -13 10 -16 6 -3 10 1 10 9 0 9 -4 16 -10 16 -5 0
-10 -4 -10 -9z"/>
<path d="M9960 1278 c0 -9 5 -20 10 -23 13 -8 13 5 0 25 -8 13 -10 13 -10 -2z"/>
<path d="M7390 1269 c0 -5 5 -7 10 -4 6 3 10 8 10 11 0 2 -4 4 -10 4 -5 0 -10
-5 -10 -11z"/>
<path d="M14860 1270 c0 -5 5 -10 10 -10 6 0 10 5 10 10 0 6 -4 10 -10 10 -5
0 -10 -4 -10 -10z"/>
<path d="M7690 1259 c0 -5 5 -7 10 -4 6 3 10 8 10 11 0 2 -4 4 -10 4 -5 0 -10
-5 -10 -11z"/>
<path d="M8220 1230 c0 -13 5 -17 20 -13 24 6 22 25 -3 29 -11 1 -17 -5 -17
-16z"/>
<path d="M9225 1219 c-4 -6 -4 -13 -1 -16 3 -4 6 -1 6 6 0 7 5 9 12 5 7 -4 8
-3 4 4 -9 15 -13 15 -21 1z"/>
<path d="M8095 1210 c-4 -6 -14 -9 -22 -6 -10 4 -13 0 -11 -11 5 -24 35 -25
42 0 6 24 1 34 -9 17z"/>
<path d="M12080 1102 c0 -92 -4 -123 -16 -140 -15 -22 -15 -24 4 -29 14 -3 19
-10 15 -21 -5 -13 -3 -14 7 -5 7 6 9 16 5 23 -4 6 -6 74 -6 151 1 76 -1 139
-4 139 -3 0 -5 -53 -5 -118z"/>
<path d="M7433 1198 c-2 -5 9 -24 25 -42 16 -19 32 -40 34 -48 3 -7 9 -9 14
-5 4 4 2 17 -5 29 -7 11 -8 17 -2 14 5 -4 13 -1 17 5 4 8 3 9 -4 5 -16 -9 -15
7 0 22 9 9 9 15 -1 25 -11 10 -12 9 -7 -1 8 -13 -9 -42 -24 -42 -4 0 -6 10 -5
23 2 17 -2 23 -17 23 -11 0 -22 -4 -25 -8z m37 -19 c0 -14 -17 -10 -23 5 -4
10 -1 13 9 9 7 -3 14 -9 14 -14z"/>
<path d="M14822 1160 c0 -14 2 -19 5 -12 2 6 2 18 0 25 -3 6 -5 1 -5 -13z"/>
<path d="M8270 1150 c0 -11 4 -20 9 -20 6 0 9 9 8 20 -1 11 -5 20 -9 20 -4 0
-8 -9 -8 -20z"/>
<path d="M10004 1151 c0 -11 5 -17 13 -14 10 4 11 9 2 19 -15 18 -15 18 -15
-5z"/>
<path d="M10047 1150 c-3 -11 -1 -17 4 -14 5 3 12 -2 15 -10 3 -9 9 -14 14
-11 4 2 13 -8 21 -23 18 -37 50 -72 65 -72 12 0 29 -28 26 -42 -1 -5 1 -7 6
-6 18 5 53 -15 48 -27 -3 -9 0 -12 8 -9 8 3 17 1 21 -5 3 -6 11 -11 16 -11 6
0 8 4 5 9 -4 5 0 11 6 14 7 2 -11 16 -40 31 -65 33 -132 93 -169 152 -31 49
-38 53 -46 24z m238 -200 c3 -5 2 -10 -4 -10 -5 0 -13 5 -16 10 -3 6 -2 10 4
10 5 0 13 -4 16 -10z"/>
<path d="M8040 1125 c-8 -9 -8 -15 -2 -15 12 0 26 19 19 26 -2 2 -10 -2 -17
-11z"/>
<path d="M9387 1113 c3 -7 6 -13 8 -13 2 0 5 6 8 13 3 8 -1 14 -8 14 -7 0 -11
-6 -8 -14z"/>
<path d="M7781 1105 c1 -11 5 -33 9 -50 l8 -30 1 35 c0 19 -4 42 -9 50 -8 12
-10 11 -9 -5z"/>
<path d="M8339 1107 c-21 -17 -19 -53 3 -54 16 -2 17 0 3 13 -20 21 -19 30 2
13 15 -12 16 -12 10 4 -7 20 3 23 21 5 16 -16 15 -31 0 -22 -8 4 -10 3 -5 -2
5 -5 14 -9 20 -9 7 0 11 -9 9 -20 -2 -17 -1 -17 7 -5 8 11 11 11 12 3 2 -13 5
-27 9 -40 1 -5 2 -11 2 -14 -1 -3 14 -5 32 -3 28 4 35 0 45 -23 8 -17 15 -23
19 -16 4 7 16 10 27 8 11 -2 24 -4 28 -4 5 -1 5 -5 2 -11 -3 -6 1 -7 9 -4 9 3
24 3 34 -1 9 -5 28 -7 42 -7 23 2 23 1 5 -7 -18 -9 -17 -10 8 -10 52 -2 23 23
-44 36 -88 18 -88 18 -101 31 -7 7 -17 12 -24 12 -7 0 -45 32 -85 70 -39 39
-72 70 -73 70 -1 0 -8 -6 -17 -13z m128 -113 c0 -9 -5 -10 -19 -3 -10 5 -18
12 -18 14 0 2 8 3 18 2 10 0 19 -7 19 -13z"/>
<path d="M8040 1095 c0 -20 86 -155 134 -209 27 -31 56 -56 67 -56 10 0 19 -6
19 -14 0 -27 167 -120 196 -109 11 4 15 2 11 -4 -13 -20 105 -45 240 -50 73
-3 140 -2 150 2 10 4 36 9 58 11 22 3 41 9 43 14 2 5 10 6 19 3 12 -5 14 -3 8
7 -6 10 -4 12 8 7 20 -7 47 1 47 15 0 5 -6 6 -12 1 -25 -15 -65 -12 -64 6 1
10 -7 16 -21 17 -13 1 -23 -3 -23 -7 0 -5 6 -9 14 -9 8 0 16 -6 19 -14 6 -14
-59 -40 -75 -30 -5 3 -14 1 -21 -4 -17 -13 -204 -16 -212 -2 -3 6 -24 8 -48 5
-31 -4 -37 -3 -22 4 l20 10 -20 1 c-17 2 -16 3 5 10 l25 8 -25 2 c-23 1 -23 2
-5 10 16 7 17 9 3 9 -9 1 -20 -4 -24 -10 -3 -6 -18 -8 -33 -5 l-26 5 28 -13
c15 -6 25 -15 22 -18 -7 -7 -75 24 -70 32 2 4 -10 6 -28 5 -38 -3 -59 4 -51
16 3 5 -3 6 -13 3 -17 -5 -17 -5 0 9 16 13 16 15 1 21 -9 3 -23 1 -31 -5 -14
-12 -28 -6 -28 14 -1 7 -7 11 -13 9 -15 -3 -34 14 -51 46 -10 19 -15 21 -27
11 -12 -10 -13 -9 -9 3 4 11 -6 23 -29 38 -20 12 -36 25 -36 30 0 5 -13 24
-30 42 -29 32 -34 41 -31 65 1 6 -7 17 -17 25 -10 7 -24 22 -30 33 -6 11 -11
16 -12 10z m180 -235 c0 -5 -2 -10 -4 -10 -3 0 -8 5 -11 10 -3 6 -1 10 4 10 6
0 11 -4 11 -10z m160 -94 c0 -2 -7 -7 -16 -10 -8 -3 -12 -2 -9 4 6 10 25 14
25 6z"/>
<path d="M7501 1074 c0 -11 3 -14 6 -6 3 7 2 16 -1 19 -3 4 -6 -2 -5 -13z"/>
<path d="M8100 1079 c0 -5 5 -7 10 -4 6 3 10 8 10 11 0 2 -4 4 -10 4 -5 0 -10
-5 -10 -11z"/>
<path d="M8114 1046 c-8 -20 -1 -47 11 -47 12 1 16 61 4 61 -6 0 -12 -6 -15
-14z"/>
<path d="M9087 1024 c-11 -14 -17 -27 -15 -30 3 -2 14 10 27 26 12 17 18 30
14 30 -4 0 -16 -12 -26 -26z"/>
<path d="M7477 995 c-23 -28 -24 -34 -10 -39 16 -7 53 19 53 37 0 6 -6 3 -13
-8 -11 -14 -16 -15 -22 -5 -5 8 -4 11 2 7 6 -4 13 3 16 15 9 32 4 31 -26 -7z"/>
<path d="M10110 1015 c0 -8 7 -15 15 -15 8 0 15 7 15 15 0 8 -7 15 -15 15 -8
0 -15 -7 -15 -15z"/>
<path d="M6830 870 c0 -139 6 -171 26 -138 4 7 3 8 -4 4 -9 -5 -11 25 -10 116
l2 123 6 -105 6 -105 2 101 c1 67 -2 104 -10 112 -9 9 -9 12 0 12 17 0 15 17
-3 24 -13 5 -15 -15 -15 -144z"/>
<path d="M7781 995 c-3 -30 -3 -30 -12 -5 l-8 25 1 -25 c2 -49 -14 -111 -27
-106 -20 7 -25 -5 -13 -28 10 -19 10 -20 -5 -7 -10 8 -17 9 -17 3 0 -21 23
-25 37 -7 23 32 54 127 50 154 -4 25 -4 24 -6 -4z"/>
<path d="M10877 1007 c-28 -12 -28 -12 -6 -25 11 -8 18 -9 15 -3 -4 5 -3 12 1
14 5 3 8 -39 8 -94 0 -56 -4 -99 -9 -99 -6 0 -5 -5 2 -12 15 -15 16 -31 0 -22
-7 4 -8 3 -4 -4 8 -14 -25 -32 -58 -32 -14 0 -26 -4 -26 -10 0 -5 -6 -7 -14
-4 -7 3 -16 -2 -19 -10 -4 -9 -11 -16 -17 -16 -6 0 -9 4 -5 9 3 5 1 12 -5 16
-6 4 -8 10 -5 15 9 14 -15 23 -29 11 -7 -6 -16 -8 -19 -4 -4 3 -7 1 -7 -5 0
-7 -22 -9 -62 -7 -47 2 -57 1 -39 -6 29 -11 124 -4 129 11 2 5 8 10 13 10 6 0
6 -7 0 -19 -18 -32 9 -45 58 -28 23 7 38 17 34 22 -5 4 0 5 10 2 9 -4 33 1 52
10 l35 17 0 138 c0 76 -1 138 -2 138 -2 -1 -16 -6 -31 -13z"/>
<path d="M6866 991 c-4 -6 -4 -12 1 -13 4 0 13 -2 18 -3 29 -4 83 -30 79 -37
-6 -9 -3 -9 81 -13 l60 -2 -65 17 c-36 10 -84 25 -107 33 -24 9 -43 13 -43 9
0 -4 -4 -1 -9 7 -6 9 -11 10 -15 2z"/>
<path d="M10785 972 c-22 -9 -52 -25 -65 -34 -13 -10 -29 -18 -35 -18 -5 1 1
7 15 16 25 15 25 15 -10 8 -19 -4 -62 -10 -95 -14 -68 -8 -45 -12 68 -12 61 0
79 -4 88 -17 8 -13 9 -10 5 11 -5 21 -1 30 14 38 12 6 20 7 20 1 0 -5 -8 -12
-17 -14 -14 -4 -12 -5 5 -6 13 -1 22 5 22 14 0 8 11 17 25 21 14 3 22 10 19
15 -7 12 -12 11 -59 -9z"/>
<path d="M9038 973 c7 -3 16 -2 19 1 4 3 -2 6 -13 5 -11 0 -14 -3 -6 -6z"/>
<path d="M7400 943 c-23 -11 -76 -18 -157 -21 -69 -2 -120 -8 -117 -13 7 -11
191 -6 218 6 13 6 17 5 12 -3 -3 -6 -1 -14 5 -18 8 -4 9 -3 5 4 -4 7 -1 12 8
12 8 0 16 5 18 11 2 6 16 12 30 12 18 0 25 4 21 13 -3 8 -6 14 -7 13 0 0 -17
-8 -36 -16z"/>
<path d="M8485 924 c0 -18 5 -24 23 -24 12 0 22 4 22 10 0 5 -7 7 -15 4 -9 -4
-15 0 -15 9 0 9 -3 18 -7 20 -5 3 -8 -6 -8 -19z"/>
<path d="M8880 942 c0 -5 -8 -9 -17 -9 -10 1 -34 -1 -53 -2 -32 -3 -33 -4 -10
-10 14 -5 32 -4 41 0 8 4 22 3 30 -2 21 -13 25 -11 25 11 0 11 -4 20 -8 20 -4
0 -8 -4 -8 -8z"/>
<path d="M8929 943 c-10 -2 -19 -13 -22 -23 -4 -16 -11 -19 -39 -15 -33 5 -33
5 -4 -5 29 -9 75 4 62 18 -4 3 4 12 16 19 23 12 18 15 -13 6z"/>
<path d="M8212 928 c5 -15 28 -23 28 -10 0 5 -7 13 -16 16 -10 4 -14 1 -12 -6z"/>
<path d="M10323 923 c-11 -11 -25 -17 -33 -15 -7 3 -10 0 -7 -5 4 -6 18 -10
33 -10 19 0 22 2 13 8 -24 15 8 27 47 19 19 -5 44 -5 56 -2 14 3 19 1 14 -6
-8 -13 5 -14 44 -3 20 6 13 9 -35 15 -33 4 -72 9 -87 12 -18 4 -33 -1 -45 -13z"/>
<path d="M12124 923 c19 -5 18 -6 -4 -18 -22 -12 -22 -12 9 -11 17 1 31 6 31
14 0 9 60 12 268 12 147 0 278 -3 290 -7 23 -6 24 -8 20 -99 -2 -52 0 -94 4
-94 5 0 8 47 8 105 l0 105 -322 -1 c-178 -1 -314 -4 -304 -6z"/>
<path d="M8735 911 c19 -9 19 -10 1 -10 -11 -1 -17 -3 -14 -6 3 -3 23 -1 44 4
21 5 30 10 19 10 -11 1 -31 4 -45 6 -22 5 -22 4 -5 -4z"/>
<path d="M7015 900 c11 -5 14 -9 8 -9 -7 -1 -13 -5 -13 -11 0 -5 18 -10 40
-10 22 0 40 5 40 10 0 6 -11 10 -24 10 -14 0 -28 5 -31 10 -3 6 -14 10 -23 9
-14 0 -13 -2 3 -9z"/>
<path d="M7078 903 c7 -3 16 -2 19 1 4 3 -2 6 -13 5 -11 0 -14 -3 -6 -6z"/>
<path d="M7483 903 c-22 -8 -14 -23 12 -23 16 0 25 6 25 15 0 15 -14 18 -37 8z"/>
<path d="M9180 899 c0 -5 5 -7 10 -4 6 3 10 8 10 11 0 2 -4 4 -10 4 -5 0 -10
-5 -10 -11z"/>
<path d="M10520 906 c0 -2 11 -6 25 -8 13 -3 22 -1 19 3 -5 9 -44 13 -44 5z"/>
<path d="M10715 900 c3 -5 8 -10 11 -10 2 0 4 5 4 10 0 6 -5 10 -11 10 -5 0
-7 -4 -4 -10z"/>
<path d="M10770 900 c0 -5 5 -10 10 -10 6 0 10 5 10 10 0 6 -4 10 -10 10 -5 0
-10 -4 -10 -10z"/>
<path d="M7105 889 c-4 -6 -5 -12 -2 -15 2 -3 7 2 10 11 7 17 1 20 -8 4z"/>
<path d="M8620 889 c0 -5 5 -7 10 -4 6 3 10 8 10 11 0 2 -4 4 -10 4 -5 0 -10
-5 -10 -11z"/>
<path d="M8270 865 c0 -8 5 -15 10 -15 6 0 10 7 10 15 0 8 -4 15 -10 15 -5 0
-10 -7 -10 -15z"/>
<path d="M8936 871 c-4 -5 -2 -12 3 -15 5 -4 12 -2 15 3 4 5 2 12 -3 15 -5 4
-12 2 -15 -3z"/>
<path d="M9163 865 c0 -8 4 -12 9 -9 5 3 6 10 3 15 -9 13 -12 11 -12 -6z"/>
<path d="M8311 854 c0 -11 3 -14 6 -6 3 7 2 16 -1 19 -3 4 -6 -2 -5 -13z"/>
<path d="M12645 860 c-3 -5 -1 -10 4 -10 6 0 11 5 11 10 0 6 -2 10 -4 10 -3 0
-8 -4 -11 -10z"/>
<path d="M7680 841 c0 -6 5 -13 10 -16 20 -12 0 -21 -44 -20 -25 1 -43 -2 -40
-7 3 -4 0 -8 -7 -8 -7 0 -9 -3 -6 -6 4 -4 13 -1 22 6 8 7 15 8 15 2 0 -5 -6
-15 -14 -21 -8 -7 -14 -21 -13 -31 1 -18 3 -18 22 -6 13 9 19 23 18 42 -2 28
-1 28 10 8 l12 -22 25 27 c25 25 25 27 8 44 -10 9 -18 13 -18 8z m-44 -76 c-1
-8 -5 -17 -8 -21 -5 -4 -4 16 1 34 3 9 9 -1 7 -13z"/>
<path d="M12110 840 c0 -5 11 -10 24 -10 14 0 28 5 31 10 4 6 -7 10 -24 10
-17 0 -31 -4 -31 -10z"/>
<path d="M8300 820 c0 -5 5 -10 10 -10 6 0 10 5 10 10 0 6 -4 10 -10 10 -5 0
-10 -4 -10 -10z"/>
<path d="M8926 823 c-12 -12 -5 -22 14 -20 11 1 20 4 20 8 0 10 -27 19 -34 12z"/>
<path d="M7008 813 c7 -3 16 -2 19 1 4 3 -2 6 -13 5 -11 0 -14 -3 -6 -6z"/>
<path d="M11832 795 c0 -16 2 -22 5 -12 2 9 2 23 0 30 -3 6 -5 -1 -5 -18z"/>
<path d="M8352 804 c4 -4 19 -8 34 -10 34 -3 21 9 -14 14 -15 2 -23 0 -20 -4z"/>
<path d="M9060 800 c-8 -5 -12 -11 -10 -14 3 -2 14 2 24 10 22 15 10 19 -14 4z"/>
<path d="M9175 800 c-4 -6 -16 -8 -28 -4 -22 6 -22 6 -2 -10 17 -14 17 -15 2
-10 -12 4 -25 -1 -39 -15 -22 -24 -39 -21 -18 4 7 8 8 15 2 15 -9 0 -44 -61
-38 -68 6 -5 56 21 56 30 0 4 3 7 8 6 10 -4 92 44 92 54 0 12 -28 10 -35 -2z"/>
<path d="M10090 798 c0 -10 29 -9 55 2 16 6 12 8 -17 8 -21 -1 -38 -5 -38 -10z"/>
<path d="M10793 799 c14 -8 22 -8 30 0 8 8 3 11 -18 11 -26 -1 -28 -2 -12 -11z"/>
<path d="M8435 780 c3 -5 8 -10 11 -10 2 0 4 5 4 10 0 6 -5 10 -11 10 -5 0 -7
-4 -4 -10z"/>
<path d="M8495 779 c7 -11 35 -12 35 -1 0 4 -9 8 -20 9 -11 1 -18 -2 -15 -8z"/>
<path d="M8835 780 c-8 -13 5 -13 25 0 13 8 13 10 -2 10 -9 0 -20 -4 -23 -10z"/>
<path d="M10570 780 c-9 -6 -10 -10 -3 -10 6 0 15 5 18 10 8 12 4 12 -15 0z"/>
<path d="M12680 781 c0 -8 -6 -11 -16 -7 -9 4 -14 1 -12 -6 5 -15 36 -19 44
-6 3 5 1 15 -5 21 -8 8 -11 8 -11 -2z"/>
<path d="M7005 760 c3 -5 14 -10 23 -10 15 0 15 2 2 10 -20 13 -33 13 -25 0z"/>
<path d="M7522 761 c4 -13 18 -16 19 -4 0 4 -5 9 -11 12 -7 2 -11 -2 -8 -8z"/>
<path d="M11375 760 c-3 -5 1 -10 10 -10 9 0 13 5 10 10 -3 6 -8 10 -10 10 -2
0 -7 -4 -10 -10z"/>
<path d="M14842 745 l2 -25 101 2 100 2 -92 3 c-51 2 -93 8 -93 13 0 6 6 10
13 10 8 0 7 4 -3 10 -24 15 -30 12 -28 -15z"/>
<path d="M6867 723 c-4 -3 9 -12 28 -19 28 -9 43 -9 73 2 l37 13 -37 -1 c-21
-1 -35 -5 -32 -10 3 -4 1 -8 -5 -8 -5 0 -11 4 -13 9 -4 12 -43 23 -51 14z"/>
<path d="M7037 719 c7 -7 15 -10 18 -7 3 3 -2 9 -12 12 -14 6 -15 5 -6 -5z"/>
<path d="M7372 713 c-15 -15 -1 -17 32 -4 20 8 20 8 0 13 -11 3 -25 -1 -32 -9z"/>
<path d="M7445 720 c-7 -12 2 -12 30 0 19 8 19 9 -2 9 -12 1 -25 -3 -28 -9z"/>
<path d="M8615 720 c3 -5 10 -10 16 -10 5 0 9 5 9 10 0 6 -7 10 -16 10 -8 0
-12 -4 -9 -10z"/>
<path d="M8819 721 c8 -5 11 -16 8 -25 -9 -22 6 -20 20 3 10 16 9 20 -3 25
-24 9 -41 7 -25 -3z"/>
<path d="M8880 726 c0 -2 7 -7 16 -10 8 -3 12 -2 9 4 -6 10 -25 14 -25 6z"/>
<path d="M10231 726 c2 -2 20 -6 39 -10 25 -4 31 -3 20 4 -14 9 -69 15 -59 6z"/>
<path d="M10340 720 c18 -12 47 -13 53 -2 3 4 -11 8 -31 9 -27 2 -33 0 -22 -7z"/>
<path d="M13417 721 c4 -4 49 -4 98 0 l90 6 -98 0 c-54 0 -95 -2 -90 -6z"/>
<path d="M7536 709 c3 -5 -1 -9 -10 -9 -8 0 -22 -3 -32 -7 -13 -5 -15 -3 -9 7
6 10 4 12 -9 7 -10 -4 -23 -7 -29 -8 -7 0 -3 -4 8 -8 33 -13 -141 -34 -234
-29 -45 3 -87 10 -93 16 -7 7 -17 12 -22 12 -6 0 -4 -5 4 -10 10 -7 1 -8 -30
-4 -38 6 -43 4 -32 -7 22 -23 359 -20 437 4 32 10 67 25 78 32 17 12 16 13 -7
13 -14 0 -23 -4 -20 -9z"/>
<path d="M7060 700 c-13 -9 -13 -10 0 -9 8 0 24 4 35 9 l20 9 -20 0 c-11 0
-27 -4 -35 -9z"/>
<path d="M10310 706 c0 -2 9 -6 20 -9 11 -3 18 -1 14 4 -5 9 -34 13 -34 5z"/>
<path d="M6955 690 c-3 -5 2 -10 12 -10 10 0 29 -3 43 -6 18 -4 16 -1 -9 10
-39 19 -38 19 -46 6z"/>
<path d="M10375 690 c-16 -7 -17 -9 -3 -9 9 -1 20 4 23 9 7 11 7 11 -20 0z"/>
<path d="M10640 686 l25 -14 -25 -1 c-14 -1 -88 -5 -165 -9 l-140 -9 117 -1
c128 -2 271 14 262 30 -4 5 -17 7 -29 4 -13 -3 -27 -2 -30 4 -3 5 -14 10 -23
10 -12 -1 -10 -4 8 -14z"/>
</g>
</svg>
