<svg xmlns="http://www.w3.org/2000/svg" width="144" height="53.228" viewBox="0 0 144 53.228">
  <g id="Group_144" data-name="Group 144" transform="translate(-132.889 -254.689)">
    <path id="Path_20" data-name="Path 20" d="M77.8,2462.6,52.4,2409.369l-7.935,16.625,17.471,36.6Z" transform="translate(88.427 -2154.681)" fill="#fff"/>
    <g id="Group_7" data-name="Group 7" transform="translate(172.397 254.689)">
      <path id="Path_21" data-name="Path 21" d="M112.068,2439.975v-7.067a2.162,2.162,0,0,0-2.38-2.43,5.494,5.494,0,0,0-2.994.981v8.515h-2.406v-11.287l2.086.785a7.02,7.02,0,0,1,3.73-1.1,4.368,4.368,0,0,1,3.559,1.472,6.65,6.65,0,0,1,4.2-1.472c3.067,0,4.392,1.741,4.392,4.171v7.435h-2.406v-7.067a2.173,2.173,0,0,0-2.38-2.43,5.852,5.852,0,0,0-3.092,1.031,7.44,7.44,0,0,1,.124,1.3v7.166Zm22.673,0v-7.166a7.573,7.573,0,0,0-.123-1.3,5.847,5.847,0,0,1,3.092-1.031,2.173,2.173,0,0,1,2.38,2.43v7.067h2.4v-7.435c0-2.43-1.325-4.171-4.392-4.171a6.652,6.652,0,0,0-4.2,1.472,4.366,4.366,0,0,0-3.558-1.472,7.013,7.013,0,0,0-3.73,1.1l-2.086-.785v11.287h2.4v-8.515a5.5,5.5,0,0,1,2.994-.981,2.162,2.162,0,0,1,2.38,2.43v7.067Zm33.9,0v-7.435c0-2.43-1.423-4.171-4.392-4.171a7.352,7.352,0,0,0-3.975,1.153l-2.086-.835v11.287h2.4v-8.563a5.954,5.954,0,0,1,3.067-.957,2.253,2.253,0,0,1,2.552,2.454v7.067Zm-72.19.343a5.976,5.976,0,1,1,6.086-5.963A5.82,5.82,0,0,1,96.445,2440.318Zm.024-2.036c2.332,0,3.656-1.717,3.656-3.927s-1.324-3.95-3.68-3.95c-2.331,0-3.656,1.742-3.656,3.95A3.608,3.608,0,0,0,96.469,2438.281Zm53.869,2.036a5.976,5.976,0,1,1,6.086-5.963A5.82,5.82,0,0,1,150.338,2440.318Zm.025-2.036c2.331,0,3.656-1.717,3.656-3.927s-1.325-3.95-3.682-3.95c-2.331,0-3.656,1.742-3.656,3.95A3.609,3.609,0,0,0,150.363,2438.281Zm28.423-1.448a3.4,3.4,0,0,0-2.479-3.116l-2.355-.883c-.932-.344-1.129-.908-1.129-1.326,0-.809.736-1.251,1.865-1.251a7.256,7.256,0,0,1,3.534,1.1v-2.307a9.624,9.624,0,0,0-3.534-.687c-2.847,0-4.246,1.422-4.246,3.312a3.039,3.039,0,0,0,2.21,2.969l2.478.932c.761.295,1.252.663,1.252,1.374,0,.613-.393,1.448-2.16,1.448a7.973,7.973,0,0,1-3.779-1.1v2.281a9.235,9.235,0,0,0,3.731.737C176.651,2440.318,178.786,2439.313,178.786,2436.833Zm-95.9-10.91a8.1,8.1,0,0,1,5.862,2.531l.235.249v-3.166l-.056-.041a10.722,10.722,0,0,0-6.107-1.9,8.343,8.343,0,1,0-.023,16.684,10.931,10.931,0,0,0,6.129-1.9l.057-.042V2435.2l-.233.24a8.268,8.268,0,0,1-5.886,2.51,6.017,6.017,0,0,1,.023-12.031Z" transform="translate(-74.294 -2404.626)" fill="#fff"/>
      <path id="Path_22" data-name="Path 22" d="M106.781,2423.393a4.653,4.653,0,0,1-2.4.761,1.442,1.442,0,0,1-1.644-1.571v-5.767h3.583v-1.987h-3.583v-4.147l-2.43.908v11.067c0,2.208,1.2,3.632,3.706,3.632a5.461,5.461,0,0,0,2.772-.664Zm9.9-.443a3.408,3.408,0,0,0-2.479-3.116l-2.356-.883c-.932-.344-1.128-.908-1.128-1.325,0-.81.736-1.251,1.866-1.251a7.252,7.252,0,0,1,3.532,1.1v-2.307a9.611,9.611,0,0,0-3.532-.687c-2.847,0-4.246,1.423-4.246,3.312a3.038,3.038,0,0,0,2.208,2.97l2.479.932c.76.294,1.251.663,1.251,1.373,0,.615-.392,1.448-2.159,1.448a7.968,7.968,0,0,1-3.779-1.1v2.283a9.249,9.249,0,0,0,3.73.736C114.544,2426.436,116.679,2425.429,116.679,2422.95Zm-18.144-8.3a5.831,5.831,0,0,0-1.36-.167,4.228,4.228,0,0,0-3.411,1.5l-2.183-1.179v11.287h2.4v-7.8a3.9,3.9,0,0,1,2.944-1.5,5.239,5.239,0,0,1,1.605.295Zm-12.294,8.477H78.283l-1.355,2.957H74.315l8.1-16.715,7.962,16.715H87.571Zm-3.906-8.769-3.1,6.711h6.127Z" transform="translate(-74.315 -2409.37)" fill="#fff"/>
    </g>
  </g>
</svg>
